G04*
G04 #@! TF.GenerationSoftware,Altium Limited,Altium Designer,20.0.2 (26)*
G04*
G04 Layer_Color=65535*
%FSLAX44Y44*%
%MOMM*%
G71*
G01*
G75*
G36*
X661790Y1277130D02*
D01*
D02*
G37*
G36*
X501206Y1493755D02*
X493706Y1501255D01*
X501207Y1501255D01*
X501206Y1493755D01*
D02*
G37*
D10*
X503150Y1410264D02*
G03*
X503150Y1410264I-3000J0D01*
G01*
D11*
X402040Y1470418D02*
G03*
X402040Y1470418I-1250J0D01*
G01*
D12*
X519130Y1253930D02*
Y1279330D01*
Y1253930D02*
X539450D01*
Y1279330D01*
X519130D02*
X539450D01*
X355990Y1443799D02*
Y1464118D01*
X330590Y1443799D02*
X355990D01*
X330590D02*
Y1464118D01*
X355990D01*
X446590Y1508470D02*
X471990D01*
Y1528790D01*
X446590D02*
X471990D01*
X446590Y1508470D02*
Y1528790D01*
X609540Y1442628D02*
X622540D01*
Y1451003D01*
Y1466253D02*
Y1474628D01*
X609540D02*
X622540D01*
X610040Y1348378D02*
X623040D01*
Y1356753D01*
Y1372003D02*
Y1380378D01*
X610040D02*
X623040D01*
X609473Y1244828D02*
X622473D01*
Y1253203D01*
Y1268453D02*
Y1276828D01*
X609473D02*
X622473D01*
X611692Y1281162D02*
X606995Y1282871D01*
X607850Y1285220D01*
X608918Y1285718D01*
X610484Y1285148D01*
X610981Y1284080D01*
X610127Y1281732D01*
X608705Y1287568D02*
X613402Y1285859D01*
X611053Y1286713D01*
X610555Y1287781D01*
X611125Y1289347D01*
X612193Y1289845D01*
X614542Y1288990D01*
X612265Y1292478D02*
X612835Y1294044D01*
X613903Y1294542D01*
X616251Y1293687D01*
X615396Y1291338D01*
X614329Y1290840D01*
X613831Y1291908D01*
X614686Y1294257D01*
X616821Y1295253D02*
X617676Y1297601D01*
X617178Y1298669D01*
X616110Y1298171D01*
X615540Y1296605D01*
X614473Y1296107D01*
X613975Y1297175D01*
X614829Y1299523D01*
X619385Y1302298D02*
X618815Y1300732D01*
X617748Y1300234D01*
X616182Y1300804D01*
X615684Y1301872D01*
X616254Y1303438D01*
X617322Y1303936D01*
X618105Y1303651D01*
X616965Y1300519D01*
X617892Y1305501D02*
X619031Y1308632D01*
X621950Y1309343D02*
X618818Y1310483D01*
X617822Y1312618D01*
X619958Y1313614D01*
X623089Y1312475D01*
X620741Y1313329D01*
X619601Y1310198D01*
X335375Y1397712D02*
X334542Y1396879D01*
Y1395213D01*
X335375Y1394380D01*
X338707D01*
X339540Y1395213D01*
Y1396879D01*
X338707Y1397712D01*
X337041D01*
Y1396046D01*
X339540Y1399378D02*
X334542D01*
X339540Y1402711D01*
X334542D01*
Y1404377D02*
X339540D01*
Y1406876D01*
X338707Y1407709D01*
X335375D01*
X334542Y1406876D01*
Y1404377D01*
X610192Y1480412D02*
X605495Y1482121D01*
X606350Y1484470D01*
X607418Y1484968D01*
X608984Y1484398D01*
X609482Y1483330D01*
X608627Y1480982D01*
X607205Y1486818D02*
X611902Y1485109D01*
X609553Y1485963D01*
X609055Y1487031D01*
X609625Y1488597D01*
X610693Y1489095D01*
X613042Y1488240D01*
X610765Y1491728D02*
X611335Y1493294D01*
X612403Y1493792D01*
X614751Y1492937D01*
X613896Y1490588D01*
X612829Y1490090D01*
X612331Y1491158D01*
X613186Y1493507D01*
X615321Y1494503D02*
X616176Y1496851D01*
X615678Y1497919D01*
X614610Y1497421D01*
X614040Y1495855D01*
X612972Y1495357D01*
X612475Y1496425D01*
X613329Y1498773D01*
X617885Y1501548D02*
X617315Y1499982D01*
X616248Y1499484D01*
X614682Y1500054D01*
X614184Y1501122D01*
X614754Y1502688D01*
X615822Y1503185D01*
X616605Y1502901D01*
X615465Y1499769D01*
X616392Y1504751D02*
X617531Y1507882D01*
X617675Y1513149D02*
X616608Y1512651D01*
X616038Y1511086D01*
X616535Y1510018D01*
X619667Y1508878D01*
X620734Y1509376D01*
X621304Y1510942D01*
X620807Y1512009D01*
X665790Y1254796D02*
X669122D01*
X667456Y1256462D02*
Y1253130D01*
X344040Y1420380D02*
X339042D01*
Y1422879D01*
X339875Y1423712D01*
X341541D01*
X342374Y1422879D01*
Y1420380D01*
X339042Y1425378D02*
X344040D01*
X342374Y1427045D01*
X344040Y1428711D01*
X339042D01*
X344040Y1430377D02*
X339042D01*
X340708Y1432043D01*
X339042Y1433709D01*
X344040D01*
X323959Y1405962D02*
X323125Y1405129D01*
Y1403463D01*
X323959Y1402630D01*
X327291D01*
X328124Y1403463D01*
Y1405129D01*
X327291Y1405962D01*
X324792Y1408461D02*
Y1410128D01*
X325625Y1410961D01*
X328124D01*
Y1408461D01*
X327291Y1407628D01*
X326458Y1408461D01*
Y1410961D01*
X329790Y1412627D02*
X324792D01*
Y1415126D01*
X325625Y1415959D01*
X327291D01*
X328124Y1415126D01*
Y1412627D01*
X325625Y1422623D02*
Y1425956D01*
X323959Y1424290D02*
X327291D01*
X325625Y1432620D02*
Y1435952D01*
Y1437619D02*
Y1440951D01*
Y1442617D02*
Y1445949D01*
X328124Y1447615D02*
X325625Y1450114D01*
X323125Y1447615D01*
X393040Y1341380D02*
X388042D01*
X389708Y1343046D01*
X388042Y1344712D01*
X393040D01*
X388042Y1348878D02*
Y1347211D01*
X388875Y1346378D01*
X392207D01*
X393040Y1347211D01*
Y1348878D01*
X392207Y1349711D01*
X388875D01*
X388042Y1348878D01*
X388875Y1354709D02*
X388042Y1353876D01*
Y1352210D01*
X388875Y1351377D01*
X389708D01*
X390541Y1352210D01*
Y1353876D01*
X391374Y1354709D01*
X392207D01*
X393040Y1353876D01*
Y1352210D01*
X392207Y1351377D01*
X388042Y1356375D02*
Y1358041D01*
Y1357208D01*
X393040D01*
Y1356375D01*
Y1358041D01*
X665290Y1450796D02*
X668622D01*
X666956Y1452462D02*
Y1449130D01*
X671790Y1348546D02*
X675122D01*
X673456Y1350212D02*
Y1346880D01*
X403290Y1341630D02*
X398292D01*
X399958Y1343296D01*
X398292Y1344962D01*
X403290D01*
X398292Y1346628D02*
Y1348295D01*
Y1347462D01*
X403290D01*
Y1346628D01*
Y1348295D01*
X399125Y1354126D02*
X398292Y1353293D01*
Y1351627D01*
X399125Y1350794D01*
X399958D01*
X400791Y1351627D01*
Y1353293D01*
X401624Y1354126D01*
X402457D01*
X403290Y1353293D01*
Y1351627D01*
X402457Y1350794D01*
X398292Y1358291D02*
Y1356625D01*
X399125Y1355792D01*
X402457D01*
X403290Y1356625D01*
Y1358291D01*
X402457Y1359124D01*
X399125D01*
X398292Y1358291D01*
X369040Y1318380D02*
X364042D01*
Y1320879D01*
X364875Y1321712D01*
X366541D01*
X367374Y1320879D01*
Y1318380D01*
Y1320046D02*
X369040Y1321712D01*
X364042Y1326711D02*
Y1323378D01*
X369040D01*
Y1326711D01*
X366541Y1323378D02*
Y1325045D01*
X364875Y1331709D02*
X364042Y1330876D01*
Y1329210D01*
X364875Y1328377D01*
X365708D01*
X366541Y1329210D01*
Y1330876D01*
X367374Y1331709D01*
X368207D01*
X369040Y1330876D01*
Y1329210D01*
X368207Y1328377D01*
X364042Y1336707D02*
Y1333375D01*
X369040D01*
Y1336707D01*
X366541Y1333375D02*
Y1335041D01*
X364042Y1338373D02*
Y1341706D01*
Y1340040D01*
X369040D01*
X341791Y1368630D02*
Y1371962D01*
X340125Y1370296D02*
X343457D01*
X339292Y1376961D02*
Y1373628D01*
X341791D01*
X340958Y1375294D01*
Y1376128D01*
X341791Y1376961D01*
X343457D01*
X344290Y1376128D01*
Y1374462D01*
X343457Y1373628D01*
X339292Y1378627D02*
X342624D01*
X344290Y1380293D01*
X342624Y1381959D01*
X339292D01*
X430791Y1340880D02*
Y1344212D01*
X429125Y1342546D02*
X432457D01*
X428292Y1349211D02*
Y1345878D01*
X430791D01*
X429958Y1347545D01*
Y1348378D01*
X430791Y1349211D01*
X432457D01*
X433290Y1348378D01*
Y1346711D01*
X432457Y1345878D01*
X428292Y1350877D02*
X431624D01*
X433290Y1352543D01*
X431624Y1354209D01*
X428292D01*
X390040Y1367379D02*
X393372D01*
X398371Y1369045D02*
X397538Y1369878D01*
X395871D01*
X395038Y1369045D01*
Y1368212D01*
X395871Y1367379D01*
X397538D01*
X398371Y1366546D01*
Y1365713D01*
X397538Y1364880D01*
X395871D01*
X395038Y1365713D01*
X400037Y1364880D02*
Y1369878D01*
X402536D01*
X403369Y1369045D01*
Y1367379D01*
X402536Y1366546D01*
X400037D01*
X405035Y1369878D02*
X406701D01*
X405868D01*
Y1364880D01*
X405035D01*
X406701D01*
X409200Y1367379D02*
X412533D01*
X673041Y1379130D02*
Y1382462D01*
X418875Y1344712D02*
X418042Y1343879D01*
Y1342213D01*
X418875Y1341380D01*
X422207D01*
X423040Y1342213D01*
Y1343879D01*
X422207Y1344712D01*
X420541D01*
Y1343046D01*
X423040Y1346378D02*
X418042D01*
X423040Y1349711D01*
X418042D01*
Y1351377D02*
X423040D01*
Y1353876D01*
X422207Y1354709D01*
X418875D01*
X418042Y1353876D01*
Y1351377D01*
X667041Y1284880D02*
Y1288212D01*
Y1480880D02*
Y1484212D01*
X486372Y1260795D02*
X485539Y1261628D01*
X483873D01*
X483040Y1260795D01*
Y1257463D01*
X483873Y1256630D01*
X485539D01*
X486372Y1257463D01*
Y1259129D01*
X484706D01*
X488038Y1256630D02*
Y1261628D01*
X491371Y1256630D01*
Y1261628D01*
X493037D02*
Y1256630D01*
X495536D01*
X496369Y1257463D01*
Y1260795D01*
X495536Y1261628D01*
X493037D01*
X503033Y1259129D02*
X506366D01*
X508032D02*
X511364D01*
X513030Y1256630D02*
X515529Y1259129D01*
X513030Y1261628D01*
X482039Y1516880D02*
X479540Y1519379D01*
X482039Y1521878D01*
X484538Y1519379D02*
X487871D01*
X489537D02*
X492869D01*
X494535D02*
X497867D01*
X504532Y1521878D02*
Y1518546D01*
X506198Y1516880D01*
X507864Y1518546D01*
Y1521878D01*
X509530D02*
Y1516880D01*
X512029D01*
X512862Y1517713D01*
Y1518546D01*
X512029Y1519379D01*
X509530D01*
X512029D01*
X512862Y1520212D01*
Y1521045D01*
X512029Y1521878D01*
X509530D01*
X514529Y1516880D02*
Y1520212D01*
X516195Y1521878D01*
X517861Y1520212D01*
Y1516880D01*
Y1519379D01*
X514529D01*
X519527Y1521878D02*
X522859D01*
X521193D01*
Y1516880D01*
X613192Y1383162D02*
X608495Y1384871D01*
X609350Y1387220D01*
X610418Y1387718D01*
X611984Y1387148D01*
X612481Y1386080D01*
X611627Y1383732D01*
X610205Y1389568D02*
X614902Y1387859D01*
X612553Y1388713D01*
X612056Y1389781D01*
X612625Y1391347D01*
X613693Y1391845D01*
X616042Y1390990D01*
X613765Y1394478D02*
X614335Y1396044D01*
X615403Y1396542D01*
X617751Y1395687D01*
X616896Y1393338D01*
X615829Y1392841D01*
X615331Y1393908D01*
X616185Y1396257D01*
X618321Y1397253D02*
X619176Y1399601D01*
X618678Y1400669D01*
X617610Y1400171D01*
X617040Y1398605D01*
X615973Y1398107D01*
X615475Y1399175D01*
X616329Y1401523D01*
X620885Y1404298D02*
X620315Y1402732D01*
X619248Y1402234D01*
X617682Y1402804D01*
X617184Y1403872D01*
X617754Y1405438D01*
X618822Y1405936D01*
X619605Y1405650D01*
X618465Y1402519D01*
X619392Y1407501D02*
X620531Y1410632D01*
X618753Y1413053D02*
X623450Y1411343D01*
X624304Y1413692D01*
X623806Y1414760D01*
X623024Y1415044D01*
X621956Y1414547D01*
X621101Y1412198D01*
X621956Y1414547D01*
X621458Y1415614D01*
X620675Y1415899D01*
X619607Y1415401D01*
X618753Y1413053D01*
X408875Y1344462D02*
X408042Y1343629D01*
Y1341963D01*
X408875Y1341130D01*
X409708D01*
X410541Y1341963D01*
Y1343629D01*
X411374Y1344462D01*
X412207D01*
X413040Y1343629D01*
Y1341963D01*
X412207Y1341130D01*
X408875Y1349461D02*
X408042Y1348628D01*
Y1346961D01*
X408875Y1346128D01*
X412207D01*
X413040Y1346961D01*
Y1348628D01*
X412207Y1349461D01*
X408042Y1351127D02*
X413040D01*
Y1354459D01*
X408042Y1356125D02*
X413040D01*
X411374D01*
X408042Y1359457D01*
X410541Y1356958D01*
X413040Y1359457D01*
D13*
X685290Y1252630D02*
Y1318630D01*
Y1252630D02*
X731290D01*
Y1318630D01*
X685290D02*
X731290D01*
X687584Y1347630D02*
Y1413630D01*
Y1347630D02*
X733584D01*
Y1413630D01*
X687584D02*
X733584D01*
X686290Y1445630D02*
Y1511630D01*
Y1445630D02*
X732290D01*
Y1511630D01*
X686290D02*
X732290D01*
X398060Y1312630D02*
X414060D01*
X398060Y1237630D02*
Y1312630D01*
Y1237630D02*
X414060D01*
X667290Y1469630D02*
Y1472630D01*
Y1460630D02*
Y1462630D01*
X662290Y1469630D02*
X671290D01*
X662290D02*
X667290Y1462630D01*
X671290Y1469630D01*
X662290Y1462630D02*
X672290D01*
X673792Y1367380D02*
Y1370380D01*
Y1358380D02*
Y1360380D01*
X668792Y1367380D02*
X677792D01*
X668792D02*
X673792Y1360380D01*
X677792Y1367380D01*
X668792Y1360380D02*
X678792D01*
X667290Y1273990D02*
Y1276990D01*
Y1264990D02*
Y1266990D01*
X662290Y1273990D02*
X671290D01*
X662290D02*
X667290Y1266990D01*
X671290Y1273990D01*
X662290Y1266990D02*
X672290D01*
X447150Y1357264D02*
Y1420264D01*
X510150Y1357264D02*
Y1420264D01*
X447150Y1357264D02*
X510150D01*
X447150Y1420264D02*
X510150D01*
X368290Y1470918D02*
X394290D01*
X368290D02*
Y1480418D01*
Y1516918D02*
X394290D01*
X368290Y1507418D02*
Y1516918D01*
D14*
X347790Y1362930D02*
X385990D01*
X386790Y1363730D02*
Y1439130D01*
X347790D02*
X386790D01*
X347790Y1363730D02*
Y1439130D01*
X385990Y1362930D02*
X386790Y1363730D01*
X347790Y1362930D02*
Y1363730D01*
X436640Y1338520D02*
X439180D01*
Y1320740D02*
Y1338520D01*
X436640Y1320740D02*
X439180D01*
X373140Y1338520D02*
X436640D01*
X373140Y1320740D02*
Y1338520D01*
Y1320740D02*
X374410D01*
X436640D01*
D15*
X391686Y1413041D02*
X404894D01*
X391686D02*
Y1424217D01*
X404894Y1413041D02*
Y1424471D01*
X391686Y1429043D02*
Y1440219D01*
X404894Y1429043D02*
Y1440219D01*
X391686D02*
X404894D01*
X391686Y1382051D02*
X404894D01*
X391686D02*
Y1393227D01*
X404894Y1382051D02*
Y1393481D01*
X391686Y1398053D02*
Y1409229D01*
X404894Y1398053D02*
Y1409229D01*
X391686D02*
X404894D01*
X522686Y1295041D02*
X535894D01*
X522686D02*
Y1306217D01*
X535894Y1295041D02*
Y1306217D01*
X522686Y1310789D02*
Y1322219D01*
X535894Y1311043D02*
Y1322219D01*
X522686D02*
X535894D01*
X584879Y1327026D02*
Y1340234D01*
X573703Y1327026D02*
X584879D01*
X573703Y1340234D02*
X584879D01*
X557701Y1327026D02*
X569131D01*
X557701Y1340234D02*
X568877D01*
X557701Y1327026D02*
Y1340234D01*
X540686Y1295041D02*
X553894D01*
X540686D02*
Y1306217D01*
X553894Y1295041D02*
Y1306217D01*
X540686Y1310789D02*
Y1322219D01*
X553894Y1311043D02*
Y1322219D01*
X540686D02*
X553894D01*
X661083Y1495326D02*
X677593D01*
X661083Y1515646D02*
X677593D01*
X622983D02*
X639493D01*
X622983Y1495326D02*
X639493D01*
X677593D02*
Y1515646D01*
X622983Y1495326D02*
Y1515646D01*
X652879Y1478306D02*
Y1491514D01*
X641703Y1478306D02*
X652879D01*
X641449Y1491514D02*
X652879D01*
X625701Y1478306D02*
X636877D01*
X625701Y1491514D02*
X636877D01*
X625701Y1478306D02*
Y1491514D01*
X639686Y1471219D02*
X652894D01*
Y1460043D02*
Y1471219D01*
X639686Y1459789D02*
Y1471219D01*
X652894Y1444041D02*
Y1455217D01*
X639686Y1444041D02*
Y1455217D01*
Y1444041D02*
X652894D01*
X593077Y1518329D02*
X606284D01*
Y1507153D02*
Y1518329D01*
X593077Y1506899D02*
Y1518329D01*
X606284Y1491151D02*
Y1502327D01*
X593077Y1491151D02*
Y1502327D01*
Y1491151D02*
X606284D01*
X576056Y1491151D02*
X589264D01*
X576056D02*
Y1502327D01*
X589264Y1491151D02*
Y1502581D01*
X576056Y1507153D02*
Y1518329D01*
X589264Y1507153D02*
Y1518329D01*
X576056D02*
X589264D01*
X576056Y1482769D02*
X589264D01*
Y1471593D02*
Y1482769D01*
X576056Y1471339D02*
Y1482769D01*
X589264Y1455591D02*
Y1466767D01*
X576056Y1455591D02*
Y1466767D01*
Y1455591D02*
X589264D01*
X639186Y1369964D02*
X652394D01*
Y1358788D02*
Y1369964D01*
X639186Y1358533D02*
Y1369964D01*
X652394Y1342785D02*
Y1353961D01*
X639186Y1342785D02*
Y1353961D01*
Y1342785D02*
X652394D01*
X593097Y1411579D02*
X606305D01*
Y1400403D02*
Y1411579D01*
X593097Y1400149D02*
Y1411579D01*
X606305Y1384401D02*
Y1395577D01*
X593097Y1384401D02*
Y1395577D01*
Y1384401D02*
X606305D01*
X666083Y1391520D02*
X682593D01*
X666083Y1411840D02*
X682593D01*
X627983D02*
X644493D01*
X627983Y1391520D02*
X644493D01*
X682593D02*
Y1411840D01*
X627983Y1391520D02*
Y1411840D01*
X660364Y1373776D02*
Y1386984D01*
X649188Y1373776D02*
X660364D01*
X648934Y1386984D02*
X660364D01*
X633186Y1373776D02*
X644362D01*
X633186Y1386984D02*
X644362D01*
X633186Y1373776D02*
Y1386984D01*
X576076Y1384401D02*
X589284D01*
X576076D02*
Y1395577D01*
X589284Y1384401D02*
Y1395831D01*
X576076Y1400403D02*
Y1411579D01*
X589284Y1400403D02*
Y1411579D01*
X576076D02*
X589284D01*
X576076Y1376019D02*
X589284D01*
Y1364843D02*
Y1376019D01*
X576076Y1364589D02*
Y1376019D01*
X589284Y1348841D02*
Y1360017D01*
X576076Y1348841D02*
Y1360017D01*
Y1348841D02*
X589284D01*
X653419Y1279626D02*
Y1292834D01*
X642243Y1279626D02*
X653419D01*
X641989Y1292834D02*
X653419D01*
X626241Y1279626D02*
X637417D01*
X626241Y1292834D02*
X637417D01*
X626241Y1279626D02*
Y1292834D01*
X664603Y1297917D02*
X681113D01*
X664603Y1318237D02*
X681113D01*
X626502D02*
X643012D01*
X626502Y1297917D02*
X643012D01*
X681113D02*
Y1318237D01*
X626502Y1297917D02*
Y1318237D01*
X639576Y1274419D02*
X652784D01*
Y1263243D02*
Y1274419D01*
X639576Y1262989D02*
Y1274419D01*
X652784Y1247241D02*
Y1258417D01*
X639576Y1247241D02*
Y1258417D01*
Y1247241D02*
X652784D01*
X593856Y1317599D02*
X607064D01*
Y1306423D02*
Y1317599D01*
X593856Y1306169D02*
Y1317599D01*
X607064Y1290421D02*
Y1301597D01*
X593856Y1290421D02*
Y1301597D01*
Y1290421D02*
X607064D01*
X576076Y1281403D02*
X589284D01*
Y1270227D02*
Y1281403D01*
X576076Y1269973D02*
Y1281403D01*
X589284Y1254225D02*
Y1265401D01*
X576076Y1254225D02*
Y1265401D01*
Y1254225D02*
X589284D01*
X576186Y1285791D02*
X589394D01*
X576186D02*
Y1296967D01*
X589394Y1285791D02*
Y1297221D01*
X576186Y1301793D02*
Y1312969D01*
X589394Y1301793D02*
Y1312969D01*
X576186D02*
X589394D01*
X574379Y1417776D02*
Y1430984D01*
X563203Y1417776D02*
X574379D01*
X563203Y1430984D02*
X574379D01*
X547201Y1417776D02*
X558631D01*
X547201Y1430984D02*
X558377D01*
X547201Y1417776D02*
Y1430984D01*
X412473Y1473371D02*
X425681D01*
X412473D02*
Y1484547D01*
X425681Y1473371D02*
Y1484547D01*
X412473Y1489119D02*
Y1500549D01*
X425681Y1489373D02*
Y1500549D01*
X412473D02*
X425681D01*
X426594Y1444420D02*
Y1464740D01*
X371984Y1444420D02*
Y1464740D01*
X410084D02*
X426594D01*
X410084Y1444420D02*
X426594D01*
X371984D02*
X388494D01*
X371984Y1464740D02*
X388494D01*
X412468Y1505357D02*
Y1518565D01*
X423644D01*
X412468Y1505357D02*
X423644D01*
X428216Y1518565D02*
X439646D01*
X428470Y1505357D02*
X439646D01*
Y1518565D01*
X458707Y1463755D02*
X498707D01*
X458707D02*
Y1498755D01*
X498707D01*
Y1463755D02*
Y1498755D01*
X441686Y1467026D02*
X454894D01*
X441686D02*
Y1478202D01*
X454894Y1467026D02*
Y1478202D01*
X441686Y1482774D02*
Y1494204D01*
X454894Y1483028D02*
Y1494204D01*
X441686D02*
X454894D01*
X504384Y1494205D02*
X517592D01*
Y1483029D02*
Y1494205D01*
X504384Y1483029D02*
Y1494205D01*
X517592Y1467027D02*
Y1478457D01*
X504384Y1467027D02*
Y1478203D01*
Y1467027D02*
X517592D01*
X485701Y1307026D02*
Y1320234D01*
X496877D01*
X485701Y1307026D02*
X496877D01*
X501449Y1320234D02*
X512879D01*
X501703Y1307026D02*
X512879D01*
Y1320234D01*
X513941Y1287933D02*
Y1302919D01*
X494637Y1287933D02*
Y1302919D01*
X513941D01*
X494637Y1266343D02*
Y1281075D01*
Y1266343D02*
X513941D01*
Y1281583D01*
D16*
X674040Y1489630D02*
X676450D01*
Y1443770D02*
Y1489630D01*
Y1442500D02*
Y1443770D01*
X669830Y1442500D02*
X676450D01*
X669830D02*
Y1443770D01*
X676450D01*
X658130D02*
X664750D01*
Y1442500D02*
Y1443770D01*
X658130Y1442500D02*
X664750D01*
X658130D02*
Y1443770D01*
Y1489630D01*
X660540D01*
X680542Y1387380D02*
X682952D01*
Y1341520D02*
Y1387380D01*
Y1340250D02*
Y1341520D01*
X676331Y1340250D02*
X682952D01*
X676331D02*
Y1341520D01*
X682952D01*
X664632D02*
X671252D01*
Y1340250D02*
Y1341520D01*
X664632Y1340250D02*
X671252D01*
X664632D02*
Y1341520D01*
Y1387380D01*
X667041D01*
X674040Y1293990D02*
X676450D01*
Y1248130D02*
Y1293990D01*
Y1246860D02*
Y1248130D01*
X669830Y1246860D02*
X676450D01*
X669830D02*
Y1248130D01*
X676450D01*
X658130D02*
X664750D01*
Y1246860D02*
Y1248130D01*
X658130Y1246860D02*
X664750D01*
X658130D02*
Y1248130D01*
Y1293990D01*
X660540D01*
D17*
X667290Y1270880D02*
D03*
D18*
X673790Y1364255D02*
D03*
D19*
X667165Y1466630D02*
D03*
M02*
