G04*
G04 #@! TF.GenerationSoftware,Altium Limited,Altium Designer,20.0.2 (26)*
G04*
G04 Layer_Color=32896*
%FSLAX44Y44*%
%MOMM*%
G71*
G01*
G75*
G36*
X617461Y1296512D02*
X617729Y1296467D01*
X617966Y1296393D01*
X618160Y1296318D01*
X618338Y1296244D01*
X618457Y1296170D01*
X618531Y1296125D01*
X618561Y1296110D01*
X618769Y1295947D01*
X618962Y1295754D01*
X619140Y1295546D01*
X619289Y1295338D01*
X619393Y1295145D01*
X619482Y1294996D01*
X619512Y1294937D01*
X619542Y1294907D01*
X619556Y1294877D01*
Y1294862D01*
X619601Y1294743D01*
X619660Y1294595D01*
X619720Y1294446D01*
X619764Y1294268D01*
X619868Y1293911D01*
X619972Y1293555D01*
X620047Y1293228D01*
X620091Y1293079D01*
X620121Y1292945D01*
X620151Y1292841D01*
X620166Y1292767D01*
X620180Y1292708D01*
Y1292693D01*
X620255Y1292410D01*
X620314Y1292158D01*
X620374Y1291935D01*
X620448Y1291727D01*
X620507Y1291549D01*
X620552Y1291400D01*
X620611Y1291266D01*
X620671Y1291147D01*
X620715Y1291043D01*
X620745Y1290954D01*
X620790Y1290895D01*
X620819Y1290850D01*
X620864Y1290776D01*
X620879Y1290761D01*
X621012Y1290642D01*
X621146Y1290553D01*
X621295Y1290479D01*
X621429Y1290434D01*
X621547Y1290405D01*
X621651Y1290390D01*
X621711D01*
X621741D01*
X621964Y1290419D01*
X622157Y1290479D01*
X622335Y1290553D01*
X622484Y1290657D01*
X622617Y1290746D01*
X622706Y1290835D01*
X622766Y1290895D01*
X622781Y1290910D01*
X622855Y1291014D01*
X622929Y1291133D01*
X623033Y1291400D01*
X623108Y1291682D01*
X623152Y1291965D01*
X623197Y1292217D01*
Y1292336D01*
X623212Y1292425D01*
Y1292619D01*
X623197Y1293020D01*
X623137Y1293361D01*
X623063Y1293659D01*
X622974Y1293896D01*
X622885Y1294075D01*
X622811Y1294208D01*
X622751Y1294283D01*
X622736Y1294312D01*
X622543Y1294506D01*
X622320Y1294669D01*
X622097Y1294788D01*
X621874Y1294877D01*
X621666Y1294937D01*
X621503Y1294966D01*
X621443Y1294981D01*
X621399Y1294996D01*
X621369D01*
X621354D01*
X621443Y1296229D01*
X621755Y1296199D01*
X622038Y1296140D01*
X622305Y1296051D01*
X622528Y1295962D01*
X622706Y1295887D01*
X622855Y1295813D01*
X622944Y1295754D01*
X622974Y1295739D01*
X623212Y1295561D01*
X623420Y1295353D01*
X623598Y1295145D01*
X623747Y1294937D01*
X623851Y1294743D01*
X623940Y1294595D01*
X623969Y1294535D01*
X623984Y1294491D01*
X623999Y1294476D01*
Y1294461D01*
X624118Y1294149D01*
X624207Y1293822D01*
X624267Y1293495D01*
X624311Y1293198D01*
X624341Y1292945D01*
Y1292841D01*
X624356Y1292737D01*
Y1292559D01*
X624341Y1292202D01*
X624296Y1291861D01*
X624252Y1291564D01*
X624192Y1291296D01*
X624118Y1291088D01*
X624088Y1290999D01*
X624073Y1290925D01*
X624044Y1290850D01*
X624029Y1290806D01*
X624014Y1290791D01*
Y1290776D01*
X623880Y1290494D01*
X623717Y1290241D01*
X623553Y1290033D01*
X623405Y1289870D01*
X623256Y1289736D01*
X623137Y1289632D01*
X623063Y1289572D01*
X623048Y1289557D01*
X623033D01*
X622796Y1289424D01*
X622543Y1289320D01*
X622320Y1289245D01*
X622097Y1289201D01*
X621919Y1289171D01*
X621785Y1289142D01*
X621726D01*
X621681D01*
X621666D01*
X621651D01*
X621414Y1289156D01*
X621176Y1289201D01*
X620968Y1289245D01*
X620790Y1289320D01*
X620641Y1289379D01*
X620537Y1289424D01*
X620463Y1289468D01*
X620433Y1289483D01*
X620240Y1289632D01*
X620061Y1289795D01*
X619913Y1289959D01*
X619779Y1290137D01*
X619675Y1290286D01*
X619601Y1290405D01*
X619542Y1290494D01*
X619527Y1290509D01*
Y1290523D01*
X619467Y1290627D01*
X619423Y1290761D01*
X619319Y1291043D01*
X619215Y1291355D01*
X619111Y1291667D01*
X619036Y1291950D01*
X619007Y1292069D01*
X618977Y1292173D01*
X618947Y1292262D01*
X618932Y1292336D01*
X618917Y1292381D01*
Y1292396D01*
X618858Y1292633D01*
X618798Y1292856D01*
X618754Y1293064D01*
X618709Y1293243D01*
X618665Y1293391D01*
X618620Y1293540D01*
X618591Y1293659D01*
X618561Y1293777D01*
X618531Y1293867D01*
X618501Y1293941D01*
X618472Y1294060D01*
X618457Y1294119D01*
X618442Y1294134D01*
X618353Y1294342D01*
X618249Y1294535D01*
X618160Y1294684D01*
X618070Y1294803D01*
X617981Y1294892D01*
X617922Y1294966D01*
X617877Y1294996D01*
X617862Y1295011D01*
X617729Y1295100D01*
X617595Y1295159D01*
X617461Y1295219D01*
X617327Y1295249D01*
X617224Y1295263D01*
X617134Y1295278D01*
X617075D01*
X617060D01*
X616897Y1295263D01*
X616748Y1295234D01*
X616599Y1295189D01*
X616480Y1295145D01*
X616376Y1295085D01*
X616302Y1295040D01*
X616243Y1295011D01*
X616228Y1294996D01*
X616094Y1294877D01*
X615975Y1294743D01*
X615871Y1294610D01*
X615782Y1294461D01*
X615708Y1294342D01*
X615663Y1294238D01*
X615634Y1294179D01*
X615619Y1294149D01*
X615544Y1293926D01*
X615500Y1293703D01*
X615455Y1293495D01*
X615440Y1293287D01*
X615425Y1293124D01*
X615411Y1292975D01*
Y1292856D01*
X615425Y1292559D01*
X615455Y1292277D01*
X615500Y1292009D01*
X615559Y1291801D01*
X615604Y1291608D01*
X615648Y1291474D01*
X615678Y1291385D01*
X615693Y1291370D01*
Y1291355D01*
X615812Y1291133D01*
X615931Y1290925D01*
X616064Y1290761D01*
X616183Y1290627D01*
X616287Y1290509D01*
X616376Y1290434D01*
X616436Y1290390D01*
X616451Y1290375D01*
X616644Y1290271D01*
X616837Y1290182D01*
X617045Y1290122D01*
X617238Y1290063D01*
X617417Y1290033D01*
X617550Y1290003D01*
X617640Y1289989D01*
X617654D01*
X617669D01*
X617565Y1288770D01*
X617209Y1288800D01*
X616882Y1288859D01*
X616570Y1288948D01*
X616317Y1289037D01*
X616094Y1289127D01*
X616005Y1289171D01*
X615931Y1289216D01*
X615871Y1289245D01*
X615827Y1289275D01*
X615812Y1289290D01*
X615797D01*
X615530Y1289498D01*
X615292Y1289736D01*
X615099Y1289959D01*
X614935Y1290197D01*
X614801Y1290390D01*
X614712Y1290553D01*
X614683Y1290612D01*
X614653Y1290657D01*
X614638Y1290687D01*
Y1290702D01*
X614519Y1291058D01*
X614430Y1291430D01*
X614356Y1291801D01*
X614311Y1292143D01*
X614296Y1292307D01*
X614281Y1292455D01*
Y1292589D01*
X614267Y1292693D01*
Y1292916D01*
X614281Y1293302D01*
X614326Y1293644D01*
X614385Y1293971D01*
X614460Y1294238D01*
X614519Y1294476D01*
X614549Y1294565D01*
X614579Y1294639D01*
X614608Y1294699D01*
X614623Y1294743D01*
X614638Y1294773D01*
Y1294788D01*
X614801Y1295085D01*
X614965Y1295353D01*
X615143Y1295575D01*
X615322Y1295754D01*
X615470Y1295902D01*
X615589Y1295992D01*
X615678Y1296066D01*
X615708Y1296081D01*
X615961Y1296229D01*
X616228Y1296333D01*
X616480Y1296422D01*
X616703Y1296467D01*
X616897Y1296497D01*
X617045Y1296526D01*
X617105D01*
X617149D01*
X617164D01*
X617179D01*
X617461Y1296512D01*
D02*
G37*
G36*
X614836Y1277657D02*
X613692D01*
Y1280524D01*
X611849D01*
X611715Y1280346D01*
X611582Y1280153D01*
X611463Y1279960D01*
X611359Y1279767D01*
X611270Y1279588D01*
X611210Y1279440D01*
X611180Y1279380D01*
X611166Y1279336D01*
X611151Y1279321D01*
Y1279306D01*
X611047Y1279009D01*
X610972Y1278712D01*
X610913Y1278429D01*
X610883Y1278192D01*
X610854Y1277983D01*
X610839Y1277820D01*
Y1277672D01*
X610854Y1277315D01*
X610898Y1276973D01*
X610972Y1276676D01*
X611047Y1276394D01*
X611121Y1276171D01*
X611166Y1276067D01*
X611195Y1275992D01*
X611210Y1275933D01*
X611240Y1275888D01*
X611255Y1275859D01*
Y1275844D01*
X611433Y1275547D01*
X611641Y1275279D01*
X611864Y1275056D01*
X612072Y1274878D01*
X612265Y1274744D01*
X612414Y1274640D01*
X612473Y1274596D01*
X612518Y1274566D01*
X612547Y1274551D01*
X612562D01*
X612919Y1274402D01*
X613276Y1274298D01*
X613647Y1274209D01*
X614004Y1274165D01*
X614152Y1274150D01*
X614301Y1274135D01*
X614435Y1274120D01*
X614539D01*
X614643Y1274105D01*
X614702D01*
X614747D01*
X614762D01*
X615148Y1274120D01*
X615519Y1274165D01*
X615846Y1274224D01*
X616143Y1274298D01*
X616381Y1274358D01*
X616485Y1274388D01*
X616559Y1274417D01*
X616634Y1274447D01*
X616678Y1274462D01*
X616708Y1274477D01*
X616723D01*
X616916Y1274566D01*
X617094Y1274655D01*
X617258Y1274759D01*
X617406Y1274863D01*
X617525Y1274952D01*
X617614Y1275027D01*
X617674Y1275071D01*
X617689Y1275086D01*
X617852Y1275249D01*
X617986Y1275413D01*
X618105Y1275591D01*
X618209Y1275755D01*
X618298Y1275903D01*
X618357Y1276022D01*
X618387Y1276096D01*
X618402Y1276126D01*
X618491Y1276379D01*
X618565Y1276631D01*
X618610Y1276899D01*
X618655Y1277137D01*
X618669Y1277345D01*
X618684Y1277508D01*
Y1277657D01*
X618669Y1277924D01*
X618640Y1278177D01*
X618595Y1278400D01*
X618550Y1278593D01*
X618506Y1278756D01*
X618461Y1278890D01*
X618432Y1278964D01*
X618417Y1278994D01*
X618313Y1279217D01*
X618209Y1279395D01*
X618090Y1279559D01*
X617986Y1279692D01*
X617882Y1279796D01*
X617808Y1279871D01*
X617748Y1279915D01*
X617733Y1279930D01*
X617555Y1280049D01*
X617362Y1280153D01*
X617169Y1280242D01*
X616990Y1280316D01*
X616812Y1280376D01*
X616678Y1280435D01*
X616589Y1280450D01*
X616574Y1280465D01*
X616559D01*
X616886Y1281639D01*
X617243Y1281535D01*
X617555Y1281416D01*
X617822Y1281297D01*
X618045Y1281178D01*
X618238Y1281059D01*
X618372Y1280970D01*
X618447Y1280911D01*
X618476Y1280896D01*
X618699Y1280703D01*
X618877Y1280480D01*
X619041Y1280257D01*
X619175Y1280034D01*
X619294Y1279841D01*
X619368Y1279692D01*
X619398Y1279633D01*
X619412Y1279588D01*
X619427Y1279559D01*
Y1279544D01*
X619546Y1279217D01*
X619635Y1278890D01*
X619695Y1278563D01*
X619739Y1278281D01*
X619769Y1278028D01*
Y1277909D01*
X619784Y1277820D01*
Y1277642D01*
X619754Y1277107D01*
X619695Y1276631D01*
X619591Y1276186D01*
X619531Y1275992D01*
X619487Y1275814D01*
X619427Y1275651D01*
X619368Y1275502D01*
X619323Y1275368D01*
X619264Y1275264D01*
X619234Y1275190D01*
X619204Y1275116D01*
X619175Y1275086D01*
Y1275071D01*
X619056Y1274863D01*
X618922Y1274685D01*
X618640Y1274328D01*
X618343Y1274046D01*
X618045Y1273793D01*
X617763Y1273615D01*
X617659Y1273541D01*
X617555Y1273466D01*
X617466Y1273422D01*
X617406Y1273392D01*
X617362Y1273362D01*
X617347D01*
X616886Y1273169D01*
X616411Y1273021D01*
X615965Y1272917D01*
X615549Y1272842D01*
X615371Y1272813D01*
X615207Y1272798D01*
X615059Y1272783D01*
X614925D01*
X614821Y1272768D01*
X614747D01*
X614702D01*
X614687D01*
X614167Y1272798D01*
X613677Y1272857D01*
X613231Y1272961D01*
X613023Y1273006D01*
X612845Y1273065D01*
X612666Y1273125D01*
X612518Y1273169D01*
X612384Y1273229D01*
X612280Y1273273D01*
X612191Y1273303D01*
X612131Y1273333D01*
X612087Y1273362D01*
X612072D01*
X611671Y1273615D01*
X611314Y1273897D01*
X611002Y1274180D01*
X610750Y1274477D01*
X610556Y1274729D01*
X610482Y1274833D01*
X610423Y1274937D01*
X610363Y1275012D01*
X610334Y1275086D01*
X610319Y1275116D01*
X610304Y1275131D01*
X610096Y1275576D01*
X609947Y1276037D01*
X609843Y1276468D01*
X609769Y1276884D01*
X609739Y1277062D01*
X609724Y1277226D01*
X609709Y1277374D01*
Y1277508D01*
X609695Y1277612D01*
Y1277746D01*
X609709Y1278132D01*
X609754Y1278518D01*
X609813Y1278860D01*
X609888Y1279172D01*
X609917Y1279306D01*
X609947Y1279440D01*
X609977Y1279544D01*
X610007Y1279633D01*
X610036Y1279707D01*
X610051Y1279767D01*
X610066Y1279796D01*
Y1279811D01*
X610229Y1280183D01*
X610408Y1280554D01*
X610601Y1280881D01*
X610779Y1281178D01*
X610958Y1281431D01*
X611017Y1281535D01*
X611091Y1281624D01*
X611136Y1281698D01*
X611180Y1281743D01*
X611195Y1281773D01*
X611210Y1281787D01*
X614836D01*
Y1277657D01*
D02*
G37*
G36*
X581171Y1282390D02*
X581498Y1282331D01*
X581810Y1282242D01*
X582063Y1282153D01*
X582286Y1282063D01*
X582375Y1282019D01*
X582449Y1281974D01*
X582509Y1281944D01*
X582553Y1281915D01*
X582568Y1281900D01*
X582583D01*
X582850Y1281692D01*
X583088Y1281454D01*
X583281Y1281231D01*
X583445Y1280994D01*
X583578Y1280800D01*
X583668Y1280637D01*
X583697Y1280578D01*
X583727Y1280533D01*
X583742Y1280503D01*
Y1280488D01*
X583861Y1280132D01*
X583950Y1279760D01*
X584024Y1279389D01*
X584069Y1279047D01*
X584084Y1278884D01*
X584099Y1278735D01*
Y1278601D01*
X584113Y1278497D01*
Y1278274D01*
X584099Y1277888D01*
X584054Y1277546D01*
X583995Y1277219D01*
X583920Y1276952D01*
X583861Y1276714D01*
X583831Y1276625D01*
X583801Y1276551D01*
X583772Y1276491D01*
X583757Y1276447D01*
X583742Y1276417D01*
Y1276402D01*
X583578Y1276105D01*
X583415Y1275837D01*
X583237Y1275615D01*
X583058Y1275436D01*
X582910Y1275288D01*
X582791Y1275199D01*
X582702Y1275124D01*
X582672Y1275109D01*
X582420Y1274961D01*
X582152Y1274857D01*
X581899Y1274768D01*
X581677Y1274723D01*
X581483Y1274693D01*
X581335Y1274664D01*
X581275D01*
X581231D01*
X581216D01*
X581201D01*
X580919Y1274678D01*
X580651Y1274723D01*
X580414Y1274797D01*
X580220Y1274872D01*
X580042Y1274946D01*
X579923Y1275020D01*
X579849Y1275065D01*
X579819Y1275080D01*
X579611Y1275243D01*
X579418Y1275436D01*
X579240Y1275644D01*
X579091Y1275852D01*
X578987Y1276046D01*
X578898Y1276194D01*
X578868Y1276254D01*
X578839Y1276283D01*
X578824Y1276313D01*
Y1276328D01*
X578779Y1276447D01*
X578720Y1276595D01*
X578660Y1276744D01*
X578616Y1276922D01*
X578512Y1277279D01*
X578408Y1277635D01*
X578333Y1277962D01*
X578289Y1278111D01*
X578259Y1278245D01*
X578229Y1278349D01*
X578214Y1278423D01*
X578200Y1278482D01*
Y1278497D01*
X578125Y1278780D01*
X578066Y1279032D01*
X578006Y1279255D01*
X577932Y1279463D01*
X577873Y1279641D01*
X577828Y1279790D01*
X577769Y1279924D01*
X577709Y1280043D01*
X577665Y1280147D01*
X577635Y1280236D01*
X577590Y1280295D01*
X577561Y1280340D01*
X577516Y1280414D01*
X577501Y1280429D01*
X577368Y1280548D01*
X577234Y1280637D01*
X577085Y1280711D01*
X576951Y1280756D01*
X576833Y1280786D01*
X576729Y1280800D01*
X576669D01*
X576639D01*
X576417Y1280771D01*
X576223Y1280711D01*
X576045Y1280637D01*
X575896Y1280533D01*
X575763Y1280444D01*
X575673Y1280355D01*
X575614Y1280295D01*
X575599Y1280280D01*
X575525Y1280176D01*
X575451Y1280057D01*
X575347Y1279790D01*
X575272Y1279508D01*
X575228Y1279225D01*
X575183Y1278973D01*
Y1278854D01*
X575168Y1278765D01*
Y1278571D01*
X575183Y1278170D01*
X575243Y1277829D01*
X575317Y1277531D01*
X575406Y1277294D01*
X575495Y1277115D01*
X575569Y1276982D01*
X575629Y1276907D01*
X575644Y1276878D01*
X575837Y1276684D01*
X576060Y1276521D01*
X576283Y1276402D01*
X576506Y1276313D01*
X576714Y1276254D01*
X576877Y1276224D01*
X576936Y1276209D01*
X576981Y1276194D01*
X577011D01*
X577026D01*
X576936Y1274961D01*
X576624Y1274990D01*
X576342Y1275050D01*
X576075Y1275139D01*
X575852Y1275228D01*
X575673Y1275303D01*
X575525Y1275377D01*
X575436Y1275436D01*
X575406Y1275451D01*
X575168Y1275630D01*
X574960Y1275837D01*
X574782Y1276046D01*
X574633Y1276254D01*
X574529Y1276447D01*
X574440Y1276595D01*
X574411Y1276655D01*
X574396Y1276699D01*
X574381Y1276714D01*
Y1276729D01*
X574262Y1277041D01*
X574173Y1277368D01*
X574113Y1277695D01*
X574069Y1277992D01*
X574039Y1278245D01*
Y1278349D01*
X574024Y1278453D01*
Y1278631D01*
X574039Y1278988D01*
X574084Y1279329D01*
X574128Y1279626D01*
X574188Y1279894D01*
X574262Y1280102D01*
X574292Y1280191D01*
X574306Y1280266D01*
X574336Y1280340D01*
X574351Y1280384D01*
X574366Y1280399D01*
Y1280414D01*
X574500Y1280696D01*
X574663Y1280949D01*
X574827Y1281157D01*
X574975Y1281320D01*
X575124Y1281454D01*
X575243Y1281558D01*
X575317Y1281618D01*
X575332Y1281633D01*
X575347D01*
X575584Y1281766D01*
X575837Y1281870D01*
X576060Y1281944D01*
X576283Y1281989D01*
X576461Y1282019D01*
X576595Y1282048D01*
X576654D01*
X576699D01*
X576714D01*
X576729D01*
X576966Y1282034D01*
X577204Y1281989D01*
X577412Y1281944D01*
X577590Y1281870D01*
X577739Y1281811D01*
X577843Y1281766D01*
X577917Y1281722D01*
X577947Y1281707D01*
X578140Y1281558D01*
X578318Y1281395D01*
X578467Y1281231D01*
X578601Y1281053D01*
X578705Y1280904D01*
X578779Y1280786D01*
X578839Y1280696D01*
X578853Y1280681D01*
Y1280667D01*
X578913Y1280563D01*
X578957Y1280429D01*
X579061Y1280147D01*
X579165Y1279835D01*
X579269Y1279522D01*
X579344Y1279240D01*
X579373Y1279121D01*
X579403Y1279017D01*
X579433Y1278928D01*
X579448Y1278854D01*
X579463Y1278809D01*
Y1278794D01*
X579522Y1278557D01*
X579581Y1278334D01*
X579626Y1278126D01*
X579671Y1277947D01*
X579715Y1277799D01*
X579760Y1277650D01*
X579790Y1277531D01*
X579819Y1277412D01*
X579849Y1277323D01*
X579879Y1277249D01*
X579908Y1277130D01*
X579923Y1277071D01*
X579938Y1277056D01*
X580027Y1276848D01*
X580131Y1276655D01*
X580220Y1276506D01*
X580309Y1276387D01*
X580399Y1276298D01*
X580458Y1276224D01*
X580503Y1276194D01*
X580518Y1276179D01*
X580651Y1276090D01*
X580785Y1276031D01*
X580919Y1275971D01*
X581053Y1275941D01*
X581157Y1275927D01*
X581246Y1275912D01*
X581305D01*
X581320D01*
X581483Y1275927D01*
X581632Y1275956D01*
X581781Y1276001D01*
X581899Y1276046D01*
X582004Y1276105D01*
X582078Y1276150D01*
X582137Y1276179D01*
X582152Y1276194D01*
X582286Y1276313D01*
X582405Y1276447D01*
X582509Y1276580D01*
X582598Y1276729D01*
X582672Y1276848D01*
X582717Y1276952D01*
X582746Y1277011D01*
X582761Y1277041D01*
X582836Y1277264D01*
X582880Y1277487D01*
X582925Y1277695D01*
X582940Y1277903D01*
X582954Y1278066D01*
X582969Y1278215D01*
Y1278334D01*
X582954Y1278631D01*
X582925Y1278913D01*
X582880Y1279181D01*
X582821Y1279389D01*
X582776Y1279582D01*
X582732Y1279716D01*
X582702Y1279805D01*
X582687Y1279820D01*
Y1279835D01*
X582568Y1280057D01*
X582449Y1280266D01*
X582315Y1280429D01*
X582197Y1280563D01*
X582093Y1280681D01*
X582004Y1280756D01*
X581944Y1280800D01*
X581929Y1280815D01*
X581736Y1280919D01*
X581543Y1281008D01*
X581335Y1281068D01*
X581142Y1281127D01*
X580963Y1281157D01*
X580830Y1281187D01*
X580740Y1281202D01*
X580726D01*
X580711D01*
X580815Y1282420D01*
X581171Y1282390D01*
D02*
G37*
G36*
X580911Y1298900D02*
X581401Y1298841D01*
X581847Y1298737D01*
X582055Y1298692D01*
X582233Y1298633D01*
X582412Y1298573D01*
X582560Y1298529D01*
X582694Y1298469D01*
X582798Y1298425D01*
X582887Y1298395D01*
X582947Y1298365D01*
X582991Y1298336D01*
X583006D01*
X583407Y1298083D01*
X583764Y1297801D01*
X584076Y1297518D01*
X584328Y1297221D01*
X584522Y1296969D01*
X584596Y1296865D01*
X584655Y1296761D01*
X584715Y1296686D01*
X584744Y1296612D01*
X584759Y1296582D01*
X584774Y1296567D01*
X584982Y1296122D01*
X585131Y1295661D01*
X585235Y1295230D01*
X585309Y1294814D01*
X585339Y1294636D01*
X585354Y1294472D01*
X585369Y1294324D01*
Y1294190D01*
X585383Y1294086D01*
Y1293952D01*
X585369Y1293566D01*
X585324Y1293180D01*
X585265Y1292838D01*
X585190Y1292526D01*
X585161Y1292392D01*
X585131Y1292258D01*
X585101Y1292154D01*
X585071Y1292065D01*
X585042Y1291991D01*
X585027Y1291931D01*
X585012Y1291902D01*
Y1291887D01*
X584849Y1291515D01*
X584670Y1291144D01*
X584477Y1290817D01*
X584299Y1290520D01*
X584120Y1290267D01*
X584061Y1290163D01*
X583987Y1290074D01*
X583942Y1290000D01*
X583898Y1289955D01*
X583883Y1289926D01*
X583868Y1289911D01*
X580242D01*
Y1294041D01*
X581386D01*
Y1291174D01*
X583229D01*
X583363Y1291352D01*
X583496Y1291545D01*
X583615Y1291738D01*
X583719Y1291931D01*
X583808Y1292110D01*
X583868Y1292258D01*
X583898Y1292318D01*
X583912Y1292362D01*
X583927Y1292377D01*
Y1292392D01*
X584031Y1292689D01*
X584106Y1292986D01*
X584165Y1293269D01*
X584195Y1293506D01*
X584224Y1293714D01*
X584239Y1293878D01*
Y1294026D01*
X584224Y1294383D01*
X584180Y1294725D01*
X584106Y1295022D01*
X584031Y1295304D01*
X583957Y1295527D01*
X583912Y1295631D01*
X583883Y1295706D01*
X583868Y1295765D01*
X583838Y1295810D01*
X583823Y1295839D01*
Y1295854D01*
X583645Y1296151D01*
X583437Y1296419D01*
X583214Y1296642D01*
X583006Y1296820D01*
X582813Y1296954D01*
X582664Y1297058D01*
X582605Y1297102D01*
X582560Y1297132D01*
X582531Y1297147D01*
X582516D01*
X582159Y1297296D01*
X581802Y1297399D01*
X581431Y1297489D01*
X581074Y1297533D01*
X580926Y1297548D01*
X580777Y1297563D01*
X580643Y1297578D01*
X580539D01*
X580435Y1297593D01*
X580376D01*
X580331D01*
X580317D01*
X579930Y1297578D01*
X579559Y1297533D01*
X579232Y1297474D01*
X578935Y1297399D01*
X578697Y1297340D01*
X578593Y1297310D01*
X578519Y1297281D01*
X578444Y1297251D01*
X578400Y1297236D01*
X578370Y1297221D01*
X578355D01*
X578162Y1297132D01*
X577984Y1297043D01*
X577820Y1296939D01*
X577672Y1296835D01*
X577553Y1296746D01*
X577464Y1296671D01*
X577404Y1296627D01*
X577389Y1296612D01*
X577226Y1296449D01*
X577092Y1296285D01*
X576973Y1296107D01*
X576869Y1295943D01*
X576780Y1295795D01*
X576721Y1295676D01*
X576691Y1295602D01*
X576676Y1295572D01*
X576587Y1295319D01*
X576513Y1295067D01*
X576468Y1294799D01*
X576423Y1294561D01*
X576409Y1294353D01*
X576394Y1294190D01*
Y1294041D01*
X576409Y1293774D01*
X576438Y1293521D01*
X576483Y1293298D01*
X576527Y1293105D01*
X576572Y1292942D01*
X576617Y1292808D01*
X576646Y1292734D01*
X576661Y1292704D01*
X576765Y1292481D01*
X576869Y1292303D01*
X576988Y1292139D01*
X577092Y1292006D01*
X577196Y1291902D01*
X577270Y1291827D01*
X577330Y1291783D01*
X577345Y1291768D01*
X577523Y1291649D01*
X577716Y1291545D01*
X577909Y1291456D01*
X578088Y1291382D01*
X578266Y1291322D01*
X578400Y1291263D01*
X578489Y1291248D01*
X578504Y1291233D01*
X578519D01*
X578192Y1290059D01*
X577835Y1290163D01*
X577523Y1290282D01*
X577256Y1290401D01*
X577033Y1290520D01*
X576839Y1290639D01*
X576706Y1290728D01*
X576632Y1290787D01*
X576602Y1290802D01*
X576379Y1290995D01*
X576201Y1291218D01*
X576037Y1291441D01*
X575903Y1291664D01*
X575784Y1291857D01*
X575710Y1292006D01*
X575681Y1292065D01*
X575666Y1292110D01*
X575651Y1292139D01*
Y1292154D01*
X575532Y1292481D01*
X575443Y1292808D01*
X575383Y1293135D01*
X575339Y1293417D01*
X575309Y1293670D01*
Y1293789D01*
X575294Y1293878D01*
Y1294056D01*
X575324Y1294591D01*
X575383Y1295067D01*
X575487Y1295512D01*
X575547Y1295706D01*
X575591Y1295884D01*
X575651Y1296047D01*
X575710Y1296196D01*
X575755Y1296330D01*
X575814Y1296434D01*
X575844Y1296508D01*
X575874Y1296582D01*
X575903Y1296612D01*
Y1296627D01*
X576022Y1296835D01*
X576156Y1297013D01*
X576438Y1297370D01*
X576735Y1297652D01*
X577033Y1297905D01*
X577315Y1298083D01*
X577419Y1298157D01*
X577523Y1298232D01*
X577612Y1298276D01*
X577672Y1298306D01*
X577716Y1298336D01*
X577731D01*
X578192Y1298529D01*
X578667Y1298677D01*
X579113Y1298781D01*
X579529Y1298856D01*
X579707Y1298885D01*
X579871Y1298900D01*
X580019Y1298915D01*
X580153D01*
X580257Y1298930D01*
X580331D01*
X580376D01*
X580391D01*
X580911Y1298900D01*
D02*
G37*
G36*
X581151Y1483628D02*
X581478Y1483569D01*
X581790Y1483480D01*
X582043Y1483391D01*
X582266Y1483301D01*
X582355Y1483257D01*
X582429Y1483212D01*
X582489Y1483183D01*
X582533Y1483153D01*
X582548Y1483138D01*
X582563D01*
X582830Y1482930D01*
X583068Y1482692D01*
X583261Y1482469D01*
X583425Y1482232D01*
X583559Y1482038D01*
X583648Y1481875D01*
X583677Y1481815D01*
X583707Y1481771D01*
X583722Y1481741D01*
Y1481726D01*
X583841Y1481370D01*
X583930Y1480998D01*
X584004Y1480627D01*
X584049Y1480285D01*
X584064Y1480122D01*
X584079Y1479973D01*
Y1479839D01*
X584093Y1479735D01*
Y1479512D01*
X584079Y1479126D01*
X584034Y1478784D01*
X583975Y1478457D01*
X583900Y1478190D01*
X583841Y1477952D01*
X583811Y1477863D01*
X583781Y1477789D01*
X583752Y1477729D01*
X583737Y1477685D01*
X583722Y1477655D01*
Y1477640D01*
X583559Y1477343D01*
X583395Y1477076D01*
X583217Y1476853D01*
X583038Y1476674D01*
X582890Y1476526D01*
X582771Y1476436D01*
X582682Y1476362D01*
X582652Y1476347D01*
X582399Y1476199D01*
X582132Y1476095D01*
X581880Y1476006D01*
X581657Y1475961D01*
X581463Y1475931D01*
X581315Y1475902D01*
X581255D01*
X581211D01*
X581196D01*
X581181D01*
X580899Y1475916D01*
X580631Y1475961D01*
X580394Y1476035D01*
X580200Y1476110D01*
X580022Y1476184D01*
X579903Y1476258D01*
X579829Y1476303D01*
X579799Y1476318D01*
X579591Y1476481D01*
X579398Y1476674D01*
X579220Y1476882D01*
X579071Y1477090D01*
X578967Y1477283D01*
X578878Y1477432D01*
X578848Y1477491D01*
X578819Y1477521D01*
X578804Y1477551D01*
Y1477566D01*
X578759Y1477685D01*
X578700Y1477833D01*
X578640Y1477982D01*
X578596Y1478160D01*
X578492Y1478517D01*
X578388Y1478873D01*
X578313Y1479200D01*
X578269Y1479349D01*
X578239Y1479483D01*
X578209Y1479587D01*
X578194Y1479661D01*
X578180Y1479720D01*
Y1479735D01*
X578105Y1480018D01*
X578046Y1480270D01*
X577986Y1480493D01*
X577912Y1480701D01*
X577853Y1480879D01*
X577808Y1481028D01*
X577749Y1481162D01*
X577689Y1481281D01*
X577645Y1481385D01*
X577615Y1481474D01*
X577570Y1481533D01*
X577541Y1481578D01*
X577496Y1481652D01*
X577481Y1481667D01*
X577347Y1481786D01*
X577214Y1481875D01*
X577065Y1481949D01*
X576931Y1481994D01*
X576813Y1482023D01*
X576708Y1482038D01*
X576649D01*
X576619D01*
X576396Y1482009D01*
X576203Y1481949D01*
X576025Y1481875D01*
X575876Y1481771D01*
X575743Y1481682D01*
X575653Y1481593D01*
X575594Y1481533D01*
X575579Y1481518D01*
X575505Y1481414D01*
X575431Y1481295D01*
X575327Y1481028D01*
X575252Y1480746D01*
X575208Y1480463D01*
X575163Y1480211D01*
Y1480092D01*
X575148Y1480003D01*
Y1479810D01*
X575163Y1479408D01*
X575223Y1479067D01*
X575297Y1478769D01*
X575386Y1478532D01*
X575475Y1478353D01*
X575550Y1478220D01*
X575609Y1478145D01*
X575624Y1478116D01*
X575817Y1477922D01*
X576040Y1477759D01*
X576263Y1477640D01*
X576486Y1477551D01*
X576694Y1477491D01*
X576857Y1477462D01*
X576917Y1477447D01*
X576961Y1477432D01*
X576991D01*
X577006D01*
X576917Y1476199D01*
X576604Y1476228D01*
X576322Y1476288D01*
X576055Y1476377D01*
X575832Y1476466D01*
X575653Y1476541D01*
X575505Y1476615D01*
X575416Y1476674D01*
X575386Y1476689D01*
X575148Y1476868D01*
X574940Y1477076D01*
X574762Y1477283D01*
X574613Y1477491D01*
X574509Y1477685D01*
X574420Y1477833D01*
X574390Y1477893D01*
X574376Y1477937D01*
X574361Y1477952D01*
Y1477967D01*
X574242Y1478279D01*
X574153Y1478606D01*
X574093Y1478933D01*
X574049Y1479230D01*
X574019Y1479483D01*
Y1479587D01*
X574004Y1479691D01*
Y1479869D01*
X574019Y1480226D01*
X574064Y1480567D01*
X574108Y1480865D01*
X574168Y1481132D01*
X574242Y1481340D01*
X574272Y1481429D01*
X574286Y1481503D01*
X574316Y1481578D01*
X574331Y1481622D01*
X574346Y1481637D01*
Y1481652D01*
X574480Y1481934D01*
X574643Y1482187D01*
X574807Y1482395D01*
X574955Y1482558D01*
X575104Y1482692D01*
X575223Y1482796D01*
X575297Y1482856D01*
X575312Y1482870D01*
X575327D01*
X575564Y1483004D01*
X575817Y1483108D01*
X576040Y1483183D01*
X576263Y1483227D01*
X576441Y1483257D01*
X576575Y1483286D01*
X576634D01*
X576679D01*
X576694D01*
X576708D01*
X576946Y1483272D01*
X577184Y1483227D01*
X577392Y1483183D01*
X577570Y1483108D01*
X577719Y1483049D01*
X577823Y1483004D01*
X577897Y1482960D01*
X577927Y1482945D01*
X578120Y1482796D01*
X578298Y1482633D01*
X578447Y1482469D01*
X578581Y1482291D01*
X578685Y1482142D01*
X578759Y1482023D01*
X578819Y1481934D01*
X578833Y1481920D01*
Y1481905D01*
X578893Y1481801D01*
X578937Y1481667D01*
X579041Y1481385D01*
X579145Y1481073D01*
X579249Y1480760D01*
X579324Y1480478D01*
X579353Y1480359D01*
X579383Y1480255D01*
X579413Y1480166D01*
X579428Y1480092D01*
X579443Y1480047D01*
Y1480032D01*
X579502Y1479795D01*
X579562Y1479572D01*
X579606Y1479364D01*
X579651Y1479185D01*
X579695Y1479037D01*
X579740Y1478888D01*
X579770Y1478769D01*
X579799Y1478651D01*
X579829Y1478561D01*
X579859Y1478487D01*
X579888Y1478368D01*
X579903Y1478309D01*
X579918Y1478294D01*
X580007Y1478086D01*
X580111Y1477893D01*
X580200Y1477744D01*
X580289Y1477625D01*
X580379Y1477536D01*
X580438Y1477462D01*
X580483Y1477432D01*
X580498Y1477417D01*
X580631Y1477328D01*
X580765Y1477269D01*
X580899Y1477209D01*
X581032Y1477180D01*
X581137Y1477165D01*
X581226Y1477150D01*
X581285D01*
X581300D01*
X581463Y1477165D01*
X581612Y1477194D01*
X581761Y1477239D01*
X581880Y1477283D01*
X581983Y1477343D01*
X582058Y1477388D01*
X582117Y1477417D01*
X582132Y1477432D01*
X582266Y1477551D01*
X582385Y1477685D01*
X582489Y1477818D01*
X582578Y1477967D01*
X582652Y1478086D01*
X582697Y1478190D01*
X582726Y1478249D01*
X582741Y1478279D01*
X582816Y1478502D01*
X582860Y1478725D01*
X582905Y1478933D01*
X582920Y1479141D01*
X582934Y1479304D01*
X582949Y1479453D01*
Y1479572D01*
X582934Y1479869D01*
X582905Y1480151D01*
X582860Y1480419D01*
X582801Y1480627D01*
X582756Y1480820D01*
X582712Y1480954D01*
X582682Y1481043D01*
X582667Y1481058D01*
Y1481073D01*
X582548Y1481295D01*
X582429Y1481503D01*
X582295Y1481667D01*
X582177Y1481801D01*
X582073Y1481920D01*
X581983Y1481994D01*
X581924Y1482038D01*
X581909Y1482053D01*
X581716Y1482157D01*
X581523Y1482246D01*
X581315Y1482306D01*
X581122Y1482365D01*
X580943Y1482395D01*
X580810Y1482425D01*
X580720Y1482440D01*
X580706D01*
X580691D01*
X580795Y1483658D01*
X581151Y1483628D01*
D02*
G37*
G36*
X579748Y1500270D02*
X580238Y1500211D01*
X580684Y1500107D01*
X580892Y1500062D01*
X581070Y1500003D01*
X581248Y1499944D01*
X581397Y1499899D01*
X581531Y1499839D01*
X581635Y1499795D01*
X581724Y1499765D01*
X581783Y1499736D01*
X581828Y1499706D01*
X581843D01*
X582244Y1499453D01*
X582600Y1499171D01*
X582912Y1498889D01*
X583165Y1498591D01*
X583358Y1498339D01*
X583433Y1498235D01*
X583492Y1498131D01*
X583551Y1498056D01*
X583581Y1497982D01*
X583596Y1497952D01*
X583611Y1497937D01*
X583819Y1497492D01*
X583967Y1497031D01*
X584072Y1496600D01*
X584146Y1496184D01*
X584175Y1496006D01*
X584190Y1495842D01*
X584205Y1495694D01*
Y1495560D01*
X584220Y1495456D01*
Y1495322D01*
X584205Y1494936D01*
X584161Y1494550D01*
X584101Y1494208D01*
X584027Y1493896D01*
X583997Y1493762D01*
X583967Y1493628D01*
X583938Y1493524D01*
X583908Y1493435D01*
X583878Y1493361D01*
X583863Y1493302D01*
X583849Y1493272D01*
Y1493257D01*
X583685Y1492885D01*
X583507Y1492514D01*
X583314Y1492187D01*
X583135Y1491890D01*
X582957Y1491637D01*
X582898Y1491533D01*
X582823Y1491444D01*
X582779Y1491370D01*
X582734Y1491325D01*
X582719Y1491295D01*
X582704Y1491281D01*
X579079D01*
Y1495412D01*
X580223D01*
Y1492544D01*
X582066D01*
X582199Y1492722D01*
X582333Y1492915D01*
X582452Y1493108D01*
X582556Y1493302D01*
X582645Y1493480D01*
X582704Y1493628D01*
X582734Y1493688D01*
X582749Y1493732D01*
X582764Y1493747D01*
Y1493762D01*
X582868Y1494059D01*
X582942Y1494357D01*
X583002Y1494639D01*
X583031Y1494877D01*
X583061Y1495085D01*
X583076Y1495248D01*
Y1495397D01*
X583061Y1495753D01*
X583017Y1496095D01*
X582942Y1496392D01*
X582868Y1496674D01*
X582794Y1496897D01*
X582749Y1497001D01*
X582719Y1497076D01*
X582704Y1497135D01*
X582675Y1497180D01*
X582660Y1497209D01*
Y1497224D01*
X582481Y1497522D01*
X582273Y1497789D01*
X582051Y1498012D01*
X581843Y1498190D01*
X581649Y1498324D01*
X581501Y1498428D01*
X581441Y1498472D01*
X581397Y1498502D01*
X581367Y1498517D01*
X581352D01*
X580996Y1498666D01*
X580639Y1498770D01*
X580267Y1498859D01*
X579911Y1498903D01*
X579762Y1498918D01*
X579614Y1498933D01*
X579480Y1498948D01*
X579376D01*
X579272Y1498963D01*
X579213D01*
X579168D01*
X579153D01*
X578767Y1498948D01*
X578395Y1498903D01*
X578068Y1498844D01*
X577771Y1498770D01*
X577533Y1498710D01*
X577430Y1498681D01*
X577355Y1498651D01*
X577281Y1498621D01*
X577236Y1498606D01*
X577207Y1498591D01*
X577192D01*
X576999Y1498502D01*
X576820Y1498413D01*
X576657Y1498309D01*
X576508Y1498205D01*
X576389Y1498116D01*
X576300Y1498042D01*
X576241Y1497997D01*
X576226Y1497982D01*
X576062Y1497819D01*
X575929Y1497655D01*
X575810Y1497477D01*
X575706Y1497313D01*
X575617Y1497165D01*
X575557Y1497046D01*
X575527Y1496972D01*
X575513Y1496942D01*
X575424Y1496689D01*
X575349Y1496437D01*
X575305Y1496169D01*
X575260Y1495932D01*
X575245Y1495724D01*
X575230Y1495560D01*
Y1495412D01*
X575245Y1495144D01*
X575275Y1494891D01*
X575320Y1494668D01*
X575364Y1494475D01*
X575409Y1494312D01*
X575453Y1494178D01*
X575483Y1494104D01*
X575498Y1494074D01*
X575602Y1493851D01*
X575706Y1493673D01*
X575825Y1493510D01*
X575929Y1493376D01*
X576033Y1493272D01*
X576107Y1493197D01*
X576166Y1493153D01*
X576181Y1493138D01*
X576360Y1493019D01*
X576553Y1492915D01*
X576746Y1492826D01*
X576924Y1492752D01*
X577103Y1492692D01*
X577236Y1492633D01*
X577326Y1492618D01*
X577340Y1492603D01*
X577355D01*
X577028Y1491429D01*
X576672Y1491533D01*
X576360Y1491652D01*
X576092Y1491771D01*
X575869Y1491890D01*
X575676Y1492009D01*
X575542Y1492098D01*
X575468Y1492157D01*
X575438Y1492172D01*
X575215Y1492365D01*
X575037Y1492588D01*
X574874Y1492811D01*
X574740Y1493034D01*
X574621Y1493227D01*
X574547Y1493376D01*
X574517Y1493435D01*
X574502Y1493480D01*
X574487Y1493510D01*
Y1493524D01*
X574369Y1493851D01*
X574279Y1494178D01*
X574220Y1494505D01*
X574175Y1494787D01*
X574146Y1495040D01*
Y1495159D01*
X574131Y1495248D01*
Y1495426D01*
X574160Y1495961D01*
X574220Y1496437D01*
X574324Y1496882D01*
X574383Y1497076D01*
X574428Y1497254D01*
X574487Y1497417D01*
X574547Y1497566D01*
X574591Y1497700D01*
X574651Y1497804D01*
X574681Y1497878D01*
X574710Y1497952D01*
X574740Y1497982D01*
Y1497997D01*
X574859Y1498205D01*
X574993Y1498383D01*
X575275Y1498740D01*
X575572Y1499022D01*
X575869Y1499275D01*
X576152Y1499453D01*
X576256Y1499527D01*
X576360Y1499602D01*
X576449Y1499646D01*
X576508Y1499676D01*
X576553Y1499706D01*
X576568D01*
X577028Y1499899D01*
X577504Y1500047D01*
X577949Y1500152D01*
X578366Y1500226D01*
X578544Y1500255D01*
X578707Y1500270D01*
X578856Y1500285D01*
X578990D01*
X579094Y1500300D01*
X579168D01*
X579213D01*
X579227D01*
X579748Y1500270D01*
D02*
G37*
G36*
X614901Y1491781D02*
X615169Y1491737D01*
X615406Y1491663D01*
X615600Y1491588D01*
X615778Y1491514D01*
X615897Y1491440D01*
X615971Y1491395D01*
X616001Y1491380D01*
X616209Y1491217D01*
X616402Y1491024D01*
X616580Y1490816D01*
X616729Y1490608D01*
X616833Y1490414D01*
X616922Y1490266D01*
X616952Y1490206D01*
X616982Y1490177D01*
X616996Y1490147D01*
Y1490132D01*
X617041Y1490013D01*
X617100Y1489865D01*
X617160Y1489716D01*
X617204Y1489538D01*
X617308Y1489181D01*
X617412Y1488825D01*
X617487Y1488498D01*
X617531Y1488349D01*
X617561Y1488215D01*
X617591Y1488111D01*
X617606Y1488037D01*
X617620Y1487978D01*
Y1487963D01*
X617695Y1487681D01*
X617754Y1487428D01*
X617814Y1487205D01*
X617888Y1486997D01*
X617947Y1486819D01*
X617992Y1486670D01*
X618051Y1486536D01*
X618111Y1486417D01*
X618155Y1486313D01*
X618185Y1486224D01*
X618230Y1486165D01*
X618259Y1486120D01*
X618304Y1486046D01*
X618319Y1486031D01*
X618452Y1485912D01*
X618586Y1485823D01*
X618735Y1485749D01*
X618869Y1485704D01*
X618988Y1485674D01*
X619091Y1485660D01*
X619151D01*
X619181D01*
X619403Y1485689D01*
X619597Y1485749D01*
X619775Y1485823D01*
X619924Y1485927D01*
X620057Y1486016D01*
X620146Y1486105D01*
X620206Y1486165D01*
X620221Y1486180D01*
X620295Y1486284D01*
X620369Y1486403D01*
X620473Y1486670D01*
X620548Y1486952D01*
X620592Y1487235D01*
X620637Y1487487D01*
Y1487606D01*
X620652Y1487695D01*
Y1487888D01*
X620637Y1488290D01*
X620577Y1488631D01*
X620503Y1488929D01*
X620414Y1489166D01*
X620325Y1489345D01*
X620251Y1489478D01*
X620191Y1489553D01*
X620176Y1489582D01*
X619983Y1489776D01*
X619760Y1489939D01*
X619537Y1490058D01*
X619314Y1490147D01*
X619106Y1490206D01*
X618943Y1490236D01*
X618883Y1490251D01*
X618839Y1490266D01*
X618809D01*
X618794D01*
X618883Y1491499D01*
X619196Y1491470D01*
X619478Y1491410D01*
X619745Y1491321D01*
X619968Y1491232D01*
X620146Y1491158D01*
X620295Y1491083D01*
X620384Y1491024D01*
X620414Y1491009D01*
X620652Y1490831D01*
X620860Y1490623D01*
X621038Y1490414D01*
X621187Y1490206D01*
X621291Y1490013D01*
X621380Y1489865D01*
X621409Y1489805D01*
X621424Y1489761D01*
X621439Y1489746D01*
Y1489731D01*
X621558Y1489419D01*
X621647Y1489092D01*
X621707Y1488765D01*
X621751Y1488468D01*
X621781Y1488215D01*
Y1488111D01*
X621796Y1488007D01*
Y1487829D01*
X621781Y1487472D01*
X621736Y1487131D01*
X621692Y1486833D01*
X621632Y1486566D01*
X621558Y1486358D01*
X621528Y1486269D01*
X621513Y1486195D01*
X621484Y1486120D01*
X621469Y1486076D01*
X621454Y1486061D01*
Y1486046D01*
X621320Y1485764D01*
X621157Y1485511D01*
X620993Y1485303D01*
X620845Y1485140D01*
X620696Y1485006D01*
X620577Y1484902D01*
X620503Y1484842D01*
X620488Y1484828D01*
X620473D01*
X620236Y1484694D01*
X619983Y1484590D01*
X619760Y1484516D01*
X619537Y1484471D01*
X619359Y1484441D01*
X619225Y1484411D01*
X619166D01*
X619121D01*
X619106D01*
X619091D01*
X618854Y1484426D01*
X618616Y1484471D01*
X618408Y1484516D01*
X618230Y1484590D01*
X618081Y1484649D01*
X617977Y1484694D01*
X617903Y1484738D01*
X617873Y1484753D01*
X617680Y1484902D01*
X617502Y1485065D01*
X617353Y1485229D01*
X617219Y1485407D01*
X617115Y1485556D01*
X617041Y1485674D01*
X616982Y1485764D01*
X616967Y1485779D01*
Y1485793D01*
X616907Y1485897D01*
X616863Y1486031D01*
X616759Y1486313D01*
X616655Y1486626D01*
X616551Y1486938D01*
X616476Y1487220D01*
X616447Y1487339D01*
X616417Y1487443D01*
X616387Y1487532D01*
X616372Y1487606D01*
X616357Y1487651D01*
Y1487666D01*
X616298Y1487903D01*
X616239Y1488126D01*
X616194Y1488334D01*
X616149Y1488513D01*
X616105Y1488661D01*
X616060Y1488810D01*
X616031Y1488929D01*
X616001Y1489048D01*
X615971Y1489137D01*
X615941Y1489211D01*
X615912Y1489330D01*
X615897Y1489389D01*
X615882Y1489404D01*
X615793Y1489612D01*
X615689Y1489805D01*
X615600Y1489954D01*
X615510Y1490073D01*
X615421Y1490162D01*
X615362Y1490236D01*
X615317Y1490266D01*
X615302Y1490281D01*
X615169Y1490370D01*
X615035Y1490429D01*
X614901Y1490489D01*
X614767Y1490518D01*
X614664Y1490533D01*
X614574Y1490548D01*
X614515D01*
X614500D01*
X614337Y1490533D01*
X614188Y1490504D01*
X614039Y1490459D01*
X613921Y1490414D01*
X613816Y1490355D01*
X613742Y1490311D01*
X613683Y1490281D01*
X613668Y1490266D01*
X613534Y1490147D01*
X613415Y1490013D01*
X613311Y1489880D01*
X613222Y1489731D01*
X613148Y1489612D01*
X613103Y1489508D01*
X613074Y1489449D01*
X613059Y1489419D01*
X612984Y1489196D01*
X612940Y1488973D01*
X612895Y1488765D01*
X612880Y1488557D01*
X612866Y1488394D01*
X612851Y1488245D01*
Y1488126D01*
X612866Y1487829D01*
X612895Y1487547D01*
X612940Y1487279D01*
X612999Y1487071D01*
X613044Y1486878D01*
X613088Y1486744D01*
X613118Y1486655D01*
X613133Y1486640D01*
Y1486626D01*
X613252Y1486403D01*
X613371Y1486195D01*
X613504Y1486031D01*
X613623Y1485897D01*
X613727Y1485779D01*
X613816Y1485704D01*
X613876Y1485660D01*
X613891Y1485645D01*
X614084Y1485541D01*
X614277Y1485452D01*
X614485Y1485392D01*
X614678Y1485333D01*
X614857Y1485303D01*
X614990Y1485273D01*
X615079Y1485258D01*
X615094D01*
X615109D01*
X615005Y1484040D01*
X614649Y1484070D01*
X614322Y1484129D01*
X614010Y1484218D01*
X613757Y1484308D01*
X613534Y1484397D01*
X613445Y1484441D01*
X613371Y1484486D01*
X613311Y1484516D01*
X613267Y1484545D01*
X613252Y1484560D01*
X613237D01*
X612970Y1484768D01*
X612732Y1485006D01*
X612539Y1485229D01*
X612375Y1485466D01*
X612242Y1485660D01*
X612152Y1485823D01*
X612123Y1485883D01*
X612093Y1485927D01*
X612078Y1485957D01*
Y1485972D01*
X611959Y1486328D01*
X611870Y1486700D01*
X611796Y1487071D01*
X611751Y1487413D01*
X611736Y1487576D01*
X611721Y1487725D01*
Y1487859D01*
X611707Y1487963D01*
Y1488186D01*
X611721Y1488572D01*
X611766Y1488914D01*
X611825Y1489241D01*
X611900Y1489508D01*
X611959Y1489746D01*
X611989Y1489835D01*
X612019Y1489909D01*
X612048Y1489969D01*
X612063Y1490013D01*
X612078Y1490043D01*
Y1490058D01*
X612242Y1490355D01*
X612405Y1490623D01*
X612583Y1490845D01*
X612761Y1491024D01*
X612910Y1491172D01*
X613029Y1491261D01*
X613118Y1491336D01*
X613148Y1491351D01*
X613400Y1491499D01*
X613668Y1491603D01*
X613921Y1491692D01*
X614143Y1491737D01*
X614337Y1491767D01*
X614485Y1491796D01*
X614545D01*
X614589D01*
X614604D01*
X614619D01*
X614901Y1491781D01*
D02*
G37*
G36*
X616444Y1472051D02*
X615300D01*
Y1474918D01*
X613457D01*
X613323Y1474740D01*
X613190Y1474547D01*
X613071Y1474354D01*
X612967Y1474161D01*
X612878Y1473982D01*
X612818Y1473834D01*
X612788Y1473774D01*
X612774Y1473730D01*
X612759Y1473715D01*
Y1473700D01*
X612655Y1473403D01*
X612580Y1473106D01*
X612521Y1472823D01*
X612491Y1472585D01*
X612462Y1472377D01*
X612447Y1472214D01*
Y1472065D01*
X612462Y1471709D01*
X612506Y1471367D01*
X612580Y1471070D01*
X612655Y1470788D01*
X612729Y1470565D01*
X612774Y1470461D01*
X612803Y1470386D01*
X612818Y1470327D01*
X612848Y1470282D01*
X612863Y1470253D01*
Y1470238D01*
X613041Y1469941D01*
X613249Y1469673D01*
X613472Y1469450D01*
X613680Y1469272D01*
X613873Y1469138D01*
X614022Y1469034D01*
X614081Y1468990D01*
X614126Y1468960D01*
X614156Y1468945D01*
X614170D01*
X614527Y1468797D01*
X614884Y1468692D01*
X615255Y1468603D01*
X615612Y1468559D01*
X615760Y1468544D01*
X615909Y1468529D01*
X616043Y1468514D01*
X616147D01*
X616251Y1468499D01*
X616310D01*
X616355D01*
X616370D01*
X616756Y1468514D01*
X617127Y1468559D01*
X617454Y1468618D01*
X617751Y1468692D01*
X617989Y1468752D01*
X618093Y1468782D01*
X618167Y1468811D01*
X618242Y1468841D01*
X618286Y1468856D01*
X618316Y1468871D01*
X618331D01*
X618524Y1468960D01*
X618702Y1469049D01*
X618866Y1469153D01*
X619014Y1469257D01*
X619133Y1469346D01*
X619222Y1469421D01*
X619282Y1469465D01*
X619297Y1469480D01*
X619460Y1469644D01*
X619594Y1469807D01*
X619713Y1469985D01*
X619817Y1470149D01*
X619906Y1470297D01*
X619965Y1470416D01*
X619995Y1470490D01*
X620010Y1470520D01*
X620099Y1470773D01*
X620173Y1471025D01*
X620218Y1471293D01*
X620262Y1471531D01*
X620277Y1471739D01*
X620292Y1471902D01*
Y1472051D01*
X620277Y1472318D01*
X620248Y1472571D01*
X620203Y1472794D01*
X620159Y1472987D01*
X620114Y1473150D01*
X620069Y1473284D01*
X620040Y1473358D01*
X620025Y1473388D01*
X619921Y1473611D01*
X619817Y1473789D01*
X619698Y1473953D01*
X619594Y1474086D01*
X619490Y1474190D01*
X619416Y1474265D01*
X619356Y1474309D01*
X619341Y1474324D01*
X619163Y1474443D01*
X618970Y1474547D01*
X618777Y1474636D01*
X618598Y1474710D01*
X618420Y1474770D01*
X618286Y1474829D01*
X618197Y1474844D01*
X618182Y1474859D01*
X618167D01*
X618494Y1476033D01*
X618851Y1475929D01*
X619163Y1475810D01*
X619430Y1475691D01*
X619653Y1475572D01*
X619846Y1475453D01*
X619980Y1475364D01*
X620055Y1475305D01*
X620084Y1475290D01*
X620307Y1475097D01*
X620485Y1474874D01*
X620649Y1474651D01*
X620783Y1474428D01*
X620901Y1474235D01*
X620976Y1474086D01*
X621006Y1474027D01*
X621020Y1473982D01*
X621035Y1473953D01*
Y1473938D01*
X621154Y1473611D01*
X621243Y1473284D01*
X621303Y1472957D01*
X621347Y1472675D01*
X621377Y1472422D01*
Y1472303D01*
X621392Y1472214D01*
Y1472036D01*
X621362Y1471501D01*
X621303Y1471025D01*
X621199Y1470580D01*
X621139Y1470386D01*
X621095Y1470208D01*
X621035Y1470045D01*
X620976Y1469896D01*
X620931Y1469762D01*
X620872Y1469658D01*
X620842Y1469584D01*
X620812Y1469510D01*
X620783Y1469480D01*
Y1469465D01*
X620664Y1469257D01*
X620530Y1469079D01*
X620248Y1468722D01*
X619950Y1468440D01*
X619653Y1468187D01*
X619371Y1468009D01*
X619267Y1467935D01*
X619163Y1467860D01*
X619074Y1467816D01*
X619014Y1467786D01*
X618970Y1467756D01*
X618955D01*
X618494Y1467563D01*
X618019Y1467415D01*
X617573Y1467311D01*
X617157Y1467236D01*
X616979Y1467207D01*
X616815Y1467192D01*
X616667Y1467177D01*
X616533D01*
X616429Y1467162D01*
X616355D01*
X616310D01*
X616295D01*
X615775Y1467192D01*
X615285Y1467251D01*
X614839Y1467355D01*
X614631Y1467400D01*
X614453Y1467459D01*
X614274Y1467519D01*
X614126Y1467563D01*
X613992Y1467623D01*
X613888Y1467667D01*
X613799Y1467697D01*
X613739Y1467727D01*
X613695Y1467756D01*
X613680D01*
X613279Y1468009D01*
X612922Y1468291D01*
X612610Y1468574D01*
X612357Y1468871D01*
X612164Y1469123D01*
X612090Y1469227D01*
X612031Y1469331D01*
X611971Y1469406D01*
X611941Y1469480D01*
X611927Y1469510D01*
X611912Y1469525D01*
X611704Y1469970D01*
X611555Y1470431D01*
X611451Y1470862D01*
X611377Y1471278D01*
X611347Y1471456D01*
X611332Y1471620D01*
X611317Y1471768D01*
Y1471902D01*
X611302Y1472006D01*
Y1472140D01*
X611317Y1472526D01*
X611362Y1472912D01*
X611421Y1473254D01*
X611496Y1473566D01*
X611525Y1473700D01*
X611555Y1473834D01*
X611585Y1473938D01*
X611615Y1474027D01*
X611644Y1474101D01*
X611659Y1474161D01*
X611674Y1474190D01*
Y1474205D01*
X611838Y1474577D01*
X612016Y1474948D01*
X612209Y1475275D01*
X612387Y1475572D01*
X612566Y1475825D01*
X612625Y1475929D01*
X612699Y1476018D01*
X612744Y1476092D01*
X612788Y1476137D01*
X612803Y1476167D01*
X612818Y1476181D01*
X616444D01*
Y1472051D01*
D02*
G37*
G36*
X613651Y1393032D02*
X613919Y1392987D01*
X614156Y1392913D01*
X614350Y1392838D01*
X614528Y1392764D01*
X614647Y1392690D01*
X614721Y1392645D01*
X614751Y1392630D01*
X614959Y1392467D01*
X615152Y1392274D01*
X615330Y1392066D01*
X615479Y1391858D01*
X615583Y1391664D01*
X615672Y1391516D01*
X615702Y1391456D01*
X615732Y1391427D01*
X615746Y1391397D01*
Y1391382D01*
X615791Y1391263D01*
X615850Y1391115D01*
X615910Y1390966D01*
X615954Y1390788D01*
X616058Y1390431D01*
X616162Y1390075D01*
X616237Y1389748D01*
X616281Y1389599D01*
X616311Y1389465D01*
X616341Y1389361D01*
X616356Y1389287D01*
X616370Y1389228D01*
Y1389213D01*
X616445Y1388931D01*
X616504Y1388678D01*
X616564Y1388455D01*
X616638Y1388247D01*
X616697Y1388069D01*
X616742Y1387920D01*
X616801Y1387786D01*
X616861Y1387668D01*
X616905Y1387563D01*
X616935Y1387474D01*
X616980Y1387415D01*
X617009Y1387370D01*
X617054Y1387296D01*
X617069Y1387281D01*
X617202Y1387162D01*
X617336Y1387073D01*
X617485Y1386999D01*
X617619Y1386954D01*
X617737Y1386924D01*
X617841Y1386910D01*
X617901D01*
X617931D01*
X618153Y1386939D01*
X618347Y1386999D01*
X618525Y1387073D01*
X618674Y1387177D01*
X618807Y1387266D01*
X618896Y1387355D01*
X618956Y1387415D01*
X618971Y1387430D01*
X619045Y1387534D01*
X619119Y1387653D01*
X619223Y1387920D01*
X619298Y1388202D01*
X619342Y1388485D01*
X619387Y1388737D01*
Y1388856D01*
X619402Y1388945D01*
Y1389138D01*
X619387Y1389540D01*
X619327Y1389881D01*
X619253Y1390179D01*
X619164Y1390416D01*
X619075Y1390595D01*
X619001Y1390728D01*
X618941Y1390803D01*
X618926Y1390832D01*
X618733Y1391026D01*
X618510Y1391189D01*
X618287Y1391308D01*
X618064Y1391397D01*
X617856Y1391456D01*
X617693Y1391486D01*
X617633Y1391501D01*
X617589Y1391516D01*
X617559D01*
X617544D01*
X617633Y1392749D01*
X617946Y1392720D01*
X618228Y1392660D01*
X618495Y1392571D01*
X618718Y1392482D01*
X618896Y1392408D01*
X619045Y1392333D01*
X619134Y1392274D01*
X619164Y1392259D01*
X619402Y1392081D01*
X619610Y1391873D01*
X619788Y1391664D01*
X619937Y1391456D01*
X620041Y1391263D01*
X620130Y1391115D01*
X620159Y1391055D01*
X620174Y1391011D01*
X620189Y1390996D01*
Y1390981D01*
X620308Y1390669D01*
X620397Y1390342D01*
X620457Y1390015D01*
X620501Y1389718D01*
X620531Y1389465D01*
Y1389361D01*
X620546Y1389257D01*
Y1389079D01*
X620531Y1388722D01*
X620486Y1388381D01*
X620442Y1388083D01*
X620382Y1387816D01*
X620308Y1387608D01*
X620278Y1387519D01*
X620263Y1387445D01*
X620234Y1387370D01*
X620219Y1387326D01*
X620204Y1387311D01*
Y1387296D01*
X620070Y1387014D01*
X619907Y1386761D01*
X619743Y1386553D01*
X619595Y1386390D01*
X619446Y1386256D01*
X619327Y1386152D01*
X619253Y1386092D01*
X619238Y1386078D01*
X619223D01*
X618986Y1385944D01*
X618733Y1385840D01*
X618510Y1385766D01*
X618287Y1385721D01*
X618109Y1385691D01*
X617975Y1385661D01*
X617916D01*
X617871D01*
X617856D01*
X617841D01*
X617604Y1385676D01*
X617366Y1385721D01*
X617158Y1385766D01*
X616980Y1385840D01*
X616831Y1385899D01*
X616727Y1385944D01*
X616653Y1385988D01*
X616623Y1386003D01*
X616430Y1386152D01*
X616251Y1386315D01*
X616103Y1386479D01*
X615969Y1386657D01*
X615865Y1386806D01*
X615791Y1386924D01*
X615732Y1387014D01*
X615717Y1387029D01*
Y1387043D01*
X615657Y1387147D01*
X615613Y1387281D01*
X615509Y1387563D01*
X615405Y1387876D01*
X615301Y1388188D01*
X615226Y1388470D01*
X615197Y1388589D01*
X615167Y1388693D01*
X615137Y1388782D01*
X615122Y1388856D01*
X615107Y1388901D01*
Y1388916D01*
X615048Y1389153D01*
X614989Y1389376D01*
X614944Y1389584D01*
X614899Y1389763D01*
X614855Y1389911D01*
X614810Y1390060D01*
X614781Y1390179D01*
X614751Y1390298D01*
X614721Y1390387D01*
X614691Y1390461D01*
X614662Y1390580D01*
X614647Y1390639D01*
X614632Y1390654D01*
X614543Y1390862D01*
X614439Y1391055D01*
X614350Y1391204D01*
X614260Y1391323D01*
X614171Y1391412D01*
X614112Y1391486D01*
X614067Y1391516D01*
X614052Y1391531D01*
X613919Y1391620D01*
X613785Y1391679D01*
X613651Y1391739D01*
X613517Y1391768D01*
X613414Y1391783D01*
X613324Y1391798D01*
X613265D01*
X613250D01*
X613087Y1391783D01*
X612938Y1391754D01*
X612789Y1391709D01*
X612671Y1391664D01*
X612566Y1391605D01*
X612492Y1391561D01*
X612433Y1391531D01*
X612418Y1391516D01*
X612284Y1391397D01*
X612165Y1391263D01*
X612061Y1391130D01*
X611972Y1390981D01*
X611898Y1390862D01*
X611853Y1390758D01*
X611824Y1390699D01*
X611809Y1390669D01*
X611734Y1390446D01*
X611690Y1390223D01*
X611645Y1390015D01*
X611630Y1389807D01*
X611615Y1389644D01*
X611601Y1389495D01*
Y1389376D01*
X611615Y1389079D01*
X611645Y1388797D01*
X611690Y1388529D01*
X611749Y1388321D01*
X611794Y1388128D01*
X611838Y1387994D01*
X611868Y1387905D01*
X611883Y1387890D01*
Y1387876D01*
X612002Y1387653D01*
X612121Y1387445D01*
X612254Y1387281D01*
X612373Y1387147D01*
X612477Y1387029D01*
X612566Y1386954D01*
X612626Y1386910D01*
X612641Y1386895D01*
X612834Y1386791D01*
X613027Y1386702D01*
X613235Y1386642D01*
X613428Y1386583D01*
X613607Y1386553D01*
X613740Y1386523D01*
X613829Y1386508D01*
X613844D01*
X613859D01*
X613755Y1385290D01*
X613399Y1385320D01*
X613072Y1385379D01*
X612760Y1385468D01*
X612507Y1385558D01*
X612284Y1385647D01*
X612195Y1385691D01*
X612121Y1385736D01*
X612061Y1385766D01*
X612017Y1385795D01*
X612002Y1385810D01*
X611987D01*
X611720Y1386018D01*
X611482Y1386256D01*
X611289Y1386479D01*
X611125Y1386716D01*
X610992Y1386910D01*
X610902Y1387073D01*
X610873Y1387133D01*
X610843Y1387177D01*
X610828Y1387207D01*
Y1387222D01*
X610709Y1387578D01*
X610620Y1387950D01*
X610546Y1388321D01*
X610501Y1388663D01*
X610486Y1388826D01*
X610471Y1388975D01*
Y1389109D01*
X610457Y1389213D01*
Y1389436D01*
X610471Y1389822D01*
X610516Y1390164D01*
X610575Y1390491D01*
X610650Y1390758D01*
X610709Y1390996D01*
X610739Y1391085D01*
X610769Y1391159D01*
X610798Y1391219D01*
X610813Y1391263D01*
X610828Y1391293D01*
Y1391308D01*
X610992Y1391605D01*
X611155Y1391873D01*
X611333Y1392095D01*
X611511Y1392274D01*
X611660Y1392422D01*
X611779Y1392511D01*
X611868Y1392586D01*
X611898Y1392601D01*
X612150Y1392749D01*
X612418Y1392853D01*
X612671Y1392942D01*
X612893Y1392987D01*
X613087Y1393017D01*
X613235Y1393046D01*
X613295D01*
X613339D01*
X613354D01*
X613369D01*
X613651Y1393032D01*
D02*
G37*
G36*
X615598Y1372399D02*
X614454D01*
Y1375266D01*
X612611D01*
X612477Y1375088D01*
X612344Y1374895D01*
X612225Y1374702D01*
X612121Y1374509D01*
X612032Y1374330D01*
X611972Y1374182D01*
X611942Y1374122D01*
X611928Y1374078D01*
X611913Y1374063D01*
Y1374048D01*
X611809Y1373751D01*
X611734Y1373454D01*
X611675Y1373171D01*
X611645Y1372934D01*
X611615Y1372726D01*
X611601Y1372562D01*
Y1372413D01*
X611615Y1372057D01*
X611660Y1371715D01*
X611734Y1371418D01*
X611809Y1371136D01*
X611883Y1370913D01*
X611928Y1370809D01*
X611957Y1370734D01*
X611972Y1370675D01*
X612002Y1370630D01*
X612017Y1370601D01*
Y1370586D01*
X612195Y1370289D01*
X612403Y1370021D01*
X612626Y1369798D01*
X612834Y1369620D01*
X613027Y1369486D01*
X613176Y1369382D01*
X613235Y1369338D01*
X613280Y1369308D01*
X613310Y1369293D01*
X613324D01*
X613681Y1369144D01*
X614038Y1369041D01*
X614409Y1368951D01*
X614766Y1368907D01*
X614914Y1368892D01*
X615063Y1368877D01*
X615197Y1368862D01*
X615301D01*
X615405Y1368847D01*
X615464D01*
X615509D01*
X615523D01*
X615910Y1368862D01*
X616281Y1368907D01*
X616608Y1368966D01*
X616905Y1369041D01*
X617143Y1369100D01*
X617247Y1369130D01*
X617321Y1369159D01*
X617396Y1369189D01*
X617440Y1369204D01*
X617470Y1369219D01*
X617485D01*
X617678Y1369308D01*
X617856Y1369397D01*
X618020Y1369501D01*
X618168Y1369605D01*
X618287Y1369694D01*
X618376Y1369769D01*
X618436Y1369813D01*
X618451Y1369828D01*
X618614Y1369991D01*
X618748Y1370155D01*
X618867Y1370333D01*
X618971Y1370497D01*
X619060Y1370645D01*
X619119Y1370764D01*
X619149Y1370838D01*
X619164Y1370868D01*
X619253Y1371121D01*
X619327Y1371373D01*
X619372Y1371641D01*
X619417Y1371879D01*
X619431Y1372087D01*
X619446Y1372250D01*
Y1372399D01*
X619431Y1372666D01*
X619402Y1372919D01*
X619357Y1373142D01*
X619313Y1373335D01*
X619268Y1373498D01*
X619223Y1373632D01*
X619194Y1373706D01*
X619179Y1373736D01*
X619075Y1373959D01*
X618971Y1374137D01*
X618852Y1374301D01*
X618748Y1374434D01*
X618644Y1374538D01*
X618570Y1374613D01*
X618510Y1374657D01*
X618495Y1374672D01*
X618317Y1374791D01*
X618124Y1374895D01*
X617931Y1374984D01*
X617752Y1375058D01*
X617574Y1375118D01*
X617440Y1375177D01*
X617351Y1375192D01*
X617336Y1375207D01*
X617321D01*
X617648Y1376381D01*
X618005Y1376277D01*
X618317Y1376158D01*
X618584Y1376039D01*
X618807Y1375920D01*
X619001Y1375801D01*
X619134Y1375712D01*
X619208Y1375653D01*
X619238Y1375638D01*
X619461Y1375445D01*
X619639Y1375222D01*
X619803Y1374999D01*
X619937Y1374776D01*
X620056Y1374583D01*
X620130Y1374434D01*
X620159Y1374375D01*
X620174Y1374330D01*
X620189Y1374301D01*
Y1374286D01*
X620308Y1373959D01*
X620397Y1373632D01*
X620457Y1373305D01*
X620501Y1373023D01*
X620531Y1372770D01*
Y1372651D01*
X620546Y1372562D01*
Y1372384D01*
X620516Y1371849D01*
X620457Y1371373D01*
X620353Y1370928D01*
X620293Y1370734D01*
X620249Y1370556D01*
X620189Y1370393D01*
X620130Y1370244D01*
X620085Y1370110D01*
X620026Y1370006D01*
X619996Y1369932D01*
X619966Y1369858D01*
X619937Y1369828D01*
Y1369813D01*
X619818Y1369605D01*
X619684Y1369427D01*
X619402Y1369070D01*
X619104Y1368788D01*
X618807Y1368535D01*
X618525Y1368357D01*
X618421Y1368283D01*
X618317Y1368208D01*
X618228Y1368164D01*
X618168Y1368134D01*
X618124Y1368104D01*
X618109D01*
X617648Y1367911D01*
X617173Y1367763D01*
X616727Y1367659D01*
X616311Y1367584D01*
X616133Y1367555D01*
X615969Y1367540D01*
X615821Y1367525D01*
X615687D01*
X615583Y1367510D01*
X615509D01*
X615464D01*
X615449D01*
X614929Y1367540D01*
X614439Y1367599D01*
X613993Y1367703D01*
X613785Y1367748D01*
X613607Y1367807D01*
X613428Y1367867D01*
X613280Y1367911D01*
X613146Y1367971D01*
X613042Y1368015D01*
X612953Y1368045D01*
X612893Y1368075D01*
X612849Y1368104D01*
X612834D01*
X612433Y1368357D01*
X612076Y1368639D01*
X611764Y1368922D01*
X611511Y1369219D01*
X611318Y1369471D01*
X611244Y1369575D01*
X611185Y1369679D01*
X611125Y1369754D01*
X611096Y1369828D01*
X611081Y1369858D01*
X611066Y1369873D01*
X610858Y1370318D01*
X610709Y1370779D01*
X610605Y1371210D01*
X610531Y1371626D01*
X610501Y1371804D01*
X610486Y1371968D01*
X610471Y1372116D01*
Y1372250D01*
X610457Y1372354D01*
Y1372488D01*
X610471Y1372874D01*
X610516Y1373260D01*
X610575Y1373602D01*
X610650Y1373914D01*
X610679Y1374048D01*
X610709Y1374182D01*
X610739Y1374286D01*
X610769Y1374375D01*
X610798Y1374449D01*
X610813Y1374509D01*
X610828Y1374538D01*
Y1374553D01*
X610992Y1374925D01*
X611170Y1375296D01*
X611363Y1375623D01*
X611541Y1375920D01*
X611720Y1376173D01*
X611779Y1376277D01*
X611853Y1376366D01*
X611898Y1376440D01*
X611942Y1376485D01*
X611957Y1376515D01*
X611972Y1376529D01*
X615598D01*
Y1372399D01*
D02*
G37*
G36*
X581171Y1376370D02*
X581498Y1376311D01*
X581810Y1376222D01*
X582063Y1376133D01*
X582286Y1376043D01*
X582375Y1375999D01*
X582449Y1375954D01*
X582509Y1375925D01*
X582553Y1375895D01*
X582568Y1375880D01*
X582583D01*
X582850Y1375672D01*
X583088Y1375434D01*
X583281Y1375211D01*
X583445Y1374974D01*
X583578Y1374780D01*
X583668Y1374617D01*
X583697Y1374557D01*
X583727Y1374513D01*
X583742Y1374483D01*
Y1374468D01*
X583861Y1374112D01*
X583950Y1373740D01*
X584024Y1373369D01*
X584069Y1373027D01*
X584084Y1372864D01*
X584099Y1372715D01*
Y1372581D01*
X584113Y1372477D01*
Y1372254D01*
X584099Y1371868D01*
X584054Y1371526D01*
X583995Y1371199D01*
X583920Y1370932D01*
X583861Y1370694D01*
X583831Y1370605D01*
X583801Y1370531D01*
X583772Y1370471D01*
X583757Y1370427D01*
X583742Y1370397D01*
Y1370382D01*
X583578Y1370085D01*
X583415Y1369818D01*
X583237Y1369595D01*
X583058Y1369416D01*
X582910Y1369268D01*
X582791Y1369178D01*
X582702Y1369104D01*
X582672Y1369089D01*
X582420Y1368941D01*
X582152Y1368837D01*
X581899Y1368748D01*
X581677Y1368703D01*
X581483Y1368673D01*
X581335Y1368644D01*
X581275D01*
X581231D01*
X581216D01*
X581201D01*
X580919Y1368658D01*
X580651Y1368703D01*
X580414Y1368777D01*
X580220Y1368852D01*
X580042Y1368926D01*
X579923Y1369000D01*
X579849Y1369045D01*
X579819Y1369060D01*
X579611Y1369223D01*
X579418Y1369416D01*
X579240Y1369624D01*
X579091Y1369832D01*
X578987Y1370025D01*
X578898Y1370174D01*
X578868Y1370233D01*
X578839Y1370263D01*
X578824Y1370293D01*
Y1370308D01*
X578779Y1370427D01*
X578720Y1370575D01*
X578660Y1370724D01*
X578616Y1370902D01*
X578512Y1371259D01*
X578408Y1371615D01*
X578333Y1371942D01*
X578289Y1372091D01*
X578259Y1372225D01*
X578229Y1372329D01*
X578214Y1372403D01*
X578200Y1372462D01*
Y1372477D01*
X578125Y1372760D01*
X578066Y1373012D01*
X578006Y1373235D01*
X577932Y1373443D01*
X577873Y1373621D01*
X577828Y1373770D01*
X577769Y1373904D01*
X577709Y1374023D01*
X577665Y1374127D01*
X577635Y1374216D01*
X577590Y1374275D01*
X577561Y1374320D01*
X577516Y1374394D01*
X577501Y1374409D01*
X577368Y1374528D01*
X577234Y1374617D01*
X577085Y1374691D01*
X576951Y1374736D01*
X576833Y1374765D01*
X576729Y1374780D01*
X576669D01*
X576639D01*
X576417Y1374751D01*
X576223Y1374691D01*
X576045Y1374617D01*
X575896Y1374513D01*
X575763Y1374424D01*
X575673Y1374335D01*
X575614Y1374275D01*
X575599Y1374260D01*
X575525Y1374156D01*
X575451Y1374037D01*
X575347Y1373770D01*
X575272Y1373488D01*
X575228Y1373205D01*
X575183Y1372953D01*
Y1372834D01*
X575168Y1372745D01*
Y1372552D01*
X575183Y1372150D01*
X575243Y1371809D01*
X575317Y1371511D01*
X575406Y1371274D01*
X575495Y1371095D01*
X575569Y1370962D01*
X575629Y1370887D01*
X575644Y1370858D01*
X575837Y1370664D01*
X576060Y1370501D01*
X576283Y1370382D01*
X576506Y1370293D01*
X576714Y1370233D01*
X576877Y1370204D01*
X576936Y1370189D01*
X576981Y1370174D01*
X577011D01*
X577026D01*
X576936Y1368941D01*
X576624Y1368970D01*
X576342Y1369030D01*
X576075Y1369119D01*
X575852Y1369208D01*
X575673Y1369283D01*
X575525Y1369357D01*
X575436Y1369416D01*
X575406Y1369431D01*
X575168Y1369610D01*
X574960Y1369818D01*
X574782Y1370025D01*
X574633Y1370233D01*
X574529Y1370427D01*
X574440Y1370575D01*
X574411Y1370635D01*
X574396Y1370679D01*
X574381Y1370694D01*
Y1370709D01*
X574262Y1371021D01*
X574173Y1371348D01*
X574113Y1371675D01*
X574069Y1371972D01*
X574039Y1372225D01*
Y1372329D01*
X574024Y1372433D01*
Y1372611D01*
X574039Y1372968D01*
X574084Y1373309D01*
X574128Y1373607D01*
X574188Y1373874D01*
X574262Y1374082D01*
X574292Y1374171D01*
X574306Y1374245D01*
X574336Y1374320D01*
X574351Y1374364D01*
X574366Y1374379D01*
Y1374394D01*
X574500Y1374676D01*
X574663Y1374929D01*
X574827Y1375137D01*
X574975Y1375300D01*
X575124Y1375434D01*
X575243Y1375538D01*
X575317Y1375598D01*
X575332Y1375612D01*
X575347D01*
X575584Y1375746D01*
X575837Y1375850D01*
X576060Y1375925D01*
X576283Y1375969D01*
X576461Y1375999D01*
X576595Y1376028D01*
X576654D01*
X576699D01*
X576714D01*
X576729D01*
X576966Y1376014D01*
X577204Y1375969D01*
X577412Y1375925D01*
X577590Y1375850D01*
X577739Y1375791D01*
X577843Y1375746D01*
X577917Y1375702D01*
X577947Y1375687D01*
X578140Y1375538D01*
X578318Y1375375D01*
X578467Y1375211D01*
X578601Y1375033D01*
X578705Y1374884D01*
X578779Y1374765D01*
X578839Y1374676D01*
X578853Y1374662D01*
Y1374647D01*
X578913Y1374543D01*
X578957Y1374409D01*
X579061Y1374127D01*
X579165Y1373815D01*
X579269Y1373503D01*
X579344Y1373220D01*
X579373Y1373101D01*
X579403Y1372997D01*
X579433Y1372908D01*
X579448Y1372834D01*
X579463Y1372789D01*
Y1372774D01*
X579522Y1372537D01*
X579581Y1372314D01*
X579626Y1372106D01*
X579671Y1371927D01*
X579715Y1371779D01*
X579760Y1371630D01*
X579790Y1371511D01*
X579819Y1371393D01*
X579849Y1371303D01*
X579879Y1371229D01*
X579908Y1371110D01*
X579923Y1371051D01*
X579938Y1371036D01*
X580027Y1370828D01*
X580131Y1370635D01*
X580220Y1370486D01*
X580309Y1370367D01*
X580399Y1370278D01*
X580458Y1370204D01*
X580503Y1370174D01*
X580518Y1370159D01*
X580651Y1370070D01*
X580785Y1370011D01*
X580919Y1369951D01*
X581053Y1369922D01*
X581157Y1369907D01*
X581246Y1369892D01*
X581305D01*
X581320D01*
X581483Y1369907D01*
X581632Y1369936D01*
X581781Y1369981D01*
X581899Y1370025D01*
X582004Y1370085D01*
X582078Y1370130D01*
X582137Y1370159D01*
X582152Y1370174D01*
X582286Y1370293D01*
X582405Y1370427D01*
X582509Y1370560D01*
X582598Y1370709D01*
X582672Y1370828D01*
X582717Y1370932D01*
X582746Y1370991D01*
X582761Y1371021D01*
X582836Y1371244D01*
X582880Y1371467D01*
X582925Y1371675D01*
X582940Y1371883D01*
X582954Y1372046D01*
X582969Y1372195D01*
Y1372314D01*
X582954Y1372611D01*
X582925Y1372893D01*
X582880Y1373161D01*
X582821Y1373369D01*
X582776Y1373562D01*
X582732Y1373696D01*
X582702Y1373785D01*
X582687Y1373800D01*
Y1373815D01*
X582568Y1374037D01*
X582449Y1374245D01*
X582315Y1374409D01*
X582197Y1374543D01*
X582093Y1374662D01*
X582004Y1374736D01*
X581944Y1374780D01*
X581929Y1374795D01*
X581736Y1374899D01*
X581543Y1374988D01*
X581335Y1375048D01*
X581142Y1375107D01*
X580963Y1375137D01*
X580830Y1375167D01*
X580740Y1375182D01*
X580726D01*
X580711D01*
X580815Y1376400D01*
X581171Y1376370D01*
D02*
G37*
G36*
X579161Y1393642D02*
X579652Y1393583D01*
X580098Y1393479D01*
X580305Y1393434D01*
X580484Y1393375D01*
X580662Y1393315D01*
X580811Y1393271D01*
X580945Y1393211D01*
X581049Y1393167D01*
X581138Y1393137D01*
X581197Y1393107D01*
X581242Y1393078D01*
X581256D01*
X581658Y1392825D01*
X582014Y1392543D01*
X582326Y1392260D01*
X582579Y1391963D01*
X582772Y1391711D01*
X582846Y1391607D01*
X582906Y1391503D01*
X582965Y1391428D01*
X582995Y1391354D01*
X583010Y1391324D01*
X583025Y1391309D01*
X583233Y1390864D01*
X583381Y1390403D01*
X583485Y1389972D01*
X583560Y1389556D01*
X583589Y1389378D01*
X583604Y1389214D01*
X583619Y1389066D01*
Y1388932D01*
X583634Y1388828D01*
Y1388694D01*
X583619Y1388308D01*
X583574Y1387922D01*
X583515Y1387580D01*
X583441Y1387268D01*
X583411Y1387134D01*
X583381Y1387000D01*
X583352Y1386896D01*
X583322Y1386807D01*
X583292Y1386733D01*
X583277Y1386673D01*
X583262Y1386644D01*
Y1386629D01*
X583099Y1386257D01*
X582921Y1385886D01*
X582728Y1385559D01*
X582549Y1385262D01*
X582371Y1385009D01*
X582312Y1384905D01*
X582237Y1384816D01*
X582193Y1384742D01*
X582148Y1384697D01*
X582133Y1384668D01*
X582118Y1384653D01*
X578493D01*
Y1388783D01*
X579637D01*
Y1385916D01*
X581479D01*
X581613Y1386094D01*
X581747Y1386287D01*
X581866Y1386480D01*
X581970Y1386673D01*
X582059Y1386852D01*
X582118Y1387000D01*
X582148Y1387060D01*
X582163Y1387104D01*
X582178Y1387119D01*
Y1387134D01*
X582282Y1387431D01*
X582356Y1387728D01*
X582416Y1388011D01*
X582445Y1388248D01*
X582475Y1388457D01*
X582490Y1388620D01*
Y1388768D01*
X582475Y1389125D01*
X582430Y1389467D01*
X582356Y1389764D01*
X582282Y1390046D01*
X582207Y1390269D01*
X582163Y1390373D01*
X582133Y1390448D01*
X582118Y1390507D01*
X582089Y1390552D01*
X582074Y1390581D01*
Y1390596D01*
X581895Y1390893D01*
X581687Y1391161D01*
X581465Y1391384D01*
X581256Y1391562D01*
X581063Y1391696D01*
X580915Y1391800D01*
X580855Y1391844D01*
X580811Y1391874D01*
X580781Y1391889D01*
X580766D01*
X580410Y1392038D01*
X580053Y1392142D01*
X579682Y1392231D01*
X579325Y1392275D01*
X579176Y1392290D01*
X579028Y1392305D01*
X578894Y1392320D01*
X578790D01*
X578686Y1392335D01*
X578627D01*
X578582D01*
X578567D01*
X578181Y1392320D01*
X577809Y1392275D01*
X577482Y1392216D01*
X577185Y1392142D01*
X576947Y1392082D01*
X576843Y1392052D01*
X576769Y1392023D01*
X576695Y1391993D01*
X576650Y1391978D01*
X576620Y1391963D01*
X576606D01*
X576413Y1391874D01*
X576234Y1391785D01*
X576071Y1391681D01*
X575922Y1391577D01*
X575803Y1391488D01*
X575714Y1391413D01*
X575655Y1391369D01*
X575640Y1391354D01*
X575476Y1391191D01*
X575343Y1391027D01*
X575224Y1390849D01*
X575120Y1390685D01*
X575031Y1390537D01*
X574971Y1390418D01*
X574941Y1390344D01*
X574927Y1390314D01*
X574837Y1390061D01*
X574763Y1389809D01*
X574719Y1389541D01*
X574674Y1389303D01*
X574659Y1389095D01*
X574644Y1388932D01*
Y1388783D01*
X574659Y1388516D01*
X574689Y1388263D01*
X574733Y1388040D01*
X574778Y1387847D01*
X574823Y1387684D01*
X574867Y1387550D01*
X574897Y1387476D01*
X574912Y1387446D01*
X575016Y1387223D01*
X575120Y1387045D01*
X575239Y1386882D01*
X575343Y1386748D01*
X575447Y1386644D01*
X575521Y1386569D01*
X575580Y1386525D01*
X575595Y1386510D01*
X575774Y1386391D01*
X575967Y1386287D01*
X576160Y1386198D01*
X576338Y1386124D01*
X576516Y1386064D01*
X576650Y1386005D01*
X576739Y1385990D01*
X576754Y1385975D01*
X576769D01*
X576442Y1384801D01*
X576086Y1384905D01*
X575774Y1385024D01*
X575506Y1385143D01*
X575283Y1385262D01*
X575090Y1385381D01*
X574956Y1385470D01*
X574882Y1385529D01*
X574852Y1385544D01*
X574629Y1385737D01*
X574451Y1385960D01*
X574288Y1386183D01*
X574154Y1386406D01*
X574035Y1386599D01*
X573961Y1386748D01*
X573931Y1386807D01*
X573916Y1386852D01*
X573901Y1386882D01*
Y1386896D01*
X573782Y1387223D01*
X573693Y1387550D01*
X573634Y1387877D01*
X573589Y1388159D01*
X573560Y1388412D01*
Y1388531D01*
X573545Y1388620D01*
Y1388798D01*
X573574Y1389333D01*
X573634Y1389809D01*
X573738Y1390254D01*
X573797Y1390448D01*
X573842Y1390626D01*
X573901Y1390789D01*
X573961Y1390938D01*
X574005Y1391072D01*
X574065Y1391176D01*
X574095Y1391250D01*
X574124Y1391324D01*
X574154Y1391354D01*
Y1391369D01*
X574273Y1391577D01*
X574407Y1391755D01*
X574689Y1392112D01*
X574986Y1392394D01*
X575283Y1392647D01*
X575565Y1392825D01*
X575670Y1392899D01*
X575774Y1392974D01*
X575863Y1393018D01*
X575922Y1393048D01*
X575967Y1393078D01*
X575982D01*
X576442Y1393271D01*
X576918Y1393419D01*
X577364Y1393523D01*
X577780Y1393598D01*
X577958Y1393627D01*
X578121Y1393642D01*
X578270Y1393657D01*
X578404D01*
X578508Y1393672D01*
X578582D01*
X578627D01*
X578641D01*
X579161Y1393642D01*
D02*
G37*
D12*
X327371Y1406462D02*
X328204Y1405629D01*
Y1403963D01*
X327371Y1403130D01*
X324039D01*
X323206Y1403963D01*
Y1405629D01*
X324039Y1406462D01*
X326538Y1408961D02*
Y1410628D01*
X325705Y1411461D01*
X323206D01*
Y1408961D01*
X324039Y1408128D01*
X324872Y1408961D01*
Y1411461D01*
X321540Y1413127D02*
X326538D01*
Y1415626D01*
X325705Y1416459D01*
X324039D01*
X323206Y1415626D01*
Y1413127D01*
X325705Y1423123D02*
Y1426456D01*
Y1438119D02*
Y1441451D01*
Y1443117D02*
Y1446449D01*
X323206Y1448115D02*
X325705Y1450614D01*
X328204Y1448115D01*
X428040Y1520544D02*
Y1515546D01*
X425541D01*
X424708Y1516379D01*
Y1519711D01*
X425541Y1520544D01*
X428040D01*
X420542Y1515546D02*
X422209D01*
X423042Y1516379D01*
Y1518045D01*
X422209Y1518878D01*
X420542D01*
X419709Y1518045D01*
Y1517212D01*
X423042D01*
X418043Y1515546D02*
X415544D01*
X414711Y1516379D01*
X415544Y1517212D01*
X417210D01*
X418043Y1518045D01*
X417210Y1518878D01*
X414711D01*
X413045Y1515546D02*
X411379D01*
X412212D01*
Y1518878D01*
X413045D01*
X407214Y1513880D02*
X406380D01*
X405547Y1514713D01*
Y1518878D01*
X408046D01*
X408880Y1518045D01*
Y1516379D01*
X408046Y1515546D01*
X405547D01*
X403881D02*
Y1518878D01*
X401382D01*
X400549Y1518045D01*
Y1515546D01*
X396384D02*
X398050D01*
X398883Y1516379D01*
Y1518045D01*
X398050Y1518878D01*
X396384D01*
X395551Y1518045D01*
Y1517212D01*
X398883D01*
X390552Y1520544D02*
Y1515546D01*
X393051D01*
X393885Y1516379D01*
Y1518045D01*
X393051Y1518878D01*
X390552D01*
X388708Y1416545D02*
X389541Y1417378D01*
X391207D01*
X392040Y1416545D01*
Y1413213D01*
X391207Y1412380D01*
X389541D01*
X388708Y1413213D01*
X386209Y1412380D02*
X384543D01*
X383709Y1413213D01*
Y1414879D01*
X384543Y1415712D01*
X386209D01*
X387042Y1414879D01*
Y1413213D01*
X386209Y1412380D01*
X382043D02*
Y1415712D01*
X379544D01*
X378711Y1414879D01*
Y1412380D01*
X376212Y1416545D02*
Y1415712D01*
X377045D01*
X375379D01*
X376212D01*
Y1413213D01*
X375379Y1412380D01*
X372880Y1415712D02*
Y1412380D01*
Y1414046D01*
X372047Y1414879D01*
X371213Y1415712D01*
X370380D01*
X367048Y1412380D02*
X365382D01*
X364549Y1413213D01*
Y1414879D01*
X365382Y1415712D01*
X367048D01*
X367881Y1414879D01*
Y1413213D01*
X367048Y1412380D01*
X362883D02*
X361217D01*
X362050D01*
Y1417378D01*
X362883D01*
X358717Y1412380D02*
X357051D01*
X357884D01*
Y1417378D01*
X358717D01*
X352053Y1412380D02*
X353719D01*
X354552Y1413213D01*
Y1414879D01*
X353719Y1415712D01*
X352053D01*
X351220Y1414879D01*
Y1414046D01*
X354552D01*
X349554Y1415712D02*
Y1412380D01*
Y1414046D01*
X348721Y1414879D01*
X347888Y1415712D01*
X347055D01*
X398790Y1512045D02*
Y1507046D01*
X396291D01*
X395458Y1507879D01*
Y1508712D01*
Y1509545D01*
X396291Y1510378D01*
X398790D01*
X393792D02*
Y1507879D01*
X392959Y1507046D01*
X390459D01*
Y1506213D01*
X391292Y1505380D01*
X392126D01*
X390459Y1507046D02*
Y1510378D01*
X382374Y1402880D02*
X384040Y1404546D01*
Y1406212D01*
X382374Y1407878D01*
X379875Y1402880D02*
Y1407878D01*
X377375D01*
X376543Y1407045D01*
Y1405379D01*
X377375Y1404546D01*
X379875D01*
X378209D02*
X376543Y1402880D01*
X372377D02*
X374043D01*
X374876Y1403713D01*
Y1405379D01*
X374043Y1406212D01*
X372377D01*
X371544Y1405379D01*
Y1404546D01*
X374876D01*
X369878Y1406212D02*
X368212Y1402880D01*
X366546Y1406212D01*
X364880Y1402880D02*
Y1403713D01*
X364047D01*
Y1402880D01*
X364880D01*
X360714D02*
Y1406212D01*
X359048Y1407878D01*
X357382Y1406212D01*
Y1402880D01*
Y1405379D01*
X360714D01*
X355716Y1402880D02*
X354050Y1404546D01*
Y1406212D01*
X355716Y1407878D01*
X393958Y1427211D02*
X394791Y1428044D01*
X396457D01*
X397290Y1427211D01*
Y1426378D01*
X396457Y1425545D01*
X394791D01*
X393958Y1424712D01*
Y1423879D01*
X394791Y1423046D01*
X396457D01*
X397290Y1423879D01*
X392292Y1421380D02*
Y1426378D01*
X389793D01*
X388959Y1425545D01*
Y1423879D01*
X389793Y1423046D01*
X392292D01*
X384794D02*
X386460D01*
X387293Y1423879D01*
Y1425545D01*
X386460Y1426378D01*
X384794D01*
X383961Y1425545D01*
Y1424712D01*
X387293D01*
X379796Y1423046D02*
X381462D01*
X382295Y1423879D01*
Y1425545D01*
X381462Y1426378D01*
X379796D01*
X378963Y1425545D01*
Y1424712D01*
X382295D01*
X373964Y1428044D02*
Y1423046D01*
X376464D01*
X377297Y1423879D01*
Y1425545D01*
X376464Y1426378D01*
X373964D01*
X408290Y1502776D02*
Y1501943D01*
X406624Y1500277D01*
X404958Y1501943D01*
Y1502776D01*
X406624Y1500277D02*
Y1497778D01*
X402459Y1501110D02*
X400793D01*
X399959Y1500277D01*
Y1497778D01*
X402459D01*
X403292Y1498611D01*
X402459Y1499444D01*
X399959D01*
X398293Y1497778D02*
X395794D01*
X394961Y1498611D01*
X395794Y1499444D01*
X397460D01*
X398293Y1500277D01*
X397460Y1501110D01*
X394961D01*
X393295D02*
Y1498611D01*
X392462Y1497778D01*
X391629Y1498611D01*
X390796Y1497778D01*
X389963Y1498611D01*
Y1501110D01*
X387463D02*
X385797D01*
X384964Y1500277D01*
Y1497778D01*
X387463D01*
X388297Y1498611D01*
X387463Y1499444D01*
X384964D01*
X383298Y1497778D02*
Y1501110D01*
X380799D01*
X379966Y1500277D01*
Y1497778D01*
X377467Y1501943D02*
Y1501110D01*
X378300D01*
X376634D01*
X377467D01*
Y1498611D01*
X376634Y1497778D01*
X374134Y1502776D02*
Y1497778D01*
Y1500277D01*
X373301Y1501110D01*
X371635D01*
X370802Y1500277D01*
Y1497778D01*
X404958Y1493545D02*
X405791Y1494378D01*
X407457D01*
X408290Y1493545D01*
Y1490213D01*
X407457Y1489380D01*
X405791D01*
X404958Y1490213D01*
X403292Y1494378D02*
Y1489380D01*
Y1491879D01*
X402459Y1492712D01*
X400793D01*
X399959Y1491879D01*
Y1489380D01*
X397460Y1492712D02*
X395794D01*
X394961Y1491879D01*
Y1489380D01*
X397460D01*
X398293Y1490213D01*
X397460Y1491046D01*
X394961D01*
X393295Y1489380D02*
X391629D01*
X392462D01*
Y1494378D01*
X393295D01*
X388297Y1492712D02*
X386630D01*
X385797Y1491879D01*
Y1489380D01*
X388297D01*
X389130Y1490213D01*
X388297Y1491046D01*
X385797D01*
X384131Y1489380D02*
Y1492712D01*
X383298D01*
X382465Y1491879D01*
Y1489380D01*
Y1491879D01*
X381632Y1492712D01*
X380799Y1491879D01*
Y1489380D01*
X378300Y1492712D02*
X376634D01*
X375801Y1491879D01*
Y1489380D01*
X378300D01*
X379133Y1490213D01*
X378300Y1491046D01*
X375801D01*
X374134Y1489380D02*
X372468D01*
X373301D01*
Y1494378D01*
X374134D01*
X369136Y1492712D02*
X367470D01*
X366637Y1491879D01*
Y1489380D01*
X369136D01*
X369969Y1490213D01*
X369136Y1491046D01*
X366637D01*
X364971Y1489380D02*
X362472D01*
X361639Y1490213D01*
X362472Y1491046D01*
X364138D01*
X364971Y1491879D01*
X364138Y1492712D01*
X361639D01*
X357473Y1489380D02*
X359139D01*
X359972Y1490213D01*
Y1491879D01*
X359139Y1492712D01*
X357473D01*
X356640Y1491879D01*
Y1491046D01*
X359972D01*
X354141Y1493545D02*
Y1492712D01*
X354974D01*
X353308D01*
X354141D01*
Y1490213D01*
X353308Y1489380D01*
X349976Y1493545D02*
Y1492712D01*
X350809D01*
X349143D01*
X349976D01*
Y1490213D01*
X349143Y1489380D01*
X346643D02*
X344977D01*
X345810D01*
Y1492712D01*
X346643D01*
X399708Y1438628D02*
X403040D01*
Y1433630D01*
X399708D01*
X403040Y1436129D02*
X401374D01*
X398042Y1433630D02*
X396376D01*
X397209D01*
Y1438628D01*
X398042D01*
X391377Y1433630D02*
X393043D01*
X393876Y1434463D01*
Y1436129D01*
X393043Y1436962D01*
X391377D01*
X390544Y1436129D01*
Y1435296D01*
X393876D01*
X385546Y1436962D02*
X388045D01*
X388878Y1436129D01*
Y1434463D01*
X388045Y1433630D01*
X385546D01*
X383046Y1437795D02*
Y1436962D01*
X383880D01*
X382214D01*
X383046D01*
Y1434463D01*
X382214Y1433630D01*
X379714Y1436962D02*
Y1433630D01*
Y1435296D01*
X378881Y1436129D01*
X378048Y1436962D01*
X377215D01*
X373883Y1433630D02*
X372217D01*
X371384Y1434463D01*
Y1436129D01*
X372217Y1436962D01*
X373883D01*
X374716Y1436129D01*
Y1434463D01*
X373883Y1433630D01*
X369717D02*
Y1436962D01*
X367218D01*
X366385Y1436129D01*
Y1433630D01*
X364719D02*
X363053D01*
X363886D01*
Y1436962D01*
X364719D01*
X357222D02*
X359721D01*
X360554Y1436129D01*
Y1434463D01*
X359721Y1433630D01*
X357222D01*
D14*
X643994Y1322100D02*
X705830D01*
X643994Y1248638D02*
Y1322100D01*
Y1248638D02*
X704994D01*
X492550Y1249090D02*
X554386D01*
Y1322552D01*
X493386D02*
X554386D01*
X492530Y1450328D02*
X554366D01*
Y1523790D01*
X493366D02*
X554366D01*
X644840Y1515732D02*
X706676D01*
X644840Y1442270D02*
Y1515732D01*
Y1442270D02*
X705840D01*
X644756Y1416842D02*
X706592D01*
X644756Y1343380D02*
Y1416842D01*
Y1343380D02*
X705756D01*
X492550Y1343070D02*
X554386D01*
Y1416532D01*
X493386D02*
X554386D01*
D15*
X381923Y1261267D02*
X397925D01*
X360841D02*
X376589D01*
X360653Y1243995D02*
Y1261267D01*
X360841Y1243995D02*
X376335D01*
X382177D02*
X397925D01*
Y1261267D01*
X396879Y1266026D02*
Y1279234D01*
X385703D02*
X396879D01*
X385449Y1266026D02*
X396879D01*
X369701Y1279234D02*
X380877D01*
X369701Y1266026D02*
X380877D01*
X369701D02*
Y1279234D01*
X381889Y1291026D02*
Y1304234D01*
X370713D02*
X381889D01*
X370459Y1291026D02*
X381889D01*
X354711Y1304234D02*
X365887D01*
X354711Y1291026D02*
X365887D01*
X354711D02*
Y1304234D01*
X398554Y1363237D02*
X418873D01*
X398554Y1308627D02*
X418873D01*
Y1346727D02*
Y1363237D01*
X398554Y1346727D02*
Y1363237D01*
Y1308627D02*
Y1325137D01*
X418873Y1308627D02*
Y1325137D01*
X414879Y1367050D02*
Y1380258D01*
X403703D02*
X414879D01*
X403703Y1367050D02*
X414879D01*
X387701Y1380258D02*
X399131D01*
X387701Y1367050D02*
X398877D01*
X387701D02*
Y1380258D01*
X440686Y1322041D02*
X453894D01*
Y1333217D01*
X440686Y1322041D02*
Y1333471D01*
X453894Y1338043D02*
Y1349219D01*
X440686Y1338043D02*
Y1349219D01*
X453894D01*
X366701Y1329050D02*
Y1342258D01*
Y1329050D02*
X377877D01*
X366701Y1342258D02*
X378131D01*
X382703Y1329050D02*
X393879D01*
X382703Y1342258D02*
X393879D01*
Y1329050D02*
Y1342258D01*
X422686Y1334243D02*
X435894D01*
X422686Y1323067D02*
Y1334243D01*
X435894Y1323067D02*
Y1334243D01*
X422686Y1307065D02*
Y1318495D01*
X435894Y1307065D02*
Y1318241D01*
X422686Y1307065D02*
X435894D01*
X422686Y1367243D02*
X435894D01*
X422686Y1356067D02*
Y1367243D01*
X435894Y1356067D02*
Y1367243D01*
X422686Y1340065D02*
Y1351495D01*
X435894Y1340065D02*
Y1351241D01*
X422686Y1340065D02*
X435894D01*
X385701Y1291607D02*
Y1304815D01*
Y1291607D02*
X396877D01*
X385701Y1304815D02*
X397131D01*
X401703Y1291607D02*
X412879D01*
X401703Y1304815D02*
X412879D01*
Y1291607D02*
Y1304815D01*
X366701Y1311050D02*
Y1324258D01*
Y1311050D02*
X377877D01*
X366701Y1324258D02*
X378131D01*
X382703Y1311050D02*
X393879D01*
X382703Y1324258D02*
X393879D01*
Y1311050D02*
Y1324258D01*
X366701Y1347050D02*
Y1360258D01*
Y1347050D02*
X377877D01*
X366701Y1360258D02*
X378131D01*
X382703Y1347050D02*
X393879D01*
X382703Y1360258D02*
X393879D01*
Y1347050D02*
Y1360258D01*
X592566Y1445431D02*
X605774D01*
Y1456607D01*
X592566Y1445431D02*
Y1456607D01*
X605774Y1461179D02*
Y1472609D01*
X592566Y1461433D02*
Y1472609D01*
X605774D01*
X592586Y1336776D02*
X605794D01*
Y1347952D01*
X592586Y1336776D02*
Y1347952D01*
X605794Y1352524D02*
Y1363954D01*
X592586Y1352778D02*
Y1363954D01*
X605794D01*
X592593Y1242161D02*
X605801D01*
Y1253337D01*
X592593Y1242161D02*
Y1253337D01*
X605801Y1257909D02*
Y1269339D01*
X592593Y1258163D02*
Y1269339D01*
X605801D01*
M02*
