G04*
G04 #@! TF.GenerationSoftware,Altium Limited,Altium Designer,20.0.2 (26)*
G04*
G04 Layer_Color=128*
%FSLAX44Y44*%
%MOMM*%
G71*
G01*
G75*
D21*
X343290Y1453958D02*
D03*
D29*
X447290Y1342615D02*
D03*
Y1328645D02*
D03*
X429290Y1313669D02*
D03*
Y1327639D02*
D03*
Y1346669D02*
D03*
Y1360639D02*
D03*
X599170Y1466005D02*
D03*
Y1452035D02*
D03*
X599190Y1357350D02*
D03*
Y1343380D02*
D03*
X599197Y1262735D02*
D03*
Y1248765D02*
D03*
D30*
X376305Y1272630D02*
D03*
X390275D02*
D03*
X361315Y1297630D02*
D03*
X375285D02*
D03*
X394305Y1373654D02*
D03*
X408275D02*
D03*
X387275Y1335654D02*
D03*
X373305D02*
D03*
X406275Y1298211D02*
D03*
X392305D02*
D03*
X387275Y1317654D02*
D03*
X373305D02*
D03*
X387275Y1353654D02*
D03*
X373305D02*
D03*
D78*
X389289Y1252631D02*
D03*
X369289D02*
D03*
D79*
X408713Y1318788D02*
D03*
Y1353078D02*
D03*
D80*
X624994Y1308468D02*
D03*
Y1262468D02*
D03*
X573386Y1262722D02*
D03*
Y1308722D02*
D03*
X573366Y1463960D02*
D03*
Y1509960D02*
D03*
X625840Y1502100D02*
D03*
Y1456100D02*
D03*
X625756Y1403210D02*
D03*
Y1357210D02*
D03*
X573386Y1356702D02*
D03*
Y1402702D02*
D03*
D81*
X694948Y1285468D02*
D03*
X503432Y1285722D02*
D03*
X503412Y1486960D02*
D03*
X695794Y1479100D02*
D03*
X695710Y1380210D02*
D03*
X503432Y1379702D02*
D03*
M02*
