G04*
G04 #@! TF.GenerationSoftware,Altium Limited,Altium Designer,20.0.2 (26)*
G04*
G04 Layer_Physical_Order=1*
G04 Layer_Color=255*
%FSLAX44Y44*%
%MOMM*%
G71*
G01*
G75*
G36*
X739290Y1230630D02*
X320290D01*
Y1535630D01*
X739290D01*
Y1230630D01*
D02*
G37*
%LPC*%
G36*
X664270Y1529776D02*
X663378Y1529599D01*
X661546Y1528374D01*
X660804Y1527263D01*
X659276D01*
X658534Y1528374D01*
X656702Y1529599D01*
X655810Y1529776D01*
Y1524380D01*
Y1518984D01*
X656702Y1519162D01*
X658534Y1520386D01*
X659276Y1521497D01*
X660804D01*
X661546Y1520386D01*
X663378Y1519162D01*
X664270Y1518984D01*
Y1524380D01*
Y1529776D01*
D02*
G37*
G36*
X676020Y1530026D02*
X675128Y1529849D01*
X673296Y1528624D01*
X672072Y1526792D01*
X672038Y1526621D01*
X670903Y1526551D01*
X670734Y1526578D01*
X669534Y1528374D01*
X667702Y1529599D01*
X666810Y1529776D01*
Y1524380D01*
Y1518984D01*
X667702Y1519162D01*
X669534Y1520386D01*
X670759Y1522218D01*
X670792Y1522389D01*
X671927Y1522459D01*
X672096Y1522432D01*
X673296Y1520636D01*
X675128Y1519411D01*
X676020Y1519234D01*
Y1524630D01*
Y1530026D01*
D02*
G37*
G36*
X678560D02*
Y1525900D01*
X682686D01*
X682509Y1526792D01*
X681284Y1528624D01*
X679452Y1529849D01*
X678560Y1530026D01*
D02*
G37*
G36*
X653270Y1529776D02*
X652378Y1529599D01*
X650546Y1528374D01*
X649322Y1526542D01*
X649144Y1525650D01*
X653270D01*
Y1529776D01*
D02*
G37*
G36*
X548560Y1526059D02*
Y1520900D01*
X553719D01*
X553662Y1521337D01*
X553003Y1522928D01*
X551954Y1524294D01*
X550588Y1525343D01*
X548997Y1526002D01*
X548560Y1526059D01*
D02*
G37*
G36*
X546020D02*
X545583Y1526002D01*
X543992Y1525343D01*
X542626Y1524294D01*
X541577Y1522928D01*
X540918Y1521337D01*
X540861Y1520900D01*
X546020D01*
Y1526059D01*
D02*
G37*
G36*
X682686Y1523360D02*
X678560D01*
Y1519234D01*
X679452Y1519411D01*
X681284Y1520636D01*
X682509Y1522468D01*
X682686Y1523360D01*
D02*
G37*
G36*
X653270Y1523110D02*
X649144D01*
X649322Y1522218D01*
X650546Y1520386D01*
X652378Y1519162D01*
X653270Y1518984D01*
Y1523110D01*
D02*
G37*
G36*
X428020Y1503026D02*
X427128Y1502849D01*
X425296Y1501624D01*
X424072Y1499792D01*
X423894Y1498900D01*
X428020D01*
Y1503026D01*
D02*
G37*
G36*
Y1496360D02*
X423894D01*
X424072Y1495468D01*
X425296Y1493636D01*
X427128Y1492411D01*
X428020Y1492234D01*
Y1496360D01*
D02*
G37*
G36*
X381020Y1485026D02*
X380128Y1484849D01*
X378296Y1483624D01*
X377284D01*
X375452Y1484849D01*
X374560Y1485026D01*
Y1479630D01*
Y1474234D01*
X375452Y1474411D01*
X377284Y1475636D01*
X378296D01*
X380128Y1474411D01*
X381020Y1474234D01*
Y1479630D01*
Y1485026D01*
D02*
G37*
G36*
X372020D02*
X371128Y1484849D01*
X369296Y1483624D01*
X368284D01*
X366452Y1484849D01*
X365560Y1485026D01*
Y1479630D01*
Y1474234D01*
X366452Y1474411D01*
X368284Y1475636D01*
X369296D01*
X371128Y1474411D01*
X372020Y1474234D01*
Y1479630D01*
Y1485026D01*
D02*
G37*
G36*
X383560D02*
Y1480900D01*
X387686D01*
X387509Y1481792D01*
X386284Y1483624D01*
X384452Y1484849D01*
X383560Y1485026D01*
D02*
G37*
G36*
X363020D02*
X362128Y1484849D01*
X360296Y1483624D01*
X359071Y1481792D01*
X358894Y1480900D01*
X363020D01*
Y1485026D01*
D02*
G37*
G36*
X387686Y1478360D02*
X383560D01*
Y1474234D01*
X384452Y1474411D01*
X386284Y1475636D01*
X387509Y1477468D01*
X387686Y1478360D01*
D02*
G37*
G36*
X363020D02*
X358894D01*
X359071Y1477468D01*
X360296Y1475636D01*
X362128Y1474411D01*
X363020Y1474234D01*
Y1478360D01*
D02*
G37*
G36*
X385020Y1472026D02*
X384128Y1471849D01*
X382296Y1470624D01*
X381284D01*
X379452Y1471849D01*
X378560Y1472026D01*
Y1466630D01*
Y1461234D01*
X379452Y1461411D01*
X381284Y1462636D01*
X382296D01*
X384128Y1461411D01*
X385020Y1461234D01*
Y1466630D01*
Y1472026D01*
D02*
G37*
G36*
X387560D02*
Y1467900D01*
X391686D01*
X391509Y1468792D01*
X390284Y1470624D01*
X388452Y1471849D01*
X387560Y1472026D01*
D02*
G37*
G36*
X376020D02*
X375128Y1471849D01*
X373296Y1470624D01*
X372071Y1468792D01*
X371894Y1467900D01*
X376020D01*
Y1472026D01*
D02*
G37*
G36*
X550560Y1465006D02*
Y1461900D01*
X553666D01*
X553567Y1462401D01*
X552563Y1463903D01*
X551061Y1464907D01*
X550560Y1465006D01*
D02*
G37*
G36*
X548020D02*
X547519Y1464907D01*
X546017Y1463903D01*
X545013Y1462401D01*
X544914Y1461900D01*
X548020D01*
Y1465006D01*
D02*
G37*
G36*
X376020Y1465360D02*
X371894D01*
X372071Y1464468D01*
X373296Y1462636D01*
X375128Y1461411D01*
X376020Y1461234D01*
Y1465360D01*
D02*
G37*
G36*
X396560Y1465026D02*
Y1460900D01*
X400686D01*
X400509Y1461792D01*
X399284Y1463624D01*
X397452Y1464849D01*
X396560Y1465026D01*
D02*
G37*
G36*
X391788Y1465360D02*
X387560D01*
Y1461234D01*
X388452Y1461411D01*
X388739Y1461604D01*
X389792Y1460900D01*
X394020D01*
Y1465026D01*
X393128Y1464849D01*
X392841Y1464656D01*
X391788Y1465360D01*
D02*
G37*
G36*
X553666Y1459360D02*
X550560D01*
Y1456254D01*
X551061Y1456353D01*
X552563Y1457357D01*
X553567Y1458859D01*
X553666Y1459360D01*
D02*
G37*
G36*
X548020D02*
X544914D01*
X545013Y1458859D01*
X546017Y1457357D01*
X547519Y1456353D01*
X548020Y1456254D01*
Y1459360D01*
D02*
G37*
G36*
X400686Y1458360D02*
X396560D01*
Y1454234D01*
X397452Y1454411D01*
X399284Y1455636D01*
X400509Y1457468D01*
X400686Y1458360D01*
D02*
G37*
G36*
X394020D02*
X389894D01*
X390071Y1457468D01*
X391296Y1455636D01*
X393128Y1454411D01*
X394020Y1454234D01*
Y1458360D01*
D02*
G37*
G36*
X619810Y1447276D02*
Y1443150D01*
X623936D01*
X623759Y1444042D01*
X622534Y1445874D01*
X620702Y1447099D01*
X619810Y1447276D01*
D02*
G37*
G36*
X617270D02*
X616378Y1447099D01*
X614546Y1445874D01*
X613321Y1444042D01*
X613144Y1443150D01*
X617270D01*
Y1447276D01*
D02*
G37*
G36*
X584020Y1447059D02*
X583583Y1447002D01*
X581992Y1446343D01*
X580626Y1445294D01*
X579577Y1443928D01*
X578918Y1442337D01*
X577662D01*
X577003Y1443928D01*
X575954Y1445294D01*
X574588Y1446343D01*
X572997Y1447002D01*
X572560Y1447059D01*
Y1440630D01*
Y1434201D01*
X572997Y1434258D01*
X574588Y1434917D01*
X575954Y1435966D01*
X577003Y1437332D01*
X577662Y1438923D01*
X578918D01*
X579577Y1437332D01*
X580626Y1435966D01*
X581992Y1434917D01*
X583583Y1434258D01*
X584020Y1434201D01*
Y1440630D01*
Y1447059D01*
D02*
G37*
G36*
X586560D02*
Y1441900D01*
X591719D01*
X591662Y1442337D01*
X591003Y1443928D01*
X589954Y1445294D01*
X588588Y1446343D01*
X586997Y1447002D01*
X586560Y1447059D01*
D02*
G37*
G36*
X570020D02*
X569583Y1447002D01*
X567992Y1446343D01*
X566626Y1445294D01*
X565577Y1443928D01*
X564918Y1442337D01*
X564861Y1441900D01*
X570020D01*
Y1447059D01*
D02*
G37*
G36*
X369719Y1444360D02*
X364560D01*
Y1439201D01*
X364997Y1439258D01*
X366588Y1439917D01*
X367954Y1440966D01*
X369003Y1442332D01*
X369662Y1443923D01*
X369719Y1444360D01*
D02*
G37*
G36*
X623936Y1440610D02*
X619810D01*
Y1436484D01*
X620702Y1436661D01*
X622534Y1437886D01*
X623759Y1439718D01*
X623936Y1440610D01*
D02*
G37*
G36*
X617270D02*
X613144D01*
X613321Y1439718D01*
X614546Y1437886D01*
X616378Y1436661D01*
X617270Y1436484D01*
Y1440610D01*
D02*
G37*
G36*
X591719Y1439360D02*
X586560D01*
Y1434201D01*
X586997Y1434258D01*
X588588Y1434917D01*
X589954Y1435966D01*
X591003Y1437332D01*
X591662Y1438923D01*
X591719Y1439360D01*
D02*
G37*
G36*
X570020D02*
X564861D01*
X564918Y1438923D01*
X565577Y1437332D01*
X566626Y1435966D01*
X567992Y1434917D01*
X569583Y1434258D01*
X570020Y1434201D01*
Y1439360D01*
D02*
G37*
G36*
X445027Y1531551D02*
X414318D01*
X412349Y1531292D01*
X412213Y1531235D01*
X344290D01*
X342322Y1530976D01*
X340488Y1530216D01*
X338912Y1529008D01*
X337704Y1527433D01*
X336944Y1525598D01*
X336685Y1523630D01*
Y1511630D01*
X336944Y1509662D01*
X337704Y1507827D01*
X338912Y1506252D01*
X340488Y1505044D01*
X342322Y1504284D01*
X344290Y1504025D01*
X345290D01*
X347258Y1504284D01*
X349047Y1505025D01*
X389750D01*
Y1503378D01*
X394124D01*
X395488Y1502332D01*
X397322Y1501572D01*
X399290Y1501313D01*
X416029D01*
X417997Y1501572D01*
X419832Y1502332D01*
X421407Y1503540D01*
X422842Y1504976D01*
X426057D01*
Y1509121D01*
X426418Y1509992D01*
X426677Y1511961D01*
Y1514394D01*
X428624Y1516340D01*
X437685D01*
Y1513911D01*
X437944Y1511942D01*
X438532Y1510523D01*
X438474Y1510224D01*
X438069Y1509449D01*
X437813Y1509184D01*
X436128Y1508849D01*
X434296Y1507624D01*
X433071Y1505792D01*
X432641Y1503630D01*
X432679Y1503439D01*
X431623Y1502734D01*
X431452Y1502849D01*
X430560Y1503026D01*
Y1497630D01*
Y1492234D01*
X431452Y1492411D01*
X431548Y1492476D01*
X432357Y1491489D01*
X427332Y1486464D01*
X426063Y1486960D01*
Y1486960D01*
X421917D01*
X421046Y1487321D01*
X419077Y1487580D01*
X417109Y1487321D01*
X416238Y1486960D01*
X412093D01*
Y1486523D01*
X399290D01*
X397322Y1486264D01*
X395488Y1485504D01*
X394124Y1484458D01*
X389750D01*
Y1473378D01*
X394124D01*
X395488Y1472332D01*
X397322Y1471572D01*
X399290Y1471313D01*
X411449D01*
Y1464740D01*
X406274D01*
Y1452455D01*
X406208Y1451960D01*
Y1443024D01*
X406468Y1441056D01*
X407227Y1439221D01*
X408436Y1437646D01*
X408685Y1437397D01*
Y1437033D01*
X408944Y1435065D01*
X409704Y1433230D01*
X410646Y1432003D01*
X410460Y1431362D01*
X410195Y1430858D01*
X410087Y1430738D01*
X408128Y1430349D01*
X406545Y1429291D01*
X405275Y1429708D01*
Y1440600D01*
X391305D01*
Y1438259D01*
X383970D01*
X383970Y1438259D01*
X382198Y1437907D01*
X380697Y1436903D01*
X378931Y1435137D01*
X378857Y1435194D01*
X376416Y1436205D01*
X373797Y1436550D01*
X358783D01*
X356164Y1436205D01*
X355965Y1436122D01*
X354834Y1437029D01*
X354662Y1438337D01*
X354003Y1439928D01*
X353834Y1440148D01*
X354460Y1441418D01*
X358278D01*
X358626Y1440966D01*
X359992Y1439917D01*
X361583Y1439258D01*
X362020Y1439201D01*
Y1445630D01*
X363290D01*
Y1446900D01*
X369719D01*
X369662Y1447337D01*
X369003Y1448928D01*
X367954Y1450294D01*
X366822Y1451164D01*
X366707Y1451510D01*
X366678Y1451978D01*
X366772Y1452641D01*
X367996Y1453581D01*
X368668Y1454252D01*
X369876Y1455827D01*
X370636Y1457662D01*
X370895Y1459630D01*
X370636Y1461598D01*
X369876Y1463432D01*
X368668Y1465008D01*
X356668Y1477008D01*
X355093Y1478216D01*
X353258Y1478976D01*
X351290Y1479235D01*
X337290D01*
X335322Y1478976D01*
X333488Y1478216D01*
X331912Y1477008D01*
X330704Y1475432D01*
X329944Y1473598D01*
X329685Y1471630D01*
Y1466499D01*
X328250D01*
Y1441418D01*
X329120D01*
X329746Y1440148D01*
X329577Y1439928D01*
X328918Y1438337D01*
X328861Y1437900D01*
X335290D01*
Y1436630D01*
X336560D01*
Y1430201D01*
X336997Y1430258D01*
X338588Y1430917D01*
X339954Y1431966D01*
X341003Y1433332D01*
X341103Y1433573D01*
X342477D01*
X342577Y1433332D01*
X343626Y1431966D01*
X344992Y1430917D01*
X346583Y1430258D01*
X348054Y1430065D01*
X348625Y1429458D01*
X348981Y1428844D01*
X348663Y1426430D01*
X349008Y1423811D01*
X350019Y1421370D01*
X351627Y1419274D01*
X353723Y1417666D01*
X356164Y1416655D01*
X358783Y1416310D01*
X373797D01*
X376416Y1416655D01*
X378857Y1417666D01*
X380953Y1419274D01*
X382561Y1421370D01*
X383572Y1423811D01*
X383917Y1426430D01*
X383847Y1426961D01*
X385887Y1429001D01*
X391305D01*
Y1412660D01*
X393661D01*
Y1409610D01*
X391305D01*
Y1395640D01*
X405275D01*
Y1403064D01*
X407830Y1405618D01*
X409819D01*
X410128Y1405411D01*
X411158Y1405207D01*
X411742Y1403795D01*
X411071Y1402792D01*
X410642Y1400630D01*
X411071Y1398468D01*
X412296Y1396636D01*
X414128Y1395411D01*
X416290Y1394982D01*
X418452Y1395411D01*
X420284Y1396636D01*
X421509Y1398468D01*
X421716Y1399509D01*
X424514Y1402307D01*
X425684Y1401682D01*
X425502Y1400764D01*
X425931Y1398602D01*
X427156Y1396770D01*
Y1396758D01*
X425931Y1394926D01*
X425502Y1392764D01*
X425931Y1390603D01*
X427156Y1388770D01*
Y1388758D01*
X425931Y1386926D01*
X425502Y1384764D01*
X425931Y1382603D01*
X426191Y1382213D01*
X425276Y1381298D01*
X424452Y1381848D01*
X422290Y1382278D01*
X420128Y1381848D01*
X418483Y1380749D01*
X410290D01*
X408714Y1380436D01*
X407377Y1379543D01*
X377377Y1349543D01*
X376484Y1348206D01*
X376171Y1346630D01*
Y1335785D01*
X375712Y1335478D01*
X374308Y1333378D01*
X373816Y1330900D01*
Y1328360D01*
X374308Y1325882D01*
X375712Y1323782D01*
X377812Y1322378D01*
X380290Y1321886D01*
X382768Y1322378D01*
X384868Y1323782D01*
X385712D01*
X387812Y1322378D01*
X390290Y1321886D01*
X392768Y1322378D01*
X394868Y1323782D01*
X395712D01*
X397812Y1322378D01*
X400290Y1321886D01*
X402768Y1322378D01*
X404868Y1323782D01*
X405712D01*
X407812Y1322378D01*
X410290Y1321886D01*
X412768Y1322378D01*
X414868Y1323782D01*
X416272Y1325882D01*
X416764Y1328360D01*
Y1330900D01*
X416474Y1332360D01*
X425759Y1341645D01*
X445001D01*
Y1341264D01*
X445431Y1339102D01*
X446656Y1337270D01*
X448488Y1336046D01*
X450650Y1335616D01*
X452812Y1336046D01*
X454644Y1337270D01*
X454656D01*
X456488Y1336046D01*
X458650Y1335616D01*
X460812Y1336046D01*
X462644Y1337270D01*
X462656D01*
X464488Y1336046D01*
X465425Y1335859D01*
X466003Y1334449D01*
X465642Y1332630D01*
X466072Y1330468D01*
X467296Y1328636D01*
X469128Y1327411D01*
X469342Y1327369D01*
X485320Y1311391D01*
Y1306645D01*
X501136D01*
Y1303171D01*
X494249D01*
Y1285091D01*
X514329D01*
Y1291248D01*
X515599Y1291634D01*
X515877Y1291217D01*
X523377Y1283717D01*
X524714Y1282824D01*
X526290Y1282511D01*
X537584D01*
X545920Y1274175D01*
X545381Y1272918D01*
X543992Y1272343D01*
X542626Y1271294D01*
X541577Y1269928D01*
X540918Y1268337D01*
X540861Y1267900D01*
X553719D01*
X553662Y1268337D01*
X553217Y1269410D01*
X553910Y1270680D01*
X575695D01*
Y1267814D01*
X589665D01*
X590684Y1267207D01*
Y1262788D01*
X599729D01*
X600224Y1262723D01*
X600718Y1262788D01*
X609763D01*
Y1277868D01*
X607947D01*
Y1296127D01*
X608065Y1297025D01*
X607806Y1298993D01*
X607445Y1299864D01*
Y1304010D01*
Y1317980D01*
X604579D01*
Y1333710D01*
X604266Y1335286D01*
X603373Y1336623D01*
X592703Y1347293D01*
X591366Y1348186D01*
X589790Y1348499D01*
X554696D01*
X550588Y1352608D01*
X551043Y1353949D01*
X551497Y1354008D01*
X553088Y1354667D01*
X554454Y1355716D01*
X555503Y1357082D01*
X556162Y1358673D01*
X556219Y1359110D01*
X549790D01*
Y1360380D01*
X548520D01*
Y1366809D01*
X548083Y1366752D01*
X546492Y1366093D01*
X545126Y1365044D01*
X544077Y1363678D01*
X543418Y1362087D01*
X543358Y1361633D01*
X542018Y1361178D01*
X532093Y1371103D01*
X531685Y1371375D01*
X532071Y1372645D01*
X573624D01*
X575695Y1370574D01*
Y1362430D01*
X589665D01*
Y1376400D01*
X587819D01*
Y1384020D01*
X589665D01*
Y1397990D01*
Y1407525D01*
X590838Y1408011D01*
X592715Y1406134D01*
Y1393844D01*
X592355Y1392973D01*
X592095Y1391005D01*
X592355Y1389036D01*
X592640Y1388347D01*
Y1381418D01*
X591250D01*
Y1366338D01*
X600296D01*
X600790Y1366273D01*
X601284Y1366338D01*
X610330D01*
Y1381418D01*
X607850D01*
Y1390460D01*
X607591Y1392428D01*
X607146Y1393503D01*
X606832Y1394262D01*
X606685Y1394453D01*
Y1397990D01*
Y1411960D01*
X598541D01*
X594127Y1416373D01*
X592791Y1417266D01*
X591215Y1417580D01*
X585689D01*
X585094Y1418850D01*
X586009Y1420218D01*
X586438Y1422380D01*
X586009Y1424542D01*
X584784Y1426374D01*
X582952Y1427599D01*
X581032Y1427980D01*
X580020Y1428657D01*
X578249Y1429009D01*
X578249Y1429009D01*
X574760D01*
Y1431365D01*
X546820D01*
Y1429793D01*
X545550Y1429114D01*
X544452Y1429849D01*
X542290Y1430278D01*
X540128Y1429849D01*
X538296Y1428624D01*
X537929Y1428075D01*
X536659Y1428461D01*
Y1437297D01*
X537204Y1437716D01*
X538253Y1439082D01*
X538912Y1440673D01*
X539136Y1442380D01*
X538912Y1444087D01*
X538253Y1445678D01*
X537204Y1447044D01*
X535838Y1448093D01*
X534247Y1448752D01*
X532540Y1448976D01*
X530833Y1448752D01*
X530338Y1448547D01*
X529618Y1449623D01*
X556996Y1477001D01*
X565120D01*
X566697Y1477315D01*
X568033Y1478208D01*
X576348Y1486523D01*
X577521Y1486037D01*
Y1483150D01*
X575675D01*
Y1469180D01*
X589645D01*
Y1469180D01*
X590750Y1468781D01*
Y1460588D01*
X599796D01*
X600290Y1460523D01*
X600784Y1460588D01*
X609830D01*
Y1475668D01*
X607590D01*
Y1497450D01*
X607331Y1499418D01*
X606665Y1501025D01*
Y1504740D01*
Y1517637D01*
X606666Y1517938D01*
X607414Y1518192D01*
D01*
X607414D01*
X608474Y1517668D01*
X608476Y1517666D01*
X609842Y1516617D01*
X611433Y1515958D01*
X613140Y1515734D01*
X614847Y1515958D01*
X616438Y1516617D01*
X617804Y1517666D01*
X618788Y1518947D01*
X619469Y1519037D01*
X619510D01*
X620192Y1518947D01*
X621176Y1517666D01*
X622443Y1516693D01*
X622750Y1516098D01*
X622982Y1515517D01*
X622983Y1515060D01*
Y1495326D01*
X632547D01*
X634806Y1493068D01*
X634320Y1491895D01*
X625320D01*
Y1477925D01*
X625891D01*
Y1469299D01*
X622760Y1466168D01*
X612750D01*
Y1451088D01*
X631830D01*
Y1457099D01*
X632933Y1458201D01*
X639305D01*
Y1452729D01*
X633989Y1447413D01*
X632876Y1446559D01*
X631827Y1445193D01*
X631168Y1443602D01*
X630944Y1441895D01*
X631168Y1440187D01*
X631827Y1438596D01*
X632876Y1437230D01*
X634242Y1436182D01*
X635833Y1435523D01*
X637540Y1435298D01*
X639247Y1435523D01*
X640838Y1436182D01*
X642204Y1437230D01*
X643059Y1438344D01*
X647565Y1442850D01*
X647968Y1442810D01*
X648320Y1442463D01*
X648891Y1441443D01*
X648685Y1439880D01*
Y1435630D01*
X648944Y1433662D01*
X649704Y1431828D01*
X650912Y1430252D01*
X652487Y1429044D01*
X652822Y1428905D01*
X652946Y1427641D01*
X652546Y1427374D01*
X651321Y1425542D01*
X651144Y1424650D01*
X656540D01*
Y1423380D01*
X657810D01*
Y1417984D01*
X658702Y1418161D01*
X660534Y1419386D01*
X660686Y1419614D01*
X661956D01*
X662276Y1419136D01*
X664108Y1417911D01*
X665000Y1417734D01*
Y1423130D01*
X667540D01*
Y1417734D01*
X668432Y1417911D01*
X670264Y1419136D01*
X671189Y1420521D01*
X671203Y1420526D01*
X672587D01*
X672601Y1420521D01*
X673526Y1419136D01*
X675358Y1417911D01*
X676250Y1417734D01*
Y1423130D01*
X677520D01*
Y1424400D01*
X682916D01*
X682739Y1425292D01*
X681514Y1427124D01*
X681232Y1427313D01*
X681373Y1428746D01*
X682093Y1429044D01*
X683668Y1430252D01*
X684876Y1431828D01*
X685412Y1433121D01*
X685843Y1433318D01*
X686766Y1433384D01*
X686822Y1433370D01*
X686912Y1433252D01*
X688487Y1432044D01*
X690322Y1431284D01*
X692290Y1431025D01*
X727290D01*
X729258Y1431284D01*
X731093Y1432044D01*
X732668Y1433252D01*
X733876Y1434828D01*
X734636Y1436662D01*
X734895Y1438630D01*
Y1442950D01*
X734636Y1444918D01*
X733876Y1446753D01*
X732668Y1448328D01*
X731895Y1449100D01*
Y1463630D01*
X731830Y1464124D01*
Y1493136D01*
X731895Y1493630D01*
Y1512480D01*
X733668Y1514252D01*
X734876Y1515827D01*
X735191Y1516587D01*
X735636Y1517662D01*
X735895Y1519630D01*
X735636Y1521598D01*
X735191Y1522673D01*
X734876Y1523432D01*
X733668Y1525008D01*
X732093Y1526216D01*
X731333Y1526531D01*
X730258Y1526976D01*
X728290Y1527235D01*
X692290D01*
X690322Y1526976D01*
X688487Y1526216D01*
X686912Y1525008D01*
X685704Y1523432D01*
X684944Y1521598D01*
X684685Y1519630D01*
Y1515310D01*
X684944Y1513342D01*
X685291Y1512505D01*
X684442Y1511235D01*
X677593D01*
Y1515646D01*
X657273D01*
Y1495326D01*
X677593D01*
Y1496025D01*
X686685D01*
Y1493630D01*
X686750Y1493136D01*
Y1464124D01*
X686685Y1463630D01*
Y1448031D01*
X685704Y1446753D01*
X685149Y1445413D01*
X683771Y1445123D01*
X683668Y1445258D01*
X674580Y1454345D01*
Y1457920D01*
X669997D01*
X669258Y1458226D01*
X667290Y1458485D01*
X665322Y1458226D01*
X664583Y1457920D01*
X660000D01*
Y1454345D01*
X654448Y1448793D01*
X653275Y1449280D01*
Y1457630D01*
Y1471600D01*
X639305D01*
X638718Y1472626D01*
Y1477925D01*
X643435D01*
X644306Y1477564D01*
X646275Y1477305D01*
X660000D01*
Y1475340D01*
X664333D01*
X665072Y1475034D01*
X667040Y1474775D01*
X667290D01*
X669258Y1475034D01*
X669997Y1475340D01*
X674580D01*
Y1480277D01*
X674636Y1480412D01*
X674895Y1482380D01*
X674636Y1484348D01*
X674580Y1484483D01*
Y1489420D01*
X670755D01*
X669888Y1490287D01*
X668313Y1491496D01*
X666479Y1492256D01*
X664510Y1492515D01*
X651935D01*
Y1494299D01*
X651675Y1496268D01*
X650916Y1498102D01*
X649707Y1499677D01*
X643303Y1506082D01*
Y1515646D01*
X642659D01*
X642228Y1516916D01*
X643204Y1517666D01*
X644253Y1519032D01*
X644912Y1520623D01*
X645136Y1522330D01*
X644912Y1524037D01*
X644253Y1525628D01*
X643204Y1526994D01*
X641838Y1528043D01*
X640247Y1528702D01*
X638540Y1528927D01*
X636833Y1528702D01*
X635242Y1528043D01*
X633876Y1526994D01*
X632892Y1525713D01*
X632211Y1525623D01*
X632169D01*
X631488Y1525713D01*
X630504Y1526994D01*
X629138Y1528043D01*
X627547Y1528702D01*
X625840Y1528927D01*
X624133Y1528702D01*
X622542Y1528043D01*
X621176Y1526994D01*
X620192Y1525713D01*
X619510Y1525623D01*
X619469D01*
X618788Y1525713D01*
X617804Y1526994D01*
X616438Y1528043D01*
X614847Y1528702D01*
X613140Y1528927D01*
X611433Y1528702D01*
X609842Y1528043D01*
X608476Y1526994D01*
X607427Y1525628D01*
X606768Y1524037D01*
X606544Y1522330D01*
X606768Y1520623D01*
X606815Y1520510D01*
X606674Y1519283D01*
X606186Y1518710D01*
X605765Y1518710D01*
X605765Y1518710D01*
X605715Y1518710D01*
X598521D01*
X592688Y1524543D01*
X591352Y1525436D01*
X589775Y1525749D01*
X573251D01*
X571675Y1525436D01*
X570339Y1524543D01*
X555081Y1509285D01*
X553740Y1509740D01*
X553662Y1510337D01*
X553003Y1511928D01*
X551954Y1513294D01*
X551693Y1513495D01*
Y1514765D01*
X551954Y1514966D01*
X553003Y1516332D01*
X553662Y1517923D01*
X553719Y1518360D01*
X540861D01*
X540918Y1517923D01*
X541577Y1516332D01*
X542626Y1514966D01*
X542887Y1514765D01*
Y1513495D01*
X542626Y1513294D01*
X541577Y1511928D01*
X540918Y1510337D01*
X540861Y1509900D01*
X547290D01*
Y1507360D01*
X540861D01*
X540918Y1506923D01*
X541577Y1505332D01*
X542626Y1503966D01*
X543992Y1502917D01*
X545583Y1502258D01*
X546244Y1502171D01*
X546861Y1500809D01*
X546484Y1500245D01*
X546171Y1498669D01*
Y1493630D01*
X522824Y1470284D01*
X521651Y1470770D01*
X521651Y1506630D01*
X474330D01*
Y1531170D01*
X454784D01*
X454290Y1531235D01*
X447131D01*
X446995Y1531292D01*
X445027Y1531551D01*
D02*
G37*
G36*
X334020Y1435360D02*
X328861D01*
X328918Y1434923D01*
X329577Y1433332D01*
X330626Y1431966D01*
X331992Y1430917D01*
X333583Y1430258D01*
X334020Y1430201D01*
Y1435360D01*
D02*
G37*
G36*
X639830Y1426176D02*
X638123Y1425952D01*
X636532Y1425293D01*
X635166Y1424244D01*
X634182Y1422963D01*
X633501Y1422873D01*
X633460D01*
X632778Y1422963D01*
X631794Y1424244D01*
X630428Y1425293D01*
X628837Y1425952D01*
X627130Y1426176D01*
X625423Y1425952D01*
X623832Y1425293D01*
X622466Y1424244D01*
X621482Y1422963D01*
X620801Y1422873D01*
X620760D01*
X620078Y1422963D01*
X619094Y1424244D01*
X617728Y1425293D01*
X616137Y1425952D01*
X614430Y1426176D01*
X612723Y1425952D01*
X611132Y1425293D01*
X609766Y1424244D01*
X608717Y1422878D01*
X608058Y1421287D01*
X607834Y1419580D01*
X608058Y1417873D01*
X608717Y1416282D01*
X609766Y1414916D01*
X611132Y1413867D01*
X612723Y1413208D01*
X614430Y1412984D01*
X616137Y1413208D01*
X617728Y1413867D01*
X619094Y1414916D01*
X620078Y1416197D01*
X620760Y1416287D01*
X620801D01*
X621482Y1416197D01*
X622466Y1414916D01*
X623832Y1413867D01*
X625423Y1413208D01*
X626820Y1413024D01*
X627024Y1412997D01*
X627169Y1412941D01*
X627335Y1412763D01*
X627973Y1412057D01*
X627982Y1411815D01*
X627982Y1410696D01*
Y1410696D01*
X627983Y1410647D01*
Y1391520D01*
X637547D01*
X640529Y1388538D01*
X640043Y1387365D01*
X632805D01*
Y1382214D01*
X631920Y1380889D01*
X631843Y1380501D01*
X623260Y1371918D01*
X613250D01*
Y1356838D01*
X632330D01*
Y1357456D01*
X638805D01*
Y1351474D01*
X635158Y1347827D01*
X634054D01*
X631600Y1347339D01*
X630816Y1346815D01*
X630182Y1346553D01*
X628816Y1345504D01*
X627767Y1344138D01*
X627108Y1342547D01*
X626884Y1340840D01*
X627108Y1339133D01*
X627767Y1337542D01*
X628816Y1336176D01*
X630182Y1335127D01*
X631773Y1334468D01*
X633480Y1334244D01*
X635187Y1334468D01*
X636473Y1335001D01*
X637815D01*
X640269Y1335489D01*
X642349Y1336879D01*
X642814Y1337343D01*
X644017Y1336750D01*
X643935Y1336130D01*
X644194Y1334162D01*
X644954Y1332328D01*
X646162Y1330752D01*
X647738Y1329544D01*
X648754Y1329123D01*
X648834Y1329021D01*
X649154Y1327611D01*
X648513Y1326651D01*
X648414Y1326150D01*
X652790D01*
Y1324880D01*
X654060D01*
Y1320504D01*
X654561Y1320603D01*
X656063Y1321607D01*
X657067Y1323109D01*
X657292Y1324244D01*
X658587D01*
X658763Y1323359D01*
X659767Y1321857D01*
X661269Y1320853D01*
X661770Y1320754D01*
Y1325130D01*
X664310D01*
Y1320754D01*
X664811Y1320853D01*
X666313Y1321857D01*
X667317Y1323359D01*
X667667Y1325120D01*
X668911Y1324880D01*
X669263Y1323109D01*
X670267Y1321607D01*
X671769Y1320603D01*
X672270Y1320504D01*
Y1324880D01*
X673540D01*
Y1326150D01*
X677916D01*
X677817Y1326651D01*
X677312Y1327406D01*
X677341Y1328707D01*
X677643Y1329024D01*
X678918Y1330002D01*
X680126Y1331577D01*
X680886Y1333412D01*
X681145Y1335380D01*
Y1339873D01*
X681886Y1341662D01*
X682145Y1343630D01*
X681886Y1345598D01*
X681539Y1346436D01*
X681397Y1347517D01*
Y1348630D01*
X681137Y1350598D01*
X681081Y1350733D01*
Y1355670D01*
X676498D01*
X675760Y1355976D01*
X673792Y1356235D01*
X671823Y1355976D01*
X671085Y1355670D01*
X666501D01*
Y1355235D01*
X664290D01*
X662322Y1354976D01*
X660488Y1354216D01*
X658912Y1353008D01*
X653948Y1348044D01*
X652775Y1348530D01*
Y1356375D01*
Y1370345D01*
X641485D01*
X640999Y1371518D01*
X642380Y1372899D01*
X642712Y1373395D01*
X650743D01*
X651917Y1372909D01*
X653885Y1372650D01*
X672842D01*
X673792Y1372525D01*
X675760Y1372784D01*
X676498Y1373090D01*
X681081D01*
Y1378027D01*
X681137Y1378162D01*
X681397Y1380130D01*
X681137Y1382098D01*
X681081Y1382233D01*
Y1387170D01*
X676675D01*
X675635Y1387601D01*
X673667Y1387860D01*
X659420D01*
Y1388007D01*
X659161Y1389975D01*
X658401Y1391810D01*
X657193Y1393385D01*
X648303Y1402275D01*
Y1411840D01*
X640870D01*
X640787Y1413110D01*
X641537Y1413208D01*
X643128Y1413867D01*
X644494Y1414916D01*
X645543Y1416282D01*
X646202Y1417873D01*
X646426Y1419580D01*
X646202Y1421287D01*
X645543Y1422878D01*
X644494Y1424244D01*
X643128Y1425293D01*
X641537Y1425952D01*
X639830Y1426176D01*
D02*
G37*
G36*
X655270Y1422110D02*
X651144D01*
X651321Y1421218D01*
X652546Y1419386D01*
X654378Y1418161D01*
X655270Y1417984D01*
Y1422110D01*
D02*
G37*
G36*
X682916Y1421860D02*
X678790D01*
Y1417734D01*
X679682Y1417911D01*
X681514Y1419136D01*
X682739Y1420968D01*
X682916Y1421860D01*
D02*
G37*
G36*
X727290Y1428235D02*
X692790D01*
X690822Y1427976D01*
X688988Y1427216D01*
X687412Y1426008D01*
X686204Y1424433D01*
X685444Y1422598D01*
X685185Y1420630D01*
X685444Y1418662D01*
X686204Y1416828D01*
X687412Y1415252D01*
X687979Y1414686D01*
Y1409285D01*
X682593D01*
Y1411840D01*
X662273D01*
Y1391520D01*
X682593D01*
Y1394075D01*
X688044D01*
Y1366124D01*
X687979Y1365630D01*
Y1351394D01*
X685912Y1349328D01*
X684704Y1347753D01*
X683944Y1345918D01*
X683685Y1343950D01*
Y1339630D01*
X683944Y1337662D01*
X684704Y1335827D01*
X685912Y1334252D01*
X687025Y1333399D01*
X687114Y1333172D01*
Y1332088D01*
X687025Y1331861D01*
X685912Y1331008D01*
X684704Y1329433D01*
X683944Y1327598D01*
X683685Y1325630D01*
Y1321310D01*
X683944Y1319342D01*
X684704Y1317507D01*
X685129Y1316953D01*
X684503Y1315683D01*
X681113D01*
Y1318237D01*
X660792D01*
Y1297917D01*
X681113D01*
Y1300473D01*
X685706D01*
X685750Y1300136D01*
Y1271124D01*
X685685Y1270630D01*
Y1256100D01*
X684912Y1255328D01*
X683704Y1253753D01*
X683008Y1252073D01*
X682446Y1251819D01*
X681629Y1251657D01*
X674580Y1258705D01*
Y1262280D01*
X669997D01*
X669258Y1262586D01*
X667290Y1262845D01*
X665322Y1262586D01*
X664583Y1262280D01*
X660000D01*
Y1257343D01*
X659944Y1257208D01*
X659918Y1257014D01*
X654338Y1251433D01*
X653165Y1251919D01*
Y1264975D01*
X653526Y1265846D01*
X653785Y1267815D01*
X653526Y1269783D01*
X653165Y1270654D01*
Y1274800D01*
X649020D01*
X648148Y1275161D01*
X646180Y1275420D01*
X634449D01*
X633963Y1276593D01*
X636615Y1279245D01*
X653800D01*
Y1280072D01*
X660000D01*
Y1279700D01*
X674580D01*
Y1293780D01*
X660000D01*
Y1292898D01*
X653800D01*
Y1293215D01*
X653228D01*
Y1297925D01*
X652740Y1300380D01*
X651349Y1302460D01*
X646823Y1306987D01*
Y1318237D01*
X640910D01*
X640478Y1319507D01*
X640684Y1319666D01*
X641733Y1321032D01*
X642392Y1322623D01*
X642616Y1324330D01*
X642392Y1326037D01*
X641733Y1327628D01*
X640684Y1328994D01*
X639318Y1330043D01*
X637727Y1330702D01*
X636020Y1330926D01*
X634313Y1330702D01*
X632722Y1330043D01*
X631840Y1329366D01*
X630940Y1329112D01*
X630040Y1329366D01*
X629158Y1330043D01*
X627567Y1330702D01*
X625860Y1330926D01*
X624153Y1330702D01*
X622562Y1330043D01*
X621196Y1328994D01*
X620945Y1328668D01*
X619345D01*
X619094Y1328994D01*
X617728Y1330043D01*
X616137Y1330702D01*
X614430Y1330926D01*
X612723Y1330702D01*
X611132Y1330043D01*
X609766Y1328994D01*
X608717Y1327628D01*
X608058Y1326037D01*
X607834Y1324330D01*
X608058Y1322623D01*
X608717Y1321032D01*
X609766Y1319666D01*
X611132Y1318617D01*
X612723Y1317958D01*
X614430Y1317734D01*
X616137Y1317958D01*
X617728Y1318617D01*
X619094Y1319666D01*
X619345Y1319992D01*
X620945D01*
X621196Y1319666D01*
X622562Y1318617D01*
X624153Y1317958D01*
X625860Y1317734D01*
X626502Y1317170D01*
Y1297917D01*
X637753D01*
X640401Y1295269D01*
Y1293215D01*
X635684D01*
X634813Y1293576D01*
X632845Y1293835D01*
X630876Y1293576D01*
X630005Y1293215D01*
X625860D01*
Y1290000D01*
X616846Y1280986D01*
X615637Y1279411D01*
X614878Y1277577D01*
X614618Y1275609D01*
Y1268368D01*
X612683D01*
Y1253288D01*
X621729D01*
X622224Y1253223D01*
X624224D01*
X624718Y1253288D01*
X629419D01*
X629561Y1253083D01*
X629552Y1252217D01*
X629172Y1251411D01*
X628912Y1251303D01*
X627546Y1250254D01*
X626497Y1248888D01*
X625838Y1247297D01*
X625614Y1245590D01*
X625838Y1243883D01*
X626497Y1242292D01*
X627546Y1240926D01*
X628912Y1239877D01*
X630503Y1239218D01*
X632210Y1238994D01*
X633917Y1239218D01*
X635203Y1239751D01*
X638499D01*
X640954Y1240239D01*
X643034Y1241629D01*
X648073Y1246668D01*
X649152Y1246572D01*
X649929Y1245484D01*
X649685Y1243630D01*
X649944Y1241662D01*
X650704Y1239827D01*
X651912Y1238252D01*
X653487Y1237044D01*
X655322Y1236284D01*
X657290Y1236025D01*
X677290D01*
X679258Y1236284D01*
X681093Y1237044D01*
X682668Y1238252D01*
X683757Y1239672D01*
X684107Y1239848D01*
X685303Y1239953D01*
X686488Y1239044D01*
X688322Y1238284D01*
X690290Y1238025D01*
X727290D01*
X729258Y1238284D01*
X731093Y1239044D01*
X732668Y1240252D01*
X733876Y1241827D01*
X734636Y1243662D01*
X734895Y1245630D01*
Y1250170D01*
X734636Y1252138D01*
X733876Y1253972D01*
X732668Y1255548D01*
X730895Y1257320D01*
Y1270630D01*
X730830Y1271124D01*
Y1300136D01*
X730895Y1300630D01*
Y1314160D01*
X732668Y1315932D01*
X733876Y1317507D01*
X734636Y1319342D01*
X734895Y1321310D01*
Y1325630D01*
X734636Y1327598D01*
X733876Y1329433D01*
X732668Y1331008D01*
X731555Y1331861D01*
X731466Y1332088D01*
Y1333172D01*
X731555Y1333399D01*
X732668Y1334252D01*
X733876Y1335827D01*
X734636Y1337662D01*
X734895Y1339630D01*
Y1343950D01*
X734636Y1345918D01*
X733876Y1347753D01*
X733189Y1348648D01*
Y1357336D01*
X733124Y1357830D01*
Y1395136D01*
X733189Y1395630D01*
Y1411612D01*
X733876Y1412507D01*
X734636Y1414342D01*
X734895Y1416310D01*
Y1420630D01*
X734636Y1422598D01*
X733876Y1424433D01*
X732668Y1426008D01*
X731093Y1427216D01*
X729258Y1427976D01*
X727290Y1428235D01*
D02*
G37*
G36*
X346560Y1407059D02*
Y1401900D01*
X351719D01*
X351662Y1402337D01*
X351003Y1403928D01*
X349954Y1405294D01*
X348588Y1406343D01*
X346997Y1407002D01*
X346560Y1407059D01*
D02*
G37*
G36*
X344020D02*
X343583Y1407002D01*
X341992Y1406343D01*
X340626Y1405294D01*
X339577Y1403928D01*
X338918Y1402337D01*
X338861Y1401900D01*
X344020D01*
Y1407059D01*
D02*
G37*
G36*
X351719Y1399360D02*
X346560D01*
Y1394201D01*
X346997Y1394258D01*
X348588Y1394917D01*
X349954Y1395966D01*
X351003Y1397332D01*
X351662Y1398923D01*
X351719Y1399360D01*
D02*
G37*
G36*
X344020D02*
X338861D01*
X338918Y1398923D01*
X339577Y1397332D01*
X340626Y1395966D01*
X341992Y1394917D01*
X343583Y1394258D01*
X344020Y1394201D01*
Y1399360D01*
D02*
G37*
G36*
X410560Y1393026D02*
Y1388900D01*
X414686D01*
X414509Y1389792D01*
X413284Y1391624D01*
X411452Y1392849D01*
X410560Y1393026D01*
D02*
G37*
G36*
X408020D02*
X407128Y1392849D01*
X405296Y1391624D01*
X404072Y1389792D01*
X403894Y1388900D01*
X408020D01*
Y1393026D01*
D02*
G37*
G36*
X389560Y1390026D02*
Y1385900D01*
X393686D01*
X393509Y1386792D01*
X392284Y1388624D01*
X390452Y1389849D01*
X389560Y1390026D01*
D02*
G37*
G36*
X414686Y1386360D02*
X410560D01*
Y1382234D01*
X411452Y1382411D01*
X413284Y1383636D01*
X414509Y1385468D01*
X414686Y1386360D01*
D02*
G37*
G36*
X408020D02*
X403894D01*
X404072Y1385468D01*
X405296Y1383636D01*
X407128Y1382411D01*
X408020Y1382234D01*
Y1386360D01*
D02*
G37*
G36*
X393686Y1383360D02*
X389560D01*
Y1379234D01*
X390452Y1379411D01*
X392284Y1380636D01*
X393509Y1382468D01*
X393686Y1383360D01*
D02*
G37*
G36*
X387020Y1390026D02*
X386128Y1389849D01*
X384296Y1388624D01*
X383071Y1386792D01*
X382847Y1385663D01*
X348750D01*
Y1365597D01*
X359877D01*
Y1338040D01*
X334755Y1312918D01*
X333365Y1310838D01*
X332877Y1308383D01*
Y1255765D01*
X333365Y1253311D01*
X334755Y1251230D01*
X337523Y1248462D01*
X337577Y1248332D01*
X338626Y1246966D01*
X339992Y1245917D01*
X341583Y1245258D01*
X343290Y1245034D01*
X344997Y1245258D01*
X346588Y1245917D01*
X347954Y1246966D01*
X348528Y1247713D01*
X350052D01*
X350626Y1246966D01*
X351992Y1245917D01*
X353583Y1245258D01*
X355290Y1245034D01*
X356997Y1245258D01*
X358588Y1245917D01*
X359954Y1246966D01*
X361003Y1248332D01*
X361662Y1249923D01*
X361886Y1251630D01*
X361662Y1253337D01*
X361003Y1254928D01*
X359954Y1256294D01*
X358588Y1257343D01*
X356997Y1258002D01*
X355290Y1258226D01*
X353583Y1258002D01*
X351992Y1257343D01*
X350626Y1256294D01*
X350052Y1255546D01*
X348528D01*
X347954Y1256294D01*
X347422Y1256702D01*
X345703Y1258422D01*
Y1262662D01*
X346973Y1263511D01*
X347583Y1263258D01*
X349290Y1263034D01*
X350681Y1263217D01*
X359769D01*
X363270Y1259716D01*
Y1242420D01*
X396850D01*
Y1244514D01*
X398120Y1244899D01*
X398296Y1244636D01*
X400128Y1243411D01*
X401020Y1243234D01*
Y1248630D01*
X402290D01*
Y1249900D01*
X407686D01*
X407509Y1250792D01*
X406284Y1252624D01*
Y1253636D01*
X407509Y1255468D01*
X407686Y1256360D01*
X402290D01*
Y1258900D01*
X407686D01*
X407673Y1258966D01*
X408020Y1259350D01*
Y1266630D01*
X409290D01*
Y1267900D01*
X415719D01*
X415662Y1268337D01*
X415003Y1269928D01*
X414081Y1271130D01*
X415003Y1272332D01*
X415662Y1273923D01*
X415719Y1274360D01*
X409290D01*
Y1276900D01*
X415719D01*
X415662Y1277337D01*
X415003Y1278928D01*
X413954Y1280294D01*
X412588Y1281343D01*
X411827Y1281658D01*
X411312Y1283175D01*
X411509Y1283468D01*
X411686Y1284360D01*
X400894D01*
X401072Y1283468D01*
X402296Y1281636D01*
X403458Y1280859D01*
X403829Y1279323D01*
X403801Y1279219D01*
X403577Y1278928D01*
X402918Y1277337D01*
X402871Y1276979D01*
X401560Y1276106D01*
Y1270630D01*
Y1265234D01*
X401595Y1265241D01*
X402083Y1265124D01*
X402358Y1264462D01*
X402352Y1264406D01*
X401607Y1263143D01*
X400128Y1262849D01*
X398296Y1261624D01*
X398120Y1261361D01*
X396850Y1261746D01*
Y1262500D01*
X378625D01*
X367363Y1273762D01*
X366954Y1274294D01*
X365588Y1275343D01*
X363997Y1276002D01*
X362290Y1276226D01*
X360899Y1276043D01*
X350681D01*
X349290Y1276226D01*
X347583Y1276002D01*
X346973Y1275749D01*
X345703Y1276598D01*
Y1286742D01*
X346695Y1287161D01*
X346973Y1287206D01*
X348488Y1286044D01*
X350322Y1285284D01*
X350965Y1285199D01*
X353912Y1282252D01*
X355488Y1281044D01*
X356247Y1280729D01*
X357322Y1280284D01*
X359290Y1280025D01*
X362680D01*
X364648Y1280284D01*
X366483Y1281044D01*
X368058Y1282252D01*
X371573Y1285768D01*
X372743Y1285142D01*
X372641Y1284630D01*
X373071Y1282468D01*
X374296Y1280636D01*
X376128Y1279411D01*
X377020Y1279234D01*
Y1284630D01*
X378290D01*
Y1285900D01*
X383686D01*
X383509Y1286792D01*
X383302Y1287100D01*
X383901Y1288220D01*
X386679D01*
X387277Y1287100D01*
X387071Y1286792D01*
X386894Y1285900D01*
X397686D01*
X397509Y1286792D01*
X396718Y1287974D01*
X396850Y1288220D01*
X396850D01*
Y1308300D01*
X374025D01*
X369318Y1313008D01*
X367743Y1314216D01*
X365908Y1314976D01*
X363940Y1315235D01*
X358290D01*
X356813Y1315041D01*
X356220Y1316243D01*
X370825Y1330849D01*
X372215Y1332929D01*
X372703Y1335383D01*
Y1365597D01*
X383830D01*
Y1379420D01*
X385100Y1380099D01*
X386128Y1379411D01*
X387020Y1379234D01*
Y1384630D01*
Y1390026D01*
D02*
G37*
G36*
X551060Y1366809D02*
Y1361650D01*
X556219D01*
X556162Y1362087D01*
X555503Y1363678D01*
X554454Y1365044D01*
X553088Y1366093D01*
X551497Y1366752D01*
X551060Y1366809D01*
D02*
G37*
G36*
X331270Y1361276D02*
X330378Y1361098D01*
X328546Y1359874D01*
X327321Y1358042D01*
X327144Y1357150D01*
X331270D01*
Y1361276D01*
D02*
G37*
G36*
X349060Y1361026D02*
Y1356900D01*
X353186D01*
X353009Y1357792D01*
X351784Y1359624D01*
X349952Y1360849D01*
X349060Y1361026D01*
D02*
G37*
G36*
X614060Y1347059D02*
Y1341900D01*
X619219D01*
X619162Y1342337D01*
X618503Y1343928D01*
X617454Y1345294D01*
X616088Y1346343D01*
X614497Y1347002D01*
X614060Y1347059D01*
D02*
G37*
G36*
X611520D02*
X611083Y1347002D01*
X609492Y1346343D01*
X608126Y1345294D01*
X607077Y1343928D01*
X606418Y1342337D01*
X606361Y1341900D01*
X611520D01*
Y1347059D01*
D02*
G37*
G36*
X331520Y1339360D02*
X327394D01*
X327571Y1338468D01*
X328796Y1336636D01*
X330628Y1335412D01*
X331520Y1335234D01*
Y1339360D01*
D02*
G37*
G36*
X353436Y1338860D02*
X349310D01*
Y1334734D01*
X350202Y1334911D01*
X352034Y1336136D01*
X353259Y1337968D01*
X353436Y1338860D01*
D02*
G37*
G36*
X333810Y1361276D02*
Y1355880D01*
X332540D01*
Y1354610D01*
X327144D01*
X327321Y1353718D01*
X328546Y1351886D01*
X328609Y1351844D01*
X327571Y1350292D01*
X327394Y1349400D01*
X332790D01*
Y1346860D01*
X327394D01*
X327571Y1345968D01*
X328633Y1344380D01*
X327571Y1342792D01*
X327394Y1341900D01*
X332790D01*
Y1340630D01*
X334060D01*
Y1335234D01*
X334952Y1335412D01*
X336540Y1336473D01*
X338128Y1335412D01*
X339020Y1335234D01*
Y1340630D01*
X341560D01*
Y1335234D01*
X342452Y1335412D01*
X343889Y1336371D01*
X344046Y1336136D01*
X345878Y1334911D01*
X346770Y1334734D01*
Y1340130D01*
X348040D01*
Y1341400D01*
X353436D01*
X353259Y1342292D01*
X352034Y1344124D01*
X351856Y1344243D01*
X353009Y1345968D01*
X353186Y1346860D01*
X347790D01*
Y1349400D01*
X353186D01*
X353009Y1350292D01*
X351947Y1351880D01*
X353009Y1353468D01*
X353186Y1354360D01*
X347790D01*
Y1355630D01*
X346520D01*
Y1361026D01*
X345628Y1360849D01*
X344040Y1359787D01*
X342452Y1360849D01*
X341560Y1361026D01*
Y1355630D01*
X339020D01*
Y1361026D01*
X338128Y1360849D01*
X336576Y1359811D01*
X336534Y1359874D01*
X334702Y1361098D01*
X333810Y1361276D01*
D02*
G37*
G36*
X619219Y1339360D02*
X614060D01*
Y1334201D01*
X614497Y1334258D01*
X616088Y1334917D01*
X617454Y1335966D01*
X618503Y1337332D01*
X619162Y1338923D01*
X619219Y1339360D01*
D02*
G37*
G36*
X611520D02*
X606361D01*
X606418Y1338923D01*
X607077Y1337332D01*
X608126Y1335966D01*
X609492Y1334917D01*
X611083Y1334258D01*
X611520Y1334201D01*
Y1339360D01*
D02*
G37*
G36*
X677916Y1323610D02*
X674810D01*
Y1320504D01*
X675311Y1320603D01*
X676813Y1321607D01*
X677817Y1323109D01*
X677916Y1323610D01*
D02*
G37*
G36*
X651520D02*
X648414D01*
X648513Y1323109D01*
X649517Y1321607D01*
X651019Y1320603D01*
X651520Y1320504D01*
Y1323610D01*
D02*
G37*
G36*
X454282Y1321748D02*
Y1317623D01*
X458408D01*
X458231Y1318514D01*
X457007Y1320347D01*
X455174Y1321571D01*
X454282Y1321748D01*
D02*
G37*
G36*
X458408Y1315083D02*
X454282D01*
Y1310957D01*
X455174Y1311134D01*
X457007Y1312358D01*
X458231Y1314191D01*
X458408Y1315083D01*
D02*
G37*
G36*
X436640Y1337250D02*
X423940D01*
Y1322010D01*
X430094D01*
X436931Y1315172D01*
X437071Y1314468D01*
X438296Y1312636D01*
X440128Y1311411D01*
X442290Y1310981D01*
X444452Y1311411D01*
X446284Y1312636D01*
X446795Y1313400D01*
X448322D01*
X449018Y1312358D01*
X450851Y1311134D01*
X451743Y1310957D01*
Y1316353D01*
Y1321748D01*
X450851Y1321571D01*
X449018Y1320347D01*
X448508Y1319582D01*
X446980D01*
X446284Y1320624D01*
X444452Y1321849D01*
X443074Y1322123D01*
X436640Y1328556D01*
Y1337250D01*
D02*
G37*
G36*
X407560Y1291026D02*
Y1286900D01*
X411686D01*
X411509Y1287792D01*
X410284Y1289624D01*
X408452Y1290849D01*
X407560Y1291026D01*
D02*
G37*
G36*
X405020D02*
X404128Y1290849D01*
X402296Y1289624D01*
X401072Y1287792D01*
X400894Y1286900D01*
X405020D01*
Y1291026D01*
D02*
G37*
G36*
X397686Y1283360D02*
X393560D01*
Y1279234D01*
X394452Y1279411D01*
X396284Y1280636D01*
X397509Y1282468D01*
X397686Y1283360D01*
D02*
G37*
G36*
X391020D02*
X386894D01*
X387071Y1282468D01*
X388296Y1280636D01*
X390128Y1279411D01*
X391020Y1279234D01*
Y1283360D01*
D02*
G37*
G36*
X383686D02*
X379560D01*
Y1279234D01*
X380452Y1279411D01*
X382284Y1280636D01*
X383509Y1282468D01*
X383686Y1283360D01*
D02*
G37*
G36*
X399020Y1276026D02*
X398128Y1275849D01*
X396296Y1274624D01*
X395071Y1272792D01*
X394894Y1271900D01*
X399020D01*
Y1276026D01*
D02*
G37*
G36*
Y1269360D02*
X394894D01*
X395071Y1268468D01*
X396296Y1266636D01*
X398128Y1265411D01*
X399020Y1265234D01*
Y1269360D01*
D02*
G37*
G36*
X415719Y1265360D02*
X410560D01*
Y1260201D01*
X410997Y1260258D01*
X412588Y1260917D01*
X413954Y1261966D01*
X415003Y1263332D01*
X415662Y1264923D01*
X415719Y1265360D01*
D02*
G37*
G36*
X553719D02*
X540861D01*
X540918Y1264923D01*
X541577Y1263332D01*
X542626Y1261966D01*
X542887Y1261765D01*
Y1260495D01*
X542626Y1260294D01*
X541577Y1258928D01*
X540918Y1257337D01*
X540861Y1256900D01*
X553719D01*
X553662Y1257337D01*
X553003Y1258928D01*
X551954Y1260294D01*
X551693Y1260495D01*
Y1261765D01*
X551954Y1261966D01*
X553003Y1263332D01*
X553662Y1264923D01*
X553719Y1265360D01*
D02*
G37*
G36*
X546020Y1254360D02*
X540861D01*
X540918Y1253923D01*
X541410Y1252736D01*
X540627Y1252011D01*
X540398Y1251859D01*
X539560Y1252026D01*
Y1247900D01*
X543686D01*
X543519Y1248738D01*
X543671Y1248967D01*
X544396Y1249750D01*
X545583Y1249258D01*
X546020Y1249201D01*
Y1254360D01*
D02*
G37*
G36*
X528020Y1252026D02*
X527128Y1251849D01*
X525652Y1250862D01*
X524790Y1250712D01*
X523928Y1250862D01*
X522452Y1251849D01*
X521560Y1252026D01*
Y1246630D01*
Y1241234D01*
X522452Y1241411D01*
X523928Y1242398D01*
X524790Y1242548D01*
X525652Y1242398D01*
X527128Y1241411D01*
X528020Y1241234D01*
Y1246630D01*
Y1252026D01*
D02*
G37*
G36*
X583020Y1254059D02*
X582583Y1254002D01*
X580992Y1253343D01*
X579626Y1252294D01*
X578577Y1250928D01*
X578477Y1250687D01*
X577103D01*
X577003Y1250928D01*
X575954Y1252294D01*
X574588Y1253343D01*
X572997Y1254002D01*
X572560Y1254059D01*
Y1247630D01*
Y1241201D01*
X572997Y1241258D01*
X574588Y1241917D01*
X575954Y1242966D01*
X577003Y1244332D01*
X577103Y1244573D01*
X578477D01*
X578577Y1244332D01*
X579626Y1242966D01*
X580992Y1241917D01*
X582583Y1241258D01*
X583020Y1241201D01*
Y1247630D01*
Y1254059D01*
D02*
G37*
G36*
X537020Y1252026D02*
X536128Y1251849D01*
X534296Y1250624D01*
X533284D01*
X531452Y1251849D01*
X530560Y1252026D01*
Y1246630D01*
Y1241234D01*
X531452Y1241411D01*
X533284Y1242636D01*
X534296D01*
X536128Y1241411D01*
X537020Y1241234D01*
Y1246630D01*
Y1252026D01*
D02*
G37*
G36*
X553719Y1254360D02*
X548560D01*
Y1249201D01*
X548997Y1249258D01*
X550588Y1249917D01*
X551954Y1250966D01*
X553003Y1252332D01*
X553662Y1253923D01*
X553719Y1254360D01*
D02*
G37*
G36*
X585560Y1254059D02*
Y1248900D01*
X590719D01*
X590662Y1249337D01*
X590003Y1250928D01*
X588954Y1252294D01*
X587588Y1253343D01*
X585997Y1254002D01*
X585560Y1254059D01*
D02*
G37*
G36*
X570020D02*
X569583Y1254002D01*
X567992Y1253343D01*
X566626Y1252294D01*
X565577Y1250928D01*
X564918Y1249337D01*
X564861Y1248900D01*
X570020D01*
Y1254059D01*
D02*
G37*
G36*
X519020Y1252026D02*
X518128Y1251849D01*
X516296Y1250624D01*
X515071Y1248792D01*
X514894Y1247900D01*
X519020D01*
Y1252026D01*
D02*
G37*
G36*
X505560D02*
Y1247900D01*
X509686D01*
X509509Y1248792D01*
X508284Y1250624D01*
X506452Y1251849D01*
X505560Y1252026D01*
D02*
G37*
G36*
X503020D02*
X502128Y1251849D01*
X500296Y1250624D01*
X499071Y1248792D01*
X498894Y1247900D01*
X503020D01*
Y1252026D01*
D02*
G37*
G36*
X407686Y1247360D02*
X403560D01*
Y1243234D01*
X404452Y1243411D01*
X406284Y1244636D01*
X407509Y1246468D01*
X407686Y1247360D01*
D02*
G37*
G36*
X543686Y1245360D02*
X539560D01*
Y1241234D01*
X540452Y1241411D01*
X542284Y1242636D01*
X543509Y1244468D01*
X543686Y1245360D01*
D02*
G37*
G36*
X519020D02*
X514894D01*
X515071Y1244468D01*
X516296Y1242636D01*
X518128Y1241411D01*
X519020Y1241234D01*
Y1245360D01*
D02*
G37*
G36*
X509686D02*
X505560D01*
Y1241234D01*
X506452Y1241411D01*
X508284Y1242636D01*
X509509Y1244468D01*
X509686Y1245360D01*
D02*
G37*
G36*
X503020D02*
X498894D01*
X499071Y1244468D01*
X500296Y1242636D01*
X502128Y1241411D01*
X503020Y1241234D01*
Y1245360D01*
D02*
G37*
G36*
X590719Y1246360D02*
X585560D01*
Y1241201D01*
X585997Y1241258D01*
X587588Y1241917D01*
X588954Y1242966D01*
X590003Y1244332D01*
X590662Y1245923D01*
X590719Y1246360D01*
D02*
G37*
G36*
X570020D02*
X564861D01*
X564918Y1245923D01*
X565577Y1244332D01*
X566626Y1242966D01*
X567992Y1241917D01*
X569583Y1241258D01*
X570020Y1241201D01*
Y1246360D01*
D02*
G37*
%LPD*%
G36*
X514998Y1462457D02*
X499685Y1447144D01*
X498219Y1447475D01*
X497284Y1448874D01*
X495452Y1450099D01*
X494560Y1450276D01*
Y1444880D01*
X492020D01*
Y1450276D01*
X491128Y1450099D01*
X489401Y1448944D01*
X488272Y1450635D01*
X486439Y1451859D01*
X484277Y1452289D01*
X482116Y1451859D01*
X480283Y1450635D01*
X479470Y1449417D01*
X477702Y1450598D01*
X476810Y1450776D01*
Y1445380D01*
Y1439984D01*
X476966Y1440015D01*
X477730Y1438872D01*
X477431Y1438426D01*
X477001Y1436264D01*
Y1427264D01*
X477431Y1425103D01*
X478656Y1423270D01*
X480488Y1422045D01*
X482650Y1421616D01*
X484812Y1422045D01*
X486644Y1423270D01*
X487868Y1425103D01*
X488298Y1427264D01*
Y1436264D01*
X487868Y1438426D01*
X487662Y1438735D01*
Y1441046D01*
X488932Y1441431D01*
X489296Y1440886D01*
X491128Y1439661D01*
X492542Y1439380D01*
X493325Y1438540D01*
X493351Y1438023D01*
X493002Y1436264D01*
Y1427264D01*
X493431Y1425103D01*
X494656Y1423270D01*
X496488Y1422045D01*
X498650Y1421616D01*
X500812Y1422045D01*
X502644Y1423270D01*
X502656D01*
X504055Y1422335D01*
X504386Y1420869D01*
X501320Y1417803D01*
X468152D01*
X466278Y1419677D01*
X464942Y1420570D01*
X463365Y1420883D01*
X461184D01*
X460978Y1421528D01*
X460973Y1422153D01*
X462644Y1423270D01*
X462656D01*
X464488Y1422045D01*
X466650Y1421616D01*
X468812Y1422045D01*
X470644Y1423270D01*
X471869Y1425103D01*
X472299Y1427264D01*
Y1436264D01*
X471869Y1438426D01*
X471535Y1438925D01*
X471712Y1439811D01*
X473025Y1440397D01*
X473378Y1440161D01*
X474270Y1439984D01*
Y1445380D01*
Y1450776D01*
X473378Y1450598D01*
X471546Y1449374D01*
X470534D01*
X468702Y1450598D01*
X468216Y1450695D01*
X467848Y1451910D01*
X470783Y1454845D01*
X472319D01*
X473806Y1455141D01*
X475066Y1455983D01*
X481263Y1462180D01*
X482105Y1463441D01*
X482143Y1463630D01*
X514512Y1463630D01*
X514998Y1462457D01*
D02*
G37*
G36*
X452164Y1462457D02*
X447543Y1457836D01*
X446701Y1456575D01*
X446405Y1455089D01*
Y1439883D01*
X445431Y1438426D01*
X445001Y1436264D01*
Y1427264D01*
X445431Y1425103D01*
X446656Y1423270D01*
X448327Y1422153D01*
X448322Y1421528D01*
X448116Y1420883D01*
X443957D01*
X442312Y1421983D01*
X440150Y1422413D01*
X431150D01*
X428988Y1421983D01*
X427156Y1420758D01*
X425931Y1418926D01*
X425502Y1416764D01*
X425931Y1414603D01*
X426036Y1414446D01*
X425437Y1413326D01*
X424357D01*
X422586Y1412974D01*
X421084Y1411970D01*
X421084Y1411970D01*
X419107Y1409993D01*
X417936Y1410619D01*
X417938Y1410630D01*
X417509Y1412792D01*
X416284Y1414624D01*
X414452Y1415849D01*
X412290Y1416279D01*
X410128Y1415849D01*
X408673Y1414876D01*
X405913D01*
X405913Y1414876D01*
X405275Y1415399D01*
Y1420552D01*
X406545Y1420969D01*
X408128Y1419911D01*
X409020Y1419734D01*
Y1425130D01*
X410290D01*
Y1426400D01*
X415686D01*
X415509Y1427292D01*
X414807Y1428342D01*
X415543Y1429526D01*
X416290Y1429428D01*
X423975D01*
X424322Y1429284D01*
X426290Y1429025D01*
X428258Y1429284D01*
X430093Y1430044D01*
X431668Y1431252D01*
X432668Y1432252D01*
X433876Y1433828D01*
X434636Y1435662D01*
X434895Y1437630D01*
Y1438025D01*
X435290D01*
X437258Y1438284D01*
X439092Y1439044D01*
X440668Y1440252D01*
X441876Y1441828D01*
X442636Y1443662D01*
X442895Y1445630D01*
Y1456565D01*
X442636Y1458533D01*
X441876Y1460367D01*
X440668Y1461942D01*
X440602Y1462008D01*
X440143Y1462360D01*
X440574Y1463630D01*
X451678Y1463630D01*
X452164Y1462457D01*
D02*
G37*
G36*
X511836Y1415084D02*
X511931Y1414603D01*
X513156Y1412770D01*
Y1412758D01*
X511931Y1410926D01*
X511502Y1408764D01*
X511931Y1406602D01*
X513156Y1404770D01*
Y1404758D01*
X511931Y1402926D01*
X511502Y1400764D01*
X511931Y1398602D01*
X513156Y1396770D01*
Y1396758D01*
X511931Y1394926D01*
X511502Y1392764D01*
X511931Y1390603D01*
X513156Y1388770D01*
Y1388758D01*
X511931Y1386926D01*
X511502Y1384764D01*
X511931Y1382603D01*
X513156Y1380770D01*
Y1380758D01*
X511931Y1378926D01*
X511502Y1376764D01*
X511931Y1374603D01*
X513156Y1372770D01*
Y1372758D01*
X511931Y1370926D01*
X511502Y1368764D01*
X511931Y1366602D01*
X513156Y1364770D01*
Y1364758D01*
X512221Y1363359D01*
X510755Y1363028D01*
X508241Y1365543D01*
X506904Y1366436D01*
X505328Y1366749D01*
X484996D01*
X466203Y1385543D01*
X464866Y1386436D01*
X464244Y1386559D01*
X463717Y1387959D01*
X464003Y1388332D01*
X464662Y1389923D01*
X464719Y1390360D01*
X451063D01*
X450609Y1390136D01*
X445069Y1395677D01*
X444900Y1395789D01*
X444144Y1396770D01*
X445368Y1398602D01*
X445798Y1400764D01*
X445368Y1402926D01*
X444144Y1404758D01*
Y1404770D01*
X445368Y1406602D01*
X445798Y1408764D01*
X445368Y1410926D01*
X444968Y1411525D01*
X445567Y1412645D01*
X461659D01*
X463533Y1410771D01*
X464869Y1409879D01*
X466445Y1409565D01*
X503026D01*
X504602Y1409879D01*
X505939Y1410771D01*
X510620Y1415453D01*
X511836Y1415084D01*
D02*
G37*
G36*
X481714Y1358824D02*
X483290Y1358511D01*
X503622D01*
X505339Y1356794D01*
X504970Y1355578D01*
X504488Y1355483D01*
X502656Y1354258D01*
X502644D01*
X500812Y1355483D01*
X498650Y1355913D01*
X496488Y1355483D01*
X495704Y1354958D01*
X494650Y1354262D01*
X493596Y1354958D01*
X492812Y1355483D01*
X490650Y1355913D01*
X488488Y1355483D01*
X486656Y1354258D01*
X485431Y1352426D01*
X485001Y1350264D01*
Y1341264D01*
X485431Y1339102D01*
X485547Y1338929D01*
X485367Y1338021D01*
X484068Y1337437D01*
X483452Y1337849D01*
X482560Y1338026D01*
Y1332630D01*
X480020D01*
Y1339123D01*
X479907Y1339298D01*
X480299Y1341264D01*
Y1350264D01*
X479869Y1352426D01*
X479279Y1353308D01*
Y1359020D01*
X479922Y1359428D01*
X480549Y1359603D01*
X481714Y1358824D01*
D02*
G37*
G36*
X551948Y1329467D02*
X553284Y1328574D01*
X554860Y1328261D01*
X557320D01*
Y1326645D01*
X559167D01*
Y1309774D01*
X556176Y1306783D01*
X554275D01*
Y1308630D01*
X540305D01*
Y1306783D01*
X536275D01*
Y1308630D01*
X522909D01*
Y1349053D01*
X522928Y1349149D01*
X522615Y1350725D01*
X521722Y1352062D01*
X519841Y1353942D01*
X520327Y1355116D01*
X526150D01*
X526275Y1355140D01*
X551948Y1329467D01*
D02*
G37*
G36*
X575805Y1285410D02*
X577596D01*
Y1281784D01*
X575695D01*
Y1278918D01*
X552827D01*
X542203Y1289543D01*
X540866Y1290436D01*
X539290Y1290749D01*
X527996D01*
X525259Y1293486D01*
X525745Y1294660D01*
X536275D01*
Y1296506D01*
X540305D01*
Y1294660D01*
X546911D01*
X547590Y1293390D01*
X547263Y1292901D01*
X547164Y1292400D01*
X555916D01*
X555817Y1292901D01*
X554813Y1294403D01*
X554275Y1294763D01*
Y1296506D01*
X558028D01*
X558995Y1295522D01*
X558918Y1295337D01*
X558694Y1293630D01*
X558918Y1291923D01*
X559577Y1290332D01*
X560626Y1288966D01*
X561992Y1287917D01*
X563583Y1287258D01*
X565290Y1287034D01*
X566997Y1287258D01*
X568588Y1287917D01*
X569954Y1288966D01*
X571003Y1290332D01*
X571662Y1291923D01*
X571886Y1293630D01*
X571662Y1295337D01*
X571253Y1296325D01*
X574209Y1299282D01*
X575805D01*
Y1285410D01*
D02*
G37*
%LPC*%
G36*
X415686Y1423860D02*
X411560D01*
Y1419734D01*
X412452Y1419911D01*
X414284Y1421136D01*
X415509Y1422968D01*
X415686Y1423860D01*
D02*
G37*
G36*
X459561Y1408771D02*
Y1403612D01*
X464720D01*
X464662Y1404049D01*
X464003Y1405640D01*
X462955Y1407006D01*
X461589Y1408054D01*
X459998Y1408713D01*
X459561Y1408771D01*
D02*
G37*
G36*
X457021D02*
X456583Y1408713D01*
X454992Y1408054D01*
X453626Y1407006D01*
X452578Y1405640D01*
X451919Y1404049D01*
X451861Y1403612D01*
X457021D01*
Y1408771D01*
D02*
G37*
G36*
X464720Y1401072D02*
X451861D01*
X451919Y1400634D01*
X452578Y1399043D01*
X453626Y1397677D01*
X453699Y1397621D01*
Y1396667D01*
X453521Y1396158D01*
X452577Y1394928D01*
X451918Y1393337D01*
X451861Y1392900D01*
X464719D01*
X464662Y1393337D01*
X464003Y1394928D01*
X462954Y1396294D01*
X462881Y1396351D01*
Y1397305D01*
X463060Y1397814D01*
X464003Y1399043D01*
X464662Y1400634D01*
X464720Y1401072D01*
D02*
G37*
G36*
X542020Y1333059D02*
X541583Y1333002D01*
X539992Y1332343D01*
X538626Y1331294D01*
X538052Y1330547D01*
X536528D01*
X535954Y1331294D01*
X534588Y1332343D01*
X532997Y1333002D01*
X532560Y1333059D01*
Y1326630D01*
Y1320201D01*
X532997Y1320258D01*
X534588Y1320917D01*
X535954Y1321966D01*
X536528Y1322713D01*
X538052D01*
X538626Y1321966D01*
X539992Y1320917D01*
X541583Y1320258D01*
X542020Y1320201D01*
Y1326630D01*
Y1333059D01*
D02*
G37*
G36*
X544560D02*
Y1327900D01*
X549719D01*
X549662Y1328337D01*
X549003Y1329928D01*
X547954Y1331294D01*
X546588Y1332343D01*
X544997Y1333002D01*
X544560Y1333059D01*
D02*
G37*
G36*
X530020D02*
X529583Y1333002D01*
X527992Y1332343D01*
X526626Y1331294D01*
X525577Y1329928D01*
X524918Y1328337D01*
X524861Y1327900D01*
X530020D01*
Y1333059D01*
D02*
G37*
G36*
X549719Y1325360D02*
X544560D01*
Y1320201D01*
X544997Y1320258D01*
X546588Y1320917D01*
X547954Y1321966D01*
X549003Y1323332D01*
X549662Y1324923D01*
X549719Y1325360D01*
D02*
G37*
G36*
X530020D02*
X524861D01*
X524918Y1324923D01*
X525577Y1323332D01*
X526626Y1321966D01*
X527992Y1320917D01*
X529583Y1320258D01*
X530020Y1320201D01*
Y1325360D01*
D02*
G37*
G36*
X555916Y1289860D02*
X552810D01*
Y1286754D01*
X553311Y1286853D01*
X554813Y1287857D01*
X555817Y1289359D01*
X555916Y1289860D01*
D02*
G37*
G36*
X550270D02*
X547164D01*
X547263Y1289359D01*
X548267Y1287857D01*
X549769Y1286853D01*
X550270Y1286754D01*
Y1289860D01*
D02*
G37*
%LPD*%
D14*
X466707Y1472505D02*
X467707D01*
X449415D02*
X466707D01*
X461977Y1467775D02*
X466707Y1472505D01*
X461977Y1466775D02*
Y1467775D01*
X450290Y1455089D02*
X461977Y1466775D01*
X450290Y1432124D02*
Y1455089D01*
X447320Y1486630D02*
X448290Y1487600D01*
X437290Y1486630D02*
X447320D01*
X467707Y1489505D02*
X468707D01*
X478831Y1499630D01*
X515290D01*
X511987Y1474630D02*
X516802D01*
X519243Y1477071D01*
Y1495677D01*
X515290Y1499630D02*
X519243Y1495677D01*
X510988Y1473631D02*
X511987Y1474630D01*
X484977Y1484775D02*
X489707Y1489505D01*
X483588Y1484775D02*
X484977D01*
X450290Y1432124D02*
X450650Y1431764D01*
X448290Y1473630D02*
X449415Y1472505D01*
X489707Y1489505D02*
X509084D01*
X510988Y1487601D01*
X458650Y1431764D02*
Y1448206D01*
X469173Y1458730D01*
X472319D01*
X478517Y1464927D01*
Y1479704D01*
X483588Y1484775D01*
X448290Y1487600D02*
X465801D01*
X467707Y1489505D01*
X490832Y1473631D02*
X510988D01*
X489707Y1472505D02*
X490832Y1473631D01*
X458650Y1431764D02*
X458680Y1431794D01*
X450650Y1431764D02*
X450680Y1431794D01*
D20*
X529290Y1266630D02*
D03*
D21*
X343290Y1453958D02*
D03*
X459290Y1518630D02*
D03*
D22*
X708290Y1285630D02*
D03*
X710584Y1380630D02*
D03*
X709290Y1478630D02*
D03*
D23*
X366290Y1375630D02*
D03*
D24*
Y1401030D02*
D03*
Y1426430D02*
D03*
D25*
X380290Y1329630D02*
D03*
X390290D02*
D03*
X400290D02*
D03*
X410290D02*
D03*
X420290D02*
D03*
D26*
X430290D02*
D03*
D27*
X447560Y1275360D02*
D03*
D28*
X380060Y1252460D02*
D03*
Y1298260D02*
D03*
D29*
X398290Y1433615D02*
D03*
Y1419645D02*
D03*
Y1402625D02*
D03*
Y1388655D02*
D03*
X529290Y1315615D02*
D03*
Y1301645D02*
D03*
X547290Y1315615D02*
D03*
Y1301645D02*
D03*
X646290Y1450645D02*
D03*
Y1464615D02*
D03*
X599680Y1497755D02*
D03*
Y1511725D02*
D03*
X582660Y1511725D02*
D03*
Y1497755D02*
D03*
Y1462195D02*
D03*
Y1476165D02*
D03*
X645790Y1349389D02*
D03*
Y1363360D02*
D03*
X599701Y1391005D02*
D03*
Y1404975D02*
D03*
X582680Y1404975D02*
D03*
Y1391005D02*
D03*
Y1355445D02*
D03*
Y1369415D02*
D03*
X646180Y1253845D02*
D03*
Y1267815D02*
D03*
X600460Y1297025D02*
D03*
Y1310995D02*
D03*
X582680Y1260829D02*
D03*
Y1274799D02*
D03*
X582790Y1306365D02*
D03*
Y1292395D02*
D03*
X419077Y1493945D02*
D03*
Y1479975D02*
D03*
X448290Y1487600D02*
D03*
Y1473630D02*
D03*
X510988Y1473631D02*
D03*
Y1487601D02*
D03*
D30*
X564305Y1333630D02*
D03*
X578275D02*
D03*
X632305Y1484910D02*
D03*
X646275D02*
D03*
X639790Y1380380D02*
D03*
X653760D02*
D03*
X632845Y1286230D02*
D03*
X646815D02*
D03*
X553805Y1424380D02*
D03*
X567775D02*
D03*
X433042Y1511961D02*
D03*
X419072D02*
D03*
X506275Y1313630D02*
D03*
X492305D02*
D03*
D31*
X633143Y1505486D02*
D03*
X667433D02*
D03*
X638143Y1401680D02*
D03*
X672433D02*
D03*
X636662Y1308078D02*
D03*
X670953D02*
D03*
X382144Y1454580D02*
D03*
X416434D02*
D03*
D32*
X600290Y1468128D02*
D03*
Y1449128D02*
D03*
X622290Y1458628D02*
D03*
X600790Y1373878D02*
D03*
Y1354878D02*
D03*
X622790Y1364378D02*
D03*
X600224Y1270328D02*
D03*
Y1251328D02*
D03*
X622224Y1260828D02*
D03*
D33*
X667290Y1450880D02*
D03*
Y1482380D02*
D03*
X673792Y1348630D02*
D03*
Y1380130D02*
D03*
X667290Y1255240D02*
D03*
Y1286740D02*
D03*
D34*
X521650Y1416764D02*
D03*
Y1408764D02*
D03*
Y1400764D02*
D03*
Y1392764D02*
D03*
Y1384764D02*
D03*
Y1376764D02*
D03*
Y1368764D02*
D03*
Y1360764D02*
D03*
X435650D02*
D03*
Y1368764D02*
D03*
Y1376764D02*
D03*
Y1384764D02*
D03*
Y1392764D02*
D03*
Y1400764D02*
D03*
Y1408764D02*
D03*
Y1416764D02*
D03*
D35*
X506650Y1345764D02*
D03*
X498650D02*
D03*
X490650D02*
D03*
X482650D02*
D03*
X474650D02*
D03*
X466650D02*
D03*
X458650D02*
D03*
X450650D02*
D03*
Y1431764D02*
D03*
X458650D02*
D03*
X466650D02*
D03*
X474650D02*
D03*
X482650D02*
D03*
X490650D02*
D03*
X498650D02*
D03*
X506650D02*
D03*
D36*
X399290Y1478918D02*
D03*
Y1508918D02*
D03*
D37*
X397290Y1493918D02*
D03*
D38*
X372290D02*
D03*
D39*
X489707Y1489505D02*
D03*
X467707D02*
D03*
Y1472505D02*
D03*
X489707D02*
D03*
D40*
X504289Y1294131D02*
D03*
Y1275131D02*
D03*
D65*
X637540Y1441895D02*
X646290Y1450645D01*
X366290Y1335383D02*
Y1375630D01*
X363290Y1378630D02*
X366290Y1375630D01*
X360290D02*
X363290Y1378630D01*
X360290Y1375630D02*
X366290D01*
X339290Y1308383D02*
X366290Y1335383D01*
X339290Y1255765D02*
Y1308383D01*
X630276Y1464615D02*
X632305Y1466643D01*
X624290Y1458628D02*
X630276Y1464615D01*
X646290D01*
X622290Y1458628D02*
X624290D01*
X632305Y1466643D02*
Y1484910D01*
X622790Y1364378D02*
X624790D01*
X637845Y1377433D01*
Y1378435D01*
X639790Y1380380D01*
X622790Y1364378D02*
X623299Y1363869D01*
X645281D01*
X645790Y1363360D01*
X637815Y1341414D02*
X645790Y1349389D01*
X634054Y1341414D02*
X637815D01*
X633480Y1340840D02*
X634054Y1341414D01*
X600790Y1354878D02*
X602790D01*
X612216Y1345452D01*
Y1341204D02*
Y1345452D01*
Y1341204D02*
X612790Y1340630D01*
X646815Y1286230D02*
X647070Y1286485D01*
X667035D01*
X667290Y1286740D01*
X646815Y1286230D02*
Y1297925D01*
X636662Y1308078D02*
X646815Y1297925D01*
X638499Y1246164D02*
X646180Y1253845D01*
X632784Y1246164D02*
X638499D01*
X632210Y1245590D02*
X632784Y1246164D01*
X343290Y1251630D02*
Y1251765D01*
X339290Y1255765D02*
X343290Y1251765D01*
X373870Y1252630D02*
X374040Y1252460D01*
X370290Y1256210D02*
X373870Y1252630D01*
X379425D01*
X370290D02*
X373870D01*
X370290D02*
Y1256210D01*
X362425Y1269630D02*
X379425Y1252630D01*
X349290Y1269630D02*
X362290D01*
X362425D01*
X374040Y1252460D02*
X380060D01*
D66*
X651540Y1336130D02*
X661790D01*
X651540D02*
X652790D01*
X662540Y1335380D02*
X673540D01*
Y1342630D01*
X674540Y1343630D01*
X673290Y1344880D02*
X674540Y1343630D01*
X661790Y1336130D02*
X662540Y1335380D01*
X652790Y1336130D02*
X664290Y1347630D01*
X663040Y1335380D02*
X673792Y1346131D01*
X662540Y1335380D02*
X663040D01*
X673290Y1344880D02*
X674040Y1345630D01*
X673665Y1346005D02*
X674040Y1345630D01*
X673665Y1346005D02*
X673792Y1346131D01*
X708084Y1417836D02*
X715290Y1410630D01*
X704290Y1417836D02*
X708084D01*
X715290Y1345656D02*
X725584D01*
X710277D02*
X715290D01*
X706437Y1376483D02*
X710277Y1372643D01*
X695584Y1417836D02*
X704290D01*
Y1513310D02*
X710610Y1519630D01*
X704290Y1513310D02*
X716970D01*
X694290D02*
X704290D01*
Y1444950D02*
X714610D01*
X694290D02*
X704290D01*
X715290Y1317310D02*
X723290D01*
X703290D02*
X715290D01*
X695290D02*
X703290D01*
X714290Y1252950D02*
X722070D01*
X702290D02*
X714290D01*
X693290D02*
X702290D01*
X656290Y1439880D02*
X667290Y1450880D01*
X656290Y1435630D02*
Y1439880D01*
X667290Y1450880D02*
X678290Y1439880D01*
Y1435630D02*
Y1439880D01*
X667290Y1435630D02*
X678290D01*
X656290D02*
X667290D01*
X673792Y1346131D02*
Y1348630D01*
X672792Y1347630D02*
X673792Y1348630D01*
X664290Y1347630D02*
X672792D01*
X657290Y1243630D02*
X667290Y1253630D01*
Y1255240D02*
X677290Y1245240D01*
X667290Y1243630D02*
X677290D01*
X657290D02*
X667290D01*
X677290D02*
Y1245240D01*
X667290Y1253630D02*
Y1255240D01*
Y1243630D02*
Y1253630D01*
X409290Y1266630D02*
Y1275630D01*
X438830Y1266630D02*
X447560Y1275360D01*
X409290Y1266630D02*
X438830D01*
X447290Y1275630D02*
X447560Y1275360D01*
X409290Y1275630D02*
X447290D01*
X425290Y1455630D02*
X433290Y1447630D01*
X425290Y1441630D02*
X429290Y1445630D01*
X425290Y1441630D02*
Y1455630D01*
X419053Y1444866D02*
X426290Y1437630D01*
X425887Y1437033D02*
X426290Y1436630D01*
X435290Y1445630D02*
Y1456565D01*
X435225Y1456630D02*
X435290Y1456565D01*
X416290Y1437033D02*
Y1440548D01*
X413814Y1443024D02*
X416290Y1440548D01*
Y1437033D02*
X425887D01*
X426290Y1436630D02*
X427290Y1437630D01*
Y1439630D01*
X425290Y1441630D02*
X427290Y1439630D01*
X426290Y1437630D02*
X427290D01*
X419053Y1444866D02*
Y1451960D01*
X416434Y1454580D02*
X419053Y1451960D01*
X429290Y1445630D02*
X435290D01*
X710610Y1519630D02*
X717290D01*
X704290D02*
X710610D01*
X717290Y1513630D02*
Y1519630D01*
Y1496630D02*
Y1513630D01*
X704290Y1513310D02*
Y1519630D01*
Y1493630D02*
Y1513310D01*
X716970D02*
X717290Y1513630D01*
X715290Y1445630D02*
Y1472630D01*
Y1438630D02*
Y1445630D01*
X704290Y1444950D02*
Y1473630D01*
Y1438630D02*
Y1444950D01*
X714610D02*
X715290Y1445630D01*
X719264Y1414604D02*
X725584D01*
X715290Y1410630D02*
X719264Y1414604D01*
X715290Y1410630D02*
Y1420630D01*
Y1391385D02*
Y1410630D01*
X704290Y1417836D02*
Y1420630D01*
Y1392974D02*
Y1417836D01*
X715290Y1367630D02*
Y1375924D01*
X710584Y1380630D02*
X715290Y1375924D01*
X705264Y1345656D02*
X710277D01*
Y1372643D02*
Y1380323D01*
Y1345656D02*
Y1372643D01*
Y1380323D02*
X710584Y1380630D01*
X706437Y1376483D02*
X710277Y1380323D01*
Y1372643D02*
X715290Y1367630D01*
X703290Y1373336D02*
X706437Y1376483D01*
X715290Y1345656D02*
Y1367630D01*
Y1339630D02*
Y1345656D01*
X703290Y1347630D02*
Y1373336D01*
Y1339630D02*
Y1347630D01*
X705264Y1345656D01*
X715290Y1317310D02*
Y1325630D01*
Y1300078D02*
Y1317310D01*
X703290D02*
Y1325630D01*
Y1298078D02*
Y1317310D01*
X693290Y1319310D02*
X695290Y1317310D01*
X714290Y1252950D02*
Y1279630D01*
Y1245630D02*
Y1252950D01*
X702290D02*
Y1279630D01*
Y1245630D02*
Y1252950D01*
X722070D02*
X723290Y1254170D01*
X714290Y1279630D02*
X723290Y1270630D01*
X708290Y1285630D02*
X714290Y1279630D01*
X723290Y1254170D02*
Y1270630D01*
Y1254170D02*
X727290Y1250170D01*
Y1245630D02*
Y1250170D01*
X693290Y1270630D02*
X702290Y1279630D01*
X708290Y1285630D01*
X693290Y1252950D02*
Y1270630D01*
X690290Y1249950D02*
X693290Y1252950D01*
X690290Y1245630D02*
Y1249950D01*
X708290Y1285630D02*
X723290Y1300630D01*
Y1317310D01*
X727290Y1321310D01*
Y1325630D01*
X708290Y1293078D02*
X715290Y1300078D01*
X703290Y1298078D02*
X708290Y1293078D01*
X693290Y1308078D02*
X703290Y1298078D01*
X693290Y1308078D02*
Y1319310D01*
Y1300630D02*
Y1308078D01*
Y1300630D02*
X708290Y1285630D01*
X691290Y1321310D02*
X693290Y1319310D01*
X691290Y1321310D02*
Y1325630D01*
X715290Y1367630D02*
X725584Y1357336D01*
Y1345656D02*
Y1357336D01*
Y1345656D02*
X727290Y1343950D01*
Y1339630D02*
Y1343950D01*
X695584Y1365630D02*
X703290Y1373336D01*
X695584Y1348244D02*
Y1365630D01*
X691290Y1343950D02*
X695584Y1348244D01*
X691290Y1339630D02*
Y1343950D01*
X710584Y1380630D02*
X725584Y1395630D01*
Y1414604D01*
X727290Y1416310D01*
Y1420630D01*
X704290Y1392974D02*
X710584Y1386680D01*
X715290Y1391385D01*
X695584Y1401680D02*
X704290Y1392974D01*
X695584Y1401680D02*
Y1417836D01*
Y1395630D02*
Y1401680D01*
Y1395630D02*
X710584Y1380630D01*
X692790Y1420630D02*
X695584Y1417836D01*
X715290Y1472630D02*
X724290Y1463630D01*
Y1445950D02*
Y1463630D01*
Y1445950D02*
X727290Y1442950D01*
Y1438630D02*
Y1442950D01*
X709290Y1478630D02*
X715290Y1472630D01*
X694290Y1463630D02*
X704290Y1473630D01*
X709290Y1478630D01*
X694290Y1444950D02*
Y1463630D01*
X692290Y1442950D02*
X694290Y1444950D01*
X692290Y1438630D02*
Y1442950D01*
X709290Y1478630D02*
X724290Y1493630D01*
Y1515630D01*
X728290Y1519630D01*
X704290Y1493630D02*
X709290Y1488630D01*
X717290Y1496630D01*
X694290Y1503630D02*
X704290Y1493630D01*
X694290Y1503630D02*
Y1513310D01*
Y1493630D02*
Y1503630D01*
Y1493630D02*
X709290Y1478630D01*
X692290Y1515310D02*
X694290Y1513310D01*
X692290Y1515310D02*
Y1519630D01*
X717290D02*
X728290D01*
X692290D02*
X704290D01*
X715290Y1438630D02*
X727290D01*
X704290D02*
X715290D01*
X692290D02*
X704290D01*
X715290Y1420630D02*
X727290D01*
X704290D02*
X715290D01*
X692790D02*
X704290D01*
X715290Y1339630D02*
X727290D01*
X703290D02*
X715290D01*
X691290D02*
X703290D01*
X714290Y1245630D02*
X727290D01*
X702290D02*
X714290D01*
X690290D02*
X702290D01*
X715290Y1325630D02*
X727290D01*
X703290D02*
X715290D01*
X691290D02*
X703290D01*
X667433Y1505486D02*
X669289Y1503630D01*
X694290D01*
X709290Y1478630D02*
Y1488630D01*
X529290Y1246630D02*
Y1266630D01*
X534290Y1261630D01*
Y1250630D02*
Y1261630D01*
Y1250630D02*
X538290Y1246630D01*
X529290D02*
X538290D01*
X520290D02*
X529290D01*
X524290Y1261630D02*
X529290Y1266630D01*
X524290Y1250630D02*
Y1261630D01*
X520290Y1246630D02*
X524290Y1250630D01*
X368790Y1493918D02*
X373290Y1489418D01*
X364290Y1479630D02*
X373290D01*
X388290Y1466630D02*
X395290Y1459630D01*
X377290Y1466630D02*
X386290D01*
X384763Y1451960D02*
Y1457200D01*
X445290Y1513911D02*
Y1523682D01*
X387290Y1519630D02*
Y1523630D01*
X389290Y1512630D02*
X400290Y1523630D01*
X380290Y1512630D02*
X387290Y1519630D01*
X412317Y1512630D02*
X416029Y1508918D01*
X389290Y1512630D02*
X403002D01*
X369290Y1523630D02*
X380290Y1512630D01*
X357290D02*
X368290Y1523630D01*
X346290Y1512630D02*
X357290Y1523630D01*
X351290Y1471630D02*
X363290Y1459630D01*
X352290Y1292630D02*
X357290Y1297630D01*
X343290Y1454959D02*
Y1471630D01*
X342290Y1453958D02*
X343290Y1454959D01*
Y1471630D02*
X349290D01*
X337290D02*
X343290D01*
Y1454959D02*
X347290Y1458958D01*
X343290Y1453958D02*
Y1454959D01*
X349290Y1471630D02*
X351290D01*
X349290Y1458958D02*
X362618D01*
X347290D02*
X349290D01*
X362618D02*
X363290Y1459630D01*
X343290Y1453958D02*
X344290D01*
X349290Y1458958D01*
Y1471630D01*
X342290Y1453958D02*
X343290D01*
X337290Y1458958D02*
X342290Y1453958D01*
X337290Y1458958D02*
Y1471630D01*
X667290Y1435630D02*
Y1450880D01*
X646275Y1484910D02*
X664510D01*
X667040Y1482380D01*
X667290D01*
X633143Y1505486D02*
X644330Y1494299D01*
Y1486855D02*
Y1494299D01*
Y1486855D02*
X646275Y1484910D01*
X599985Y1468433D02*
X600290Y1468128D01*
X599985Y1468433D02*
Y1497450D01*
X599680Y1497755D02*
X599985Y1497450D01*
X672433Y1401680D02*
X695584D01*
X710584Y1380630D02*
Y1386680D01*
X653760Y1380380D02*
X653885Y1380255D01*
X673667D01*
X673792Y1380130D01*
X651815Y1382325D02*
X653760Y1380380D01*
X651815Y1382325D02*
Y1388007D01*
X638143Y1401680D02*
X651815Y1388007D01*
X600245Y1374423D02*
X600790Y1373878D01*
X600245Y1374423D02*
Y1390460D01*
X599701Y1391005D02*
X600245Y1390460D01*
X670953Y1308078D02*
X693290D01*
X708290Y1285630D02*
Y1293078D01*
X622224Y1260828D02*
X624224D01*
X631210Y1267815D01*
X646180D01*
X622224Y1260828D02*
Y1275609D01*
X632845Y1286230D01*
X600224Y1270328D02*
X600342Y1270447D01*
Y1296906D01*
X600460Y1297025D01*
X578275Y1333630D02*
X581290D01*
X591290Y1323630D01*
X357290Y1297630D02*
X363290D01*
X352290Y1292630D02*
Y1300630D01*
Y1301630D02*
X358290Y1307630D01*
X352290Y1300630D02*
Y1301630D01*
X354290Y1292630D02*
X359290Y1287630D01*
X352290Y1292630D02*
X354290D01*
X362680Y1287630D02*
X373310Y1298260D01*
X359290Y1287630D02*
X362680D01*
X373310Y1298260D02*
X380060D01*
X363940Y1307630D02*
X373310Y1298260D01*
X358290Y1307630D02*
X363940D01*
X445290Y1523682D02*
X445342Y1523630D01*
X445027Y1523946D02*
X445290Y1523682D01*
Y1513911D02*
X446930Y1512270D01*
X454290Y1523630D02*
X459290Y1518630D01*
X445342Y1523630D02*
X454290D01*
X425473Y1523946D02*
X445027D01*
X345290Y1511630D02*
X346290Y1512630D01*
X357290D01*
X345290D02*
X346290D01*
X344290Y1511630D02*
X345290Y1512630D01*
X344290Y1511630D02*
X345290D01*
X344290D02*
Y1523630D01*
X357290D01*
Y1512630D02*
Y1523630D01*
X368290D01*
X400290D02*
X414002D01*
X387290D02*
X400290D01*
X380290Y1512630D02*
X389290D01*
X403002D02*
X412317D01*
X403002D02*
X409146Y1518774D01*
X399290Y1508918D02*
X403002Y1512630D01*
X380290Y1523630D02*
X387290D01*
X419072Y1517544D02*
X425158Y1523630D01*
X414002D02*
X414318Y1523946D01*
X409146Y1518774D02*
X414002Y1523630D01*
X425158D01*
X425473Y1523946D01*
X380290Y1512630D02*
Y1523630D01*
X368290D02*
X369290D01*
X380290D01*
X368290Y1512630D02*
X380290D01*
X357290D02*
X368290D01*
X414318Y1523946D02*
X425473D01*
X419072Y1511961D02*
Y1517544D01*
X412258Y1518774D02*
X419072Y1511961D01*
X409146Y1518774D02*
X412258D01*
X399290Y1508918D02*
Y1508918D01*
X419077Y1493945D02*
X422762Y1497630D01*
X429290D01*
X372290Y1493918D02*
X376250D01*
X380750Y1489418D01*
Y1481958D02*
Y1489418D01*
Y1481958D02*
X382290Y1480418D01*
Y1479630D02*
Y1480418D01*
X368790Y1493918D02*
X372290D01*
X368790D02*
X368790D01*
X373290Y1479630D02*
Y1489418D01*
X364290D02*
X368790Y1493918D01*
X364290Y1479630D02*
Y1489418D01*
X373290Y1479630D02*
X382290D01*
X384763Y1457200D02*
X390004D01*
X392433Y1459630D01*
X395290D01*
X382144Y1454580D02*
X384763Y1451960D01*
X392960D01*
X395290Y1449630D01*
Y1459630D01*
X386290Y1466630D02*
X388290D01*
X419053Y1463630D02*
Y1477200D01*
Y1457200D02*
Y1463630D01*
X424290Y1456630D02*
X425290Y1455630D01*
X419053Y1456630D02*
Y1457200D01*
Y1456630D02*
X424290D01*
X413814Y1451960D02*
X416434Y1454580D01*
X413814Y1443024D02*
Y1451960D01*
X416434Y1454580D02*
X419053Y1457200D01*
X419077Y1477224D02*
Y1479975D01*
X419053Y1477200D02*
X419077Y1477224D01*
X399290Y1478918D02*
X418020D01*
X419077Y1479975D01*
X397290Y1493918D02*
X419050D01*
X419077Y1493945D01*
X399290Y1508918D02*
X416029D01*
X419072Y1511961D01*
D67*
X459290Y1375130D02*
X459703D01*
X474650Y1360183D01*
X450040Y1361537D02*
X458267Y1353310D01*
X450040Y1361537D02*
Y1374130D01*
X483122Y1445485D02*
X484277Y1446640D01*
X483122Y1442298D02*
Y1445485D01*
X483033Y1442209D02*
X483122Y1442298D01*
X567775Y1424380D02*
X578249D01*
X580249Y1422380D01*
X580790D01*
X483033Y1432147D02*
Y1442209D01*
X555808Y1355445D02*
X582680D01*
X550872Y1360380D02*
X555808Y1355445D01*
X549790Y1360380D02*
X550872D01*
X490470Y1333374D02*
Y1345584D01*
X490008Y1332912D02*
X490470Y1333374D01*
X544845Y1318060D02*
X547290Y1315615D01*
X544845Y1318060D02*
Y1323993D01*
X543290Y1325548D02*
X544845Y1323993D01*
X543290Y1325548D02*
Y1326630D01*
X529290Y1315615D02*
X530525Y1316849D01*
Y1325865D01*
X531290Y1326630D01*
X459540Y1364630D02*
X466650Y1357520D01*
X458267Y1346147D02*
Y1353310D01*
Y1346147D02*
X458650Y1345764D01*
X474650D02*
Y1360183D01*
X442020Y1316630D02*
X442290D01*
X424357Y1408697D02*
X435583D01*
X416290Y1400630D02*
X424357Y1408697D01*
X398275Y1433630D02*
X398290Y1433615D01*
X383970Y1433630D02*
X398275D01*
X366290Y1426430D02*
X376770D01*
X383970Y1433630D01*
X398290Y1402625D02*
Y1419645D01*
Y1402625D02*
X405913Y1410247D01*
X411907D01*
X412290Y1410630D01*
X489627Y1313630D02*
X492305D01*
X471673Y1331584D02*
X489627Y1313630D01*
X471673Y1331584D02*
Y1332247D01*
X471290Y1332630D02*
X471673Y1332247D01*
X466650Y1345764D02*
Y1357520D01*
X458650Y1345764D02*
X459033Y1345381D01*
X474267D02*
X474650Y1345764D01*
X471290Y1332630D02*
Y1333171D01*
X490470Y1345584D02*
X490650Y1345764D01*
X498650D02*
X498720Y1345694D01*
Y1326200D02*
Y1345694D01*
Y1326200D02*
X498790Y1326130D01*
X490267Y1424218D02*
Y1427800D01*
X482650Y1431764D02*
X483033Y1432147D01*
X466595Y1431819D02*
X466650Y1431764D01*
X466595Y1431819D02*
Y1445325D01*
X466540Y1445380D02*
X466595Y1445325D01*
X430290Y1328360D02*
Y1329630D01*
Y1328360D02*
X442020Y1316630D01*
X435583Y1408697D02*
X435650Y1408764D01*
X485773Y1419724D02*
X490267Y1424218D01*
X479527Y1419724D02*
X485773D01*
X475033Y1424218D02*
X479527Y1419724D01*
X474650Y1431764D02*
X475033Y1431381D01*
Y1424218D02*
Y1431381D01*
D68*
X410290Y1376630D02*
X422290D01*
X380290Y1346630D02*
X410290Y1376630D01*
X380290Y1329630D02*
Y1346630D01*
X565620Y1413460D02*
X591215D01*
X550790Y1398630D02*
X565620Y1413460D01*
X550790Y1393948D02*
Y1398630D01*
X406290Y1285630D02*
Y1313259D01*
X420290Y1327258D01*
X518790Y1294130D02*
X526290Y1286630D01*
X539290D01*
X551121Y1274799D01*
X582680D01*
X518790Y1294130D02*
Y1349130D01*
X491330Y1428863D02*
Y1442109D01*
X528680Y1416190D02*
X532540Y1412330D01*
X463290Y1382630D02*
X483290Y1362630D01*
X452290Y1382630D02*
X463290D01*
X442156Y1392764D02*
X452290Y1382630D01*
X435650Y1392764D02*
X442156D01*
X483290Y1362630D02*
X505328D01*
X518809Y1349149D01*
X518790Y1349130D02*
X518809Y1349149D01*
X550290Y1498669D02*
X573251Y1521630D01*
X550290Y1491924D02*
Y1498669D01*
X499290Y1440924D02*
X550290Y1491924D01*
X499290Y1437630D02*
Y1440924D01*
X573251Y1521630D02*
X589775D01*
X516040Y1441870D02*
X555290Y1481120D01*
X516040Y1426698D02*
Y1441870D01*
X503026Y1413684D02*
X516040Y1426698D01*
X553680Y1424505D02*
X553805Y1424380D01*
X542415Y1424505D02*
X553680D01*
X542290Y1424630D02*
X542415Y1424505D01*
X481290Y1332630D02*
Y1333442D01*
X482076Y1334228D01*
Y1345190D01*
X482650Y1345764D01*
X398290Y1388655D02*
X407453D01*
X408478Y1387630D01*
X409290D01*
X416424Y1368764D02*
X435650D01*
X390290Y1342630D02*
X416424Y1368764D01*
X466707Y1490505D02*
X467707Y1489505D01*
X589775Y1521630D02*
X599680Y1511725D01*
X475095Y1444935D02*
X475540Y1445380D01*
X504289Y1294131D02*
X506275Y1296116D01*
X506250Y1322630D02*
Y1345364D01*
X506275Y1313630D02*
Y1322605D01*
X506250Y1322630D02*
X506275Y1322605D01*
X490267Y1427800D02*
X491330Y1428863D01*
Y1442109D02*
X493290Y1444068D01*
Y1444880D01*
X474650Y1431764D02*
X475095Y1432209D01*
Y1444935D01*
X420290Y1327258D02*
Y1329630D01*
X410290D02*
Y1332002D01*
X424053Y1345764D01*
X450650D01*
X400290Y1329630D02*
Y1338630D01*
X422290Y1360630D01*
X435516D02*
X435650Y1360764D01*
X422290Y1360630D02*
X435516D01*
X390290Y1329630D02*
Y1342630D01*
X531424Y1392764D02*
X552805Y1414145D01*
X521650Y1392764D02*
X531424D01*
X552805Y1414145D02*
Y1423380D01*
X532540Y1412330D02*
Y1442380D01*
Y1412330D02*
X533190Y1411680D01*
X521650Y1416764D02*
X522224Y1416190D01*
X528680D01*
X533190Y1405848D02*
Y1411680D01*
X528680Y1401338D02*
X533190Y1405848D01*
X522224Y1401338D02*
X528680D01*
X521650Y1400764D02*
X522224Y1401338D01*
X499224Y1437564D02*
X499290Y1437630D01*
X499224Y1432338D02*
Y1437564D01*
X498650Y1431764D02*
X499224Y1432338D01*
X575331Y1376764D02*
X582680Y1369415D01*
X521650Y1376764D02*
X575331D01*
X521650Y1384764D02*
X521925Y1385039D01*
X541881D01*
X529180Y1368190D02*
X552990Y1344380D01*
X522224Y1368190D02*
X529180D01*
X521650Y1368764D02*
X522224Y1368190D01*
X521650Y1360764D02*
X526476D01*
X466445Y1413684D02*
X503026D01*
X463365Y1416764D02*
X466445Y1413684D01*
X435650Y1416764D02*
X463365D01*
X552805Y1423380D02*
X553805Y1424380D01*
X526476Y1360764D02*
X554860Y1332380D01*
X563805D01*
X506250Y1345364D02*
X506650Y1345764D01*
X552990Y1344380D02*
X589790D01*
X600460Y1310995D02*
Y1333710D01*
X589790Y1344380D02*
X600460Y1333710D01*
X541881Y1385039D02*
X550790Y1393948D01*
X591215Y1413460D02*
X599701Y1404975D01*
X565120Y1481120D02*
X581755Y1497755D01*
X555290Y1481120D02*
X565120D01*
D69*
X426160Y1463630D02*
X433159Y1456630D01*
X419053Y1463630D02*
X426160D01*
X504289Y1275131D02*
X504290Y1275130D01*
Y1246630D02*
Y1275130D01*
X598290Y1449128D02*
X600290D01*
X590366Y1441204D02*
X598290Y1449128D01*
X585864Y1441204D02*
X590366D01*
X585290Y1440630D02*
X585864Y1441204D01*
X571864D02*
Y1451399D01*
X571290Y1440630D02*
X571864Y1441204D01*
Y1451399D02*
X582660Y1462195D01*
Y1476165D02*
Y1497755D01*
X580715Y1509780D02*
X582660Y1511725D01*
X571940Y1509780D02*
X580715D01*
X563864Y1501704D02*
X571940Y1509780D01*
X563290Y1494630D02*
X563864Y1495204D01*
Y1501704D01*
X582680Y1369415D02*
Y1391005D01*
X569635Y1404975D02*
X582680D01*
X563364Y1398704D02*
X569635Y1404975D01*
X562790Y1388380D02*
X563364Y1388954D01*
Y1398704D01*
X565364Y1293704D02*
Y1297704D01*
X565290Y1293630D02*
X565364Y1293704D01*
X571864Y1250013D02*
X582680Y1260829D01*
X571864Y1248204D02*
Y1250013D01*
X571290Y1247630D02*
X571864Y1248204D01*
X597724Y1248828D02*
X600224Y1251328D01*
X586300Y1248828D02*
X597724D01*
X585102Y1247630D02*
X586300Y1248828D01*
X584290Y1247630D02*
X585102D01*
X582735Y1292340D02*
X582790Y1292395D01*
X582735Y1274854D02*
Y1292340D01*
X582680Y1274799D02*
X582735Y1274854D01*
X580845Y1304420D02*
X582790Y1306365D01*
X572080Y1304420D02*
X580845D01*
X565364Y1297704D02*
X572080Y1304420D01*
X564305Y1307645D02*
Y1333630D01*
X558305Y1301645D02*
X564305Y1307645D01*
X529290Y1301645D02*
X547290D01*
X558305D01*
X366090Y1400830D02*
X366290Y1401030D01*
X345490Y1400830D02*
X366090D01*
X345290Y1400630D02*
X345490Y1400830D01*
X433042Y1511961D02*
X438099Y1506903D01*
Y1503821D02*
Y1506903D01*
Y1503821D02*
X438290Y1503630D01*
X506275Y1296116D02*
Y1313630D01*
D70*
X637540Y1441895D02*
D03*
X651540Y1336130D02*
D03*
X673540Y1335380D02*
D03*
X662540D02*
D03*
X677290Y1243630D02*
D03*
X657290D02*
D03*
X678290Y1435630D02*
D03*
X656290D02*
D03*
X409290Y1266630D02*
D03*
Y1275630D02*
D03*
X416290Y1437033D02*
D03*
X427290Y1437630D02*
D03*
X435290Y1445630D02*
D03*
X435225Y1456630D02*
D03*
X690290Y1245630D02*
D03*
X702290D02*
D03*
X714290D02*
D03*
X727290D02*
D03*
Y1325630D02*
D03*
X715290D02*
D03*
X703290D02*
D03*
X715290Y1339630D02*
D03*
X727290D02*
D03*
X703290D02*
D03*
X691290D02*
D03*
X715290Y1420630D02*
D03*
X727290D02*
D03*
X704290D02*
D03*
X727290Y1438630D02*
D03*
X715290D02*
D03*
X704290D02*
D03*
X692290D02*
D03*
X728290Y1519630D02*
D03*
X717290D02*
D03*
X704290D02*
D03*
X335290Y1436630D02*
D03*
X348290D02*
D03*
X363290Y1445630D02*
D03*
Y1459630D02*
D03*
X349290Y1471630D02*
D03*
X337290D02*
D03*
X458291Y1402342D02*
D03*
X458290Y1391630D02*
D03*
X547290Y1508630D02*
D03*
Y1519630D02*
D03*
X639830Y1419580D02*
D03*
X627130D02*
D03*
X565290Y1293630D02*
D03*
X547290Y1255630D02*
D03*
X584290Y1247630D02*
D03*
X543290Y1326630D02*
D03*
X531290D02*
D03*
X355290Y1251630D02*
D03*
X343290D02*
D03*
X362290Y1269630D02*
D03*
X349290D02*
D03*
X345290Y1400630D02*
D03*
X571290Y1440630D02*
D03*
X532540Y1442380D02*
D03*
X547290Y1266630D02*
D03*
X591290Y1323630D02*
D03*
X667290Y1435630D02*
D03*
Y1243630D02*
D03*
X571290Y1247630D02*
D03*
X563290Y1494630D02*
D03*
X692290Y1519630D02*
D03*
X585290Y1440630D02*
D03*
X638540Y1522330D02*
D03*
X625840D02*
D03*
X613140D02*
D03*
X549790Y1360380D02*
D03*
X612790Y1340630D02*
D03*
X633480Y1340840D02*
D03*
X562790Y1388380D02*
D03*
X614430Y1419580D02*
D03*
X692790Y1420630D02*
D03*
X636020Y1324330D02*
D03*
X625860D02*
D03*
X614430D02*
D03*
X632210Y1245590D02*
D03*
X691290Y1325630D02*
D03*
D71*
X551540Y1291130D02*
D03*
X549290Y1460630D02*
D03*
X550540Y1384130D02*
D03*
X673540Y1324880D02*
D03*
X663040Y1325130D02*
D03*
X652790Y1324880D02*
D03*
D72*
X677290Y1524630D02*
D03*
X665540Y1524380D02*
D03*
X654540D02*
D03*
X677520Y1423130D02*
D03*
X666270D02*
D03*
X656540Y1423380D02*
D03*
X618540Y1441880D02*
D03*
X410290Y1425130D02*
D03*
X348040Y1340130D02*
D03*
X340290Y1340630D02*
D03*
X332790D02*
D03*
X340290Y1348130D02*
D03*
X332790D02*
D03*
X347790D02*
D03*
Y1355630D02*
D03*
X340290D02*
D03*
X332540Y1355880D02*
D03*
X459290Y1375130D02*
D03*
X450040Y1374130D02*
D03*
X484277Y1446640D02*
D03*
X400290Y1270630D02*
D03*
X406290Y1285630D02*
D03*
X437290Y1486630D02*
D03*
X504290Y1246630D02*
D03*
X520290D02*
D03*
X490008Y1332912D02*
D03*
X538290Y1246630D02*
D03*
X529290D02*
D03*
X459540Y1364630D02*
D03*
X442290Y1316630D02*
D03*
X453013Y1316353D02*
D03*
X416290Y1400630D02*
D03*
X358290Y1307630D02*
D03*
X359290Y1287630D02*
D03*
X352290Y1300630D02*
D03*
Y1292630D02*
D03*
X378290Y1284630D02*
D03*
X402290Y1248630D02*
D03*
Y1257630D02*
D03*
X392290Y1284630D02*
D03*
X388290Y1384630D02*
D03*
X422290Y1376630D02*
D03*
X409290Y1387630D02*
D03*
X344290Y1523630D02*
D03*
Y1511630D02*
D03*
X357290Y1523630D02*
D03*
X380290D02*
D03*
X368290D02*
D03*
X380290Y1512630D02*
D03*
X368290D02*
D03*
X357290D02*
D03*
X395290Y1459630D02*
D03*
X386290Y1466630D02*
D03*
X377290D02*
D03*
X382290Y1479630D02*
D03*
X373290D02*
D03*
X364290D02*
D03*
X438290Y1503630D02*
D03*
X429290Y1497630D02*
D03*
X412290Y1410630D02*
D03*
X475540Y1445380D02*
D03*
X542290Y1424630D02*
D03*
X493290Y1444880D02*
D03*
X471290Y1332630D02*
D03*
X481290D02*
D03*
X466540Y1445380D02*
D03*
X580790Y1422380D02*
D03*
X498790Y1326130D02*
D03*
M02*
