G04*
G04 #@! TF.GenerationSoftware,Altium Limited,Altium Designer,20.0.2 (26)*
G04*
G04 Layer_Color=128*
%FSLAX44Y44*%
%MOMM*%
G71*
G01*
G75*
D87*
X635540Y1441895D02*
X639540D01*
X637540Y1439895D02*
Y1443895D01*
X550540Y1291130D02*
X552540D01*
X551540Y1290130D02*
Y1292130D01*
X548290Y1460630D02*
X550290D01*
X549290Y1459630D02*
Y1461630D01*
X549540Y1384130D02*
X551540D01*
X550540Y1383130D02*
Y1385130D01*
X672540Y1324880D02*
X674540D01*
X673540Y1323880D02*
Y1325880D01*
X662040Y1325130D02*
X664040D01*
X663040Y1324130D02*
Y1326130D01*
X651790Y1324880D02*
X653790D01*
X652790Y1323880D02*
Y1325880D01*
X649540Y1336130D02*
X653540D01*
X651540Y1334130D02*
Y1338130D01*
X671540Y1335380D02*
X675540D01*
X673540Y1333380D02*
Y1337380D01*
X660540Y1335380D02*
X664540D01*
X662540Y1333380D02*
Y1337380D01*
X675790Y1524630D02*
X678790D01*
X677290Y1523130D02*
Y1526130D01*
X664040Y1524380D02*
X667040D01*
X665540Y1522880D02*
Y1525880D01*
X653040Y1524380D02*
X656040D01*
X654540Y1522880D02*
Y1525880D01*
X676020Y1423130D02*
X679020D01*
X677520Y1421630D02*
Y1424630D01*
X664770Y1423130D02*
X667770D01*
X666270Y1421630D02*
Y1424630D01*
X655040Y1423380D02*
X658040D01*
X656540Y1421880D02*
Y1424880D01*
X617040Y1441880D02*
X620040D01*
X618540Y1440380D02*
Y1443380D01*
X408790Y1425130D02*
X411790D01*
X410290Y1423630D02*
Y1426630D01*
X346540Y1340130D02*
X349540D01*
X348040Y1338630D02*
Y1341630D01*
X338790Y1340630D02*
X341790D01*
X340290Y1339130D02*
Y1342130D01*
X331290Y1340630D02*
X334290D01*
X332790Y1339130D02*
Y1342130D01*
X338790Y1348130D02*
X341790D01*
X340290Y1346630D02*
Y1349630D01*
X331290Y1348130D02*
X334290D01*
X332790Y1346630D02*
Y1349630D01*
X346290Y1348130D02*
X349290D01*
X347790Y1346630D02*
Y1349630D01*
X346290Y1355630D02*
X349290D01*
X347790Y1354130D02*
Y1357130D01*
X338790Y1355630D02*
X341790D01*
X340290Y1354130D02*
Y1357130D01*
X331040Y1355880D02*
X334040D01*
X332540Y1354380D02*
Y1357380D01*
X457790Y1375130D02*
X460790D01*
X459290Y1373630D02*
Y1376630D01*
X448540Y1374130D02*
X451540D01*
X450040Y1372630D02*
Y1375630D01*
X482777Y1446640D02*
X485778D01*
X484277Y1445141D02*
Y1448141D01*
X675290Y1243630D02*
X679290D01*
X677290Y1241630D02*
Y1245630D01*
X655290Y1243630D02*
X659290D01*
X657290Y1241630D02*
Y1245630D01*
X676290Y1435630D02*
X680290D01*
X678290Y1433630D02*
Y1437630D01*
X654290Y1435630D02*
X658290D01*
X656290Y1433630D02*
Y1437630D01*
X398790Y1270630D02*
X401790D01*
X400290Y1269130D02*
Y1272130D01*
X407290Y1266630D02*
X411290D01*
X409290Y1264630D02*
Y1268630D01*
X407290Y1275630D02*
X411290D01*
X409290Y1273630D02*
Y1277630D01*
X404790Y1285630D02*
X407790D01*
X406290Y1284130D02*
Y1287130D01*
X435790Y1486630D02*
X438790D01*
X437290Y1485130D02*
Y1488130D01*
X414290Y1437033D02*
X418290D01*
X416290Y1435033D02*
Y1439033D01*
X425290Y1437630D02*
X429290D01*
X427290Y1435630D02*
Y1439630D01*
X433290Y1445630D02*
X437290D01*
X435290Y1443630D02*
Y1447630D01*
X433225Y1456630D02*
X437225D01*
X435225Y1454630D02*
Y1458630D01*
X688290Y1245630D02*
X692290D01*
X690290Y1243630D02*
Y1247630D01*
X700290Y1245630D02*
X704290D01*
X702290Y1243630D02*
Y1247630D01*
X712290Y1245630D02*
X716290D01*
X714290Y1243630D02*
Y1247630D01*
X725290Y1245630D02*
X729290D01*
X727290Y1243630D02*
Y1247630D01*
X725290Y1325630D02*
X729290D01*
X727290Y1323630D02*
Y1327630D01*
X713290Y1325630D02*
X717290D01*
X715290Y1323630D02*
Y1327630D01*
X701290Y1325630D02*
X705290D01*
X703290Y1323630D02*
Y1327630D01*
X713290Y1339630D02*
X717290D01*
X715290Y1337630D02*
Y1341630D01*
X725290Y1339630D02*
X729290D01*
X727290Y1337630D02*
Y1341630D01*
X701290Y1339630D02*
X705290D01*
X703290Y1337630D02*
Y1341630D01*
X689290Y1339630D02*
X693290D01*
X691290Y1337630D02*
Y1341630D01*
X713290Y1420630D02*
X717290D01*
X715290Y1418630D02*
Y1422630D01*
X725290Y1420630D02*
X729290D01*
X727290Y1418630D02*
Y1422630D01*
X702290Y1420630D02*
X706290D01*
X704290Y1418630D02*
Y1422630D01*
X725290Y1438630D02*
X729290D01*
X727290Y1436630D02*
Y1440630D01*
X713290Y1438630D02*
X717290D01*
X715290Y1436630D02*
Y1440630D01*
X702290Y1438630D02*
X706290D01*
X704290Y1436630D02*
Y1440630D01*
X690290Y1438630D02*
X694290D01*
X692290Y1436630D02*
Y1440630D01*
X726290Y1519630D02*
X730290D01*
X728290Y1517630D02*
Y1521630D01*
X715290Y1519630D02*
X719290D01*
X717290Y1517630D02*
Y1521630D01*
X702290Y1519630D02*
X706290D01*
X704290Y1517630D02*
Y1521630D01*
X502790Y1246630D02*
X505790D01*
X504290Y1245130D02*
Y1248130D01*
X518790Y1246630D02*
X521790D01*
X520290Y1245130D02*
Y1248130D01*
X333290Y1436630D02*
X337290D01*
X335290Y1434630D02*
Y1438630D01*
X346290Y1436630D02*
X350290D01*
X348290Y1434630D02*
Y1438630D01*
X361290Y1445630D02*
X365290D01*
X363290Y1443630D02*
Y1447630D01*
X361290Y1459630D02*
X365290D01*
X363290Y1457630D02*
Y1461630D01*
X347290Y1471630D02*
X351290D01*
X349290Y1469630D02*
Y1473630D01*
X335290Y1471630D02*
X339290D01*
X337290Y1469630D02*
Y1473630D01*
X456291Y1402342D02*
X460291D01*
X458291Y1400342D02*
Y1404342D01*
X456290Y1391630D02*
X460290D01*
X458290Y1389630D02*
Y1393630D01*
X545290Y1508630D02*
X549290D01*
X547290Y1506630D02*
Y1510630D01*
X545290Y1519630D02*
X549290D01*
X547290Y1517630D02*
Y1521630D01*
X637830Y1419580D02*
X641830D01*
X639830Y1417580D02*
Y1421580D01*
X625130Y1419580D02*
X629130D01*
X627130Y1417580D02*
Y1421580D01*
X563290Y1293630D02*
X567290D01*
X565290Y1291630D02*
Y1295630D01*
X545290Y1255630D02*
X549290D01*
X547290Y1253630D02*
Y1257630D01*
X582290Y1247630D02*
X586290D01*
X584290Y1245630D02*
Y1249630D01*
X488508Y1332912D02*
X491508D01*
X490008Y1331412D02*
Y1334412D01*
X541290Y1326630D02*
X545290D01*
X543290Y1324630D02*
Y1328630D01*
X529290Y1326630D02*
X533290D01*
X531290Y1324630D02*
Y1328630D01*
X536790Y1246630D02*
X539790D01*
X538290Y1245130D02*
Y1248130D01*
X527790Y1246630D02*
X530790D01*
X529290Y1245130D02*
Y1248130D01*
X458040Y1364630D02*
X461040D01*
X459540Y1363130D02*
Y1366130D01*
X440790Y1316630D02*
X443790D01*
X442290Y1315130D02*
Y1318130D01*
X451512Y1316353D02*
X454512D01*
X453013Y1314852D02*
Y1317852D01*
X414790Y1400630D02*
X417790D01*
X416290Y1399130D02*
Y1402130D01*
X356790Y1307630D02*
X359790D01*
X358290Y1306130D02*
Y1309130D01*
X357790Y1287630D02*
X360790D01*
X359290Y1286130D02*
Y1289130D01*
X350790Y1300630D02*
X353790D01*
X352290Y1299130D02*
Y1302130D01*
X350790Y1292630D02*
X353790D01*
X352290Y1291130D02*
Y1294130D01*
X376790Y1284630D02*
X379790D01*
X378290Y1283130D02*
Y1286130D01*
X400790Y1248630D02*
X403790D01*
X402290Y1247130D02*
Y1250130D01*
X400790Y1257630D02*
X403790D01*
X402290Y1256130D02*
Y1259130D01*
X390790Y1284630D02*
X393790D01*
X392290Y1283130D02*
Y1286130D01*
X386790Y1384630D02*
X389790D01*
X388290Y1383130D02*
Y1386130D01*
X420790Y1376630D02*
X423790D01*
X422290Y1375130D02*
Y1378130D01*
X407790Y1387630D02*
X410790D01*
X409290Y1386130D02*
Y1389130D01*
X353290Y1251630D02*
X357290D01*
X355290Y1249630D02*
Y1253630D01*
X341290Y1251630D02*
X345290D01*
X343290Y1249630D02*
Y1253630D01*
X360290Y1269630D02*
X364290D01*
X362290Y1267630D02*
Y1271630D01*
X347290Y1269630D02*
X351290D01*
X349290Y1267630D02*
Y1271630D01*
X343290Y1400630D02*
X347290D01*
X345290Y1398630D02*
Y1402630D01*
X342790Y1523630D02*
X345790D01*
X344290Y1522130D02*
Y1525130D01*
X342790Y1511630D02*
X345790D01*
X344290Y1510130D02*
Y1513130D01*
X355790Y1523630D02*
X358790D01*
X357290Y1522130D02*
Y1525130D01*
X378790Y1523630D02*
X381790D01*
X380290Y1522130D02*
Y1525130D01*
X366790Y1523630D02*
X369790D01*
X368290Y1522130D02*
Y1525130D01*
X378790Y1512630D02*
X381790D01*
X380290Y1511130D02*
Y1514130D01*
X366790Y1512630D02*
X369790D01*
X368290Y1511130D02*
Y1514130D01*
X355790Y1512630D02*
X358790D01*
X357290Y1511130D02*
Y1514130D01*
X393790Y1459630D02*
X396790D01*
X395290Y1458130D02*
Y1461130D01*
X384790Y1466630D02*
X387790D01*
X386290Y1465130D02*
Y1468130D01*
X375790Y1466630D02*
X378790D01*
X377290Y1465130D02*
Y1468130D01*
X380790Y1479630D02*
X383790D01*
X382290Y1478130D02*
Y1481130D01*
X371790Y1479630D02*
X374790D01*
X373290Y1478130D02*
Y1481130D01*
X362790Y1479630D02*
X365790D01*
X364290Y1478130D02*
Y1481130D01*
X436790Y1503630D02*
X439790D01*
X438290Y1502130D02*
Y1505130D01*
X427790Y1497630D02*
X430790D01*
X429290Y1496130D02*
Y1499130D01*
X410790Y1410630D02*
X413790D01*
X412290Y1409130D02*
Y1412130D01*
X474040Y1445380D02*
X477040D01*
X475540Y1443880D02*
Y1446880D01*
X540790Y1424630D02*
X543790D01*
X542290Y1423130D02*
Y1426130D01*
X569290Y1440630D02*
X573290D01*
X571290Y1438630D02*
Y1442630D01*
X530540Y1442380D02*
X534540D01*
X532540Y1440380D02*
Y1444380D01*
X491790Y1444880D02*
X494790D01*
X493290Y1443380D02*
Y1446380D01*
X469790Y1332630D02*
X472790D01*
X471290Y1331130D02*
Y1334130D01*
X479790Y1332630D02*
X482790D01*
X481290Y1331130D02*
Y1334130D01*
X465040Y1445380D02*
X468040D01*
X466540Y1443880D02*
Y1446880D01*
X579290Y1422380D02*
X582290D01*
X580790Y1420880D02*
Y1423880D01*
X497290Y1326130D02*
X500290D01*
X498790Y1324630D02*
Y1327630D01*
X545290Y1266630D02*
X549290D01*
X547290Y1264630D02*
Y1268630D01*
X589290Y1323630D02*
X593290D01*
X591290Y1321630D02*
Y1325630D01*
X665290Y1435630D02*
X669290D01*
X667290Y1433630D02*
Y1437630D01*
X665290Y1243630D02*
X669290D01*
X667290Y1241630D02*
Y1245630D01*
X569290Y1247630D02*
X573290D01*
X571290Y1245630D02*
Y1249630D01*
X561290Y1494630D02*
X565290D01*
X563290Y1492630D02*
Y1496630D01*
X690290Y1519630D02*
X694290D01*
X692290Y1517630D02*
Y1521630D01*
X583290Y1440630D02*
X587290D01*
X585290Y1438630D02*
Y1442630D01*
X636540Y1522330D02*
X640540D01*
X638540Y1520330D02*
Y1524330D01*
X623840Y1522330D02*
X627840D01*
X625840Y1520330D02*
Y1524330D01*
X611140Y1522330D02*
X615140D01*
X613140Y1520330D02*
Y1524330D01*
X547790Y1360380D02*
X551790D01*
X549790Y1358380D02*
Y1362380D01*
X610790Y1340630D02*
X614790D01*
X612790Y1338630D02*
Y1342630D01*
X631480Y1340840D02*
X635480D01*
X633480Y1338840D02*
Y1342840D01*
X560790Y1388380D02*
X564790D01*
X562790Y1386380D02*
Y1390380D01*
X612430Y1419580D02*
X616430D01*
X614430Y1417580D02*
Y1421580D01*
X690790Y1420630D02*
X694790D01*
X692790Y1418630D02*
Y1422630D01*
X634020Y1324330D02*
X638020D01*
X636020Y1322330D02*
Y1326330D01*
X623860Y1324330D02*
X627860D01*
X625860Y1322330D02*
Y1326330D01*
X612430Y1324330D02*
X616430D01*
X614430Y1322330D02*
Y1326330D01*
X630210Y1245590D02*
X634210D01*
X632210Y1243590D02*
Y1247590D01*
X689290Y1325630D02*
X693290D01*
X691290Y1323630D02*
Y1327630D01*
M02*
