G04*
G04 #@! TF.GenerationSoftware,Altium Limited,Altium Designer,20.0.2 (26)*
G04*
G04 Layer_Physical_Order=2*
G04 Layer_Color=32768*
%FSLAX44Y44*%
%MOMM*%
G71*
G01*
G75*
D69*
X437290Y1469630D02*
Y1479630D01*
Y1469630D02*
X450290Y1459630D01*
X522290D01*
Y1503630D01*
X451290D02*
X522290D01*
X437290Y1492630D02*
X451290Y1503630D01*
D73*
X320290Y1535430D02*
X320290Y1230630D01*
X320290Y1535430D02*
X739410Y1535430D01*
X739410Y1230630D01*
X320290Y1230630D02*
X739410Y1230630D01*
D74*
X637540Y1441895D02*
D03*
X651540Y1336130D02*
D03*
X673540Y1335380D02*
D03*
X662540D02*
D03*
X677290Y1243630D02*
D03*
X657290D02*
D03*
X678290Y1435630D02*
D03*
X656290D02*
D03*
X416290Y1437033D02*
D03*
X427290Y1437630D02*
D03*
X435290Y1445630D02*
D03*
X435225Y1456630D02*
D03*
X690290Y1245630D02*
D03*
X702290D02*
D03*
X714290D02*
D03*
X727290D02*
D03*
Y1325630D02*
D03*
X715290D02*
D03*
X703290D02*
D03*
X715290Y1339630D02*
D03*
X727290D02*
D03*
X703290D02*
D03*
X691290D02*
D03*
X715290Y1420630D02*
D03*
X727290D02*
D03*
X704290D02*
D03*
X727290Y1438630D02*
D03*
X715290D02*
D03*
X704290D02*
D03*
X692290D02*
D03*
X728290Y1519630D02*
D03*
X717290D02*
D03*
X704290D02*
D03*
X363290Y1459630D02*
D03*
X349290Y1471630D02*
D03*
X337290D02*
D03*
X639830Y1419580D02*
D03*
X627130D02*
D03*
X565290Y1293630D02*
D03*
X355290Y1251630D02*
D03*
X343290D02*
D03*
X362290Y1269630D02*
D03*
X349290D02*
D03*
X532540Y1442380D02*
D03*
X591290Y1323630D02*
D03*
X667290Y1435630D02*
D03*
Y1243630D02*
D03*
X563290Y1494630D02*
D03*
X692290Y1519630D02*
D03*
X638540Y1522330D02*
D03*
X625840D02*
D03*
X613140D02*
D03*
X633480Y1340840D02*
D03*
X562790Y1388380D02*
D03*
X614430Y1419580D02*
D03*
X692790Y1420630D02*
D03*
X636020Y1324330D02*
D03*
X625860D02*
D03*
X614430D02*
D03*
X632210Y1245590D02*
D03*
X691290Y1325630D02*
D03*
D75*
X459290Y1375130D02*
D03*
X450040Y1374130D02*
D03*
X484277Y1446640D02*
D03*
X490008Y1332912D02*
D03*
X459540Y1364630D02*
D03*
X442290Y1316630D02*
D03*
X416290Y1400630D02*
D03*
X358290Y1307630D02*
D03*
X359290Y1287630D02*
D03*
X352290Y1300630D02*
D03*
Y1292630D02*
D03*
X422290Y1376630D02*
D03*
X344290Y1523630D02*
D03*
Y1511630D02*
D03*
X357290Y1523630D02*
D03*
X380290D02*
D03*
X368290D02*
D03*
X380290Y1512630D02*
D03*
X368290D02*
D03*
X357290D02*
D03*
X412290Y1410630D02*
D03*
X542290Y1424630D02*
D03*
X471290Y1332630D02*
D03*
X466540Y1445380D02*
D03*
X580790Y1422380D02*
D03*
X498790Y1326130D02*
D03*
M02*
