G04*
G04 #@! TF.GenerationSoftware,Altium Limited,Altium Designer,20.0.2 (26)*
G04*
G04 Layer_Color=8421504*
%FSLAX44Y44*%
%MOMM*%
G71*
G01*
G75*
D20*
X529290Y1266630D02*
D03*
D21*
X343290Y1453958D02*
D03*
X459290Y1518630D02*
D03*
D22*
X708290Y1285630D02*
D03*
X710584Y1380630D02*
D03*
X709290Y1478630D02*
D03*
D23*
X366290Y1375630D02*
D03*
D24*
Y1401030D02*
D03*
Y1426430D02*
D03*
D25*
X380290Y1329630D02*
D03*
X390290D02*
D03*
X400290D02*
D03*
X410290D02*
D03*
X420290D02*
D03*
D26*
X430290D02*
D03*
D27*
X447560Y1275360D02*
D03*
D28*
X380060Y1252460D02*
D03*
Y1298260D02*
D03*
D29*
X398290Y1433615D02*
D03*
Y1419645D02*
D03*
Y1402625D02*
D03*
Y1388655D02*
D03*
X529290Y1315615D02*
D03*
Y1301645D02*
D03*
X547290Y1315615D02*
D03*
Y1301645D02*
D03*
X646290Y1450645D02*
D03*
Y1464615D02*
D03*
X599680Y1497755D02*
D03*
Y1511725D02*
D03*
X582660Y1511725D02*
D03*
Y1497755D02*
D03*
Y1462195D02*
D03*
Y1476165D02*
D03*
X645790Y1349389D02*
D03*
Y1363360D02*
D03*
X599701Y1391005D02*
D03*
Y1404975D02*
D03*
X582680Y1404975D02*
D03*
Y1391005D02*
D03*
Y1355445D02*
D03*
Y1369415D02*
D03*
X646180Y1253845D02*
D03*
Y1267815D02*
D03*
X600460Y1297025D02*
D03*
Y1310995D02*
D03*
X582680Y1260829D02*
D03*
Y1274799D02*
D03*
X582790Y1306365D02*
D03*
Y1292395D02*
D03*
X419077Y1493945D02*
D03*
Y1479975D02*
D03*
X448290Y1487600D02*
D03*
Y1473630D02*
D03*
X510988Y1473631D02*
D03*
Y1487601D02*
D03*
D30*
X564305Y1333630D02*
D03*
X578275D02*
D03*
X632305Y1484910D02*
D03*
X646275D02*
D03*
X639790Y1380380D02*
D03*
X653760D02*
D03*
X632845Y1286230D02*
D03*
X646815D02*
D03*
X553805Y1424380D02*
D03*
X567775D02*
D03*
X433042Y1511961D02*
D03*
X419072D02*
D03*
X506275Y1313630D02*
D03*
X492305D02*
D03*
D31*
X633143Y1505486D02*
D03*
X667433D02*
D03*
X638143Y1401680D02*
D03*
X672433D02*
D03*
X636662Y1308078D02*
D03*
X670953D02*
D03*
X382144Y1454580D02*
D03*
X416434D02*
D03*
D32*
X600290Y1468128D02*
D03*
Y1449128D02*
D03*
X622290Y1458628D02*
D03*
X600790Y1373878D02*
D03*
Y1354878D02*
D03*
X622790Y1364378D02*
D03*
X600224Y1270328D02*
D03*
Y1251328D02*
D03*
X622224Y1260828D02*
D03*
D33*
X667290Y1450880D02*
D03*
Y1482380D02*
D03*
X673792Y1348630D02*
D03*
Y1380130D02*
D03*
X667290Y1255240D02*
D03*
Y1286740D02*
D03*
D34*
X521650Y1416764D02*
D03*
Y1408764D02*
D03*
Y1400764D02*
D03*
Y1392764D02*
D03*
Y1384764D02*
D03*
Y1376764D02*
D03*
Y1368764D02*
D03*
Y1360764D02*
D03*
X435650D02*
D03*
Y1368764D02*
D03*
Y1376764D02*
D03*
Y1384764D02*
D03*
Y1392764D02*
D03*
Y1400764D02*
D03*
Y1408764D02*
D03*
Y1416764D02*
D03*
D35*
X506650Y1345764D02*
D03*
X498650D02*
D03*
X490650D02*
D03*
X482650D02*
D03*
X474650D02*
D03*
X466650D02*
D03*
X458650D02*
D03*
X450650D02*
D03*
Y1431764D02*
D03*
X458650D02*
D03*
X466650D02*
D03*
X474650D02*
D03*
X482650D02*
D03*
X490650D02*
D03*
X498650D02*
D03*
X506650D02*
D03*
D36*
X399290Y1478918D02*
D03*
Y1508918D02*
D03*
D37*
X397290Y1493918D02*
D03*
D38*
X372290D02*
D03*
D39*
X489707Y1489505D02*
D03*
X467707D02*
D03*
Y1472505D02*
D03*
X489707D02*
D03*
D40*
X504289Y1294131D02*
D03*
Y1275131D02*
D03*
M02*
