G04*
G04 #@! TF.GenerationSoftware,Altium Limited,Altium Designer,20.0.2 (26)*
G04*
G04 Layer_Physical_Order=3*
G04 Layer_Color=128*
%FSLAX44Y44*%
%MOMM*%
G71*
G01*
G75*
D69*
X519290Y1497630D02*
X519781Y1501108D01*
X452162D02*
X519781D01*
X446290Y1477630D02*
X452162Y1501108D01*
X437040Y1305380D02*
X514540D01*
X407290Y1335130D02*
X437040Y1305380D01*
X407290Y1335130D02*
Y1447534D01*
X437447Y1480630D02*
Y1481630D01*
X437290Y1481787D02*
X437447Y1481630D01*
X437290Y1481787D02*
Y1492630D01*
X451290Y1503630D01*
X437447Y1468712D02*
X445345Y1460815D01*
X437447Y1468712D02*
Y1472278D01*
X522290Y1503630D02*
X522496Y1460815D01*
X451290Y1503630D02*
X522290D01*
X445345Y1460815D02*
X590891D01*
X591715Y1382554D01*
X407290Y1447534D02*
X437447Y1472278D01*
X514540Y1305380D02*
X591715Y1382554D01*
D73*
X320290Y1535430D02*
X320290Y1230630D01*
X320290Y1535430D02*
X739410Y1535430D01*
X739410Y1230630D01*
X320290Y1230630D02*
X739410Y1230630D01*
D74*
X637540Y1441895D02*
D03*
X409290Y1266630D02*
D03*
Y1275630D02*
D03*
X690290Y1245630D02*
D03*
X702290D02*
D03*
X714290D02*
D03*
X727290D02*
D03*
Y1325630D02*
D03*
X715290D02*
D03*
X703290D02*
D03*
X715290Y1339630D02*
D03*
X727290D02*
D03*
X703290D02*
D03*
X691290D02*
D03*
X715290Y1420630D02*
D03*
X727290D02*
D03*
X704290D02*
D03*
X727290Y1438630D02*
D03*
X715290D02*
D03*
X704290D02*
D03*
X692290D02*
D03*
X728290Y1519630D02*
D03*
X717290D02*
D03*
X704290D02*
D03*
X335290Y1436630D02*
D03*
X348290D02*
D03*
X363290Y1445630D02*
D03*
X458291Y1402342D02*
D03*
X458290Y1391630D02*
D03*
X547290Y1508630D02*
D03*
Y1519630D02*
D03*
X565290Y1293630D02*
D03*
X547290Y1255630D02*
D03*
X584290Y1247630D02*
D03*
X543290Y1326630D02*
D03*
X531290D02*
D03*
X355290Y1251630D02*
D03*
X343290D02*
D03*
X362290Y1269630D02*
D03*
X349290D02*
D03*
X345290Y1400630D02*
D03*
X571290Y1440630D02*
D03*
X532540Y1442380D02*
D03*
X547290Y1266630D02*
D03*
X571290Y1247630D02*
D03*
X563290Y1494630D02*
D03*
X692290Y1519630D02*
D03*
X585290Y1440630D02*
D03*
X549790Y1360380D02*
D03*
X612790Y1340630D02*
D03*
X633480Y1340840D02*
D03*
X562790Y1388380D02*
D03*
X692790Y1420630D02*
D03*
X632210Y1245590D02*
D03*
X691290Y1325630D02*
D03*
D75*
X677290Y1524630D02*
D03*
X665540Y1524380D02*
D03*
X654540D02*
D03*
X677520Y1423130D02*
D03*
X666270D02*
D03*
X656540Y1423380D02*
D03*
X618540Y1441880D02*
D03*
X410290Y1425130D02*
D03*
X348040Y1340130D02*
D03*
X340290Y1340630D02*
D03*
X332790D02*
D03*
X340290Y1348130D02*
D03*
X332790D02*
D03*
X347790D02*
D03*
Y1355630D02*
D03*
X340290D02*
D03*
X332540Y1355880D02*
D03*
X400290Y1270630D02*
D03*
X406290Y1285630D02*
D03*
X437290Y1486630D02*
D03*
X504290Y1246630D02*
D03*
X520290D02*
D03*
X490008Y1332912D02*
D03*
X538290Y1246630D02*
D03*
X529290D02*
D03*
X459540Y1364630D02*
D03*
X453013Y1316353D02*
D03*
X416290Y1400630D02*
D03*
X378290Y1284630D02*
D03*
X402290Y1248630D02*
D03*
Y1257630D02*
D03*
X392290Y1284630D02*
D03*
X388290Y1384630D02*
D03*
X422290Y1376630D02*
D03*
X409290Y1387630D02*
D03*
X395290Y1459630D02*
D03*
X386290Y1466630D02*
D03*
X377290D02*
D03*
X382290Y1479630D02*
D03*
X373290D02*
D03*
X364290D02*
D03*
X438290Y1503630D02*
D03*
X429290Y1497630D02*
D03*
X412290Y1410630D02*
D03*
X475540Y1445380D02*
D03*
X542290Y1424630D02*
D03*
X493290Y1444880D02*
D03*
X481290Y1332630D02*
D03*
X498790Y1326130D02*
D03*
D76*
X446290Y1477630D02*
X448290Y1472630D01*
X514290Y1471630D01*
Y1490630D01*
X443290D02*
X514290D01*
D77*
X551540Y1291130D02*
D03*
X549290Y1460630D02*
D03*
X550540Y1384130D02*
D03*
X673540Y1324880D02*
D03*
X663040Y1325130D02*
D03*
X652790Y1324880D02*
D03*
M02*
